<svg xmlns="http://www.w3.org/2000/svg">
<defs>
<font id="TTFirsNeueTrial_Regular" horiz-adv-x="610" >
  <font-face 
    font-family="TTFirsNeueTrial_Regular"
    font-weight="400"
    font-stretch="normal"
    units-per-em="1000"
    panose-1="2 0 5 3 3 0 0 2 0 4"
    ascent="800"
    descent="-200"
    x-height="500"
    cap-height="700"
    bbox="-455 -341 1438 1135"
    underline-thickness="50"
    underline-position="-150"
    unicode-range="U+000D-FB02"
  />
<missing-glyph horiz-adv-x="900" 
d="M100 284h45v-139h33v139h50v31h-128v126l19 -61h23l34 106l33 -106h23l54 170h-32l-34 -110l-35 110h-19l-35 -110l-31 103v157h700v-150h-110v-170h110v-91q-13 27 -50 27q-29 0 -44.5 -14.5t-15.5 -34.5q0 -22 13.5 -32t30 -15t30.5 -9.5t14 -16.5q0 -14 -9.5 -17.5
t-18.5 -3.5q-15 0 -21.5 7.5t-6.5 17.5h-33q0 -24 16.5 -39.5t44.5 -15.5q20 0 32.5 7.5t17.5 12.5v-163h-700v284zM328 143q38 0 60 25t22 61q0 37 -22.5 62t-59.5 25t-59.5 -25t-22.5 -62q0 -36 22 -61t60 -25zM328 174q-23 0 -37 16t-14 39q0 24 13.5 40t37.5 16
t37.5 -16t13.5 -40q0 -23 -14 -39t-37 -16zM344 380v62h24l35 -62h37l-40 67q36 16 36 50q0 21 -15.5 37t-41.5 16h-68v-170h33zM344 519h35q10 0 17 -6t7 -17q0 -13 -8 -18t-16 -5h-35v46zM585 143q29 0 48 18.5t19 47.5v106h-32v-106q0 -15 -9 -25t-26 -10q-18 0 -27 11
t-9 24v106h-32v-106q0 -29 19.5 -47.5t48.5 -18.5zM502 380v170h-33v-170h33zM612 380v139h50v31h-132v-31h50v-139h32zM800 224q-11 10 -24 14.5t-24.5 8.5t-19.5 8t-8 12q0 9 7.5 14.5t18.5 5.5q10 0 18 -6.5t8 -18.5h24v-38zM722 452h78v-41h-78v41zM722 519h78v-36h-78
v36z" />
    <glyph glyph-name="uniE01E" unicode="fj" horiz-adv-x="545" 
d="M245 -115h150v540h-225v-425h-80v425h-65v75h65v200h335v-75h-255v-125h305v-690h-230v75z" />
    <glyph glyph-name="uniE01F" unicode="ft" horiz-adv-x="670" 
d="M90 425h-65v75h65v200h385v-200h160v-75h-160v-350h165v-75h-245v425h-225v-425h-80v425zM395 500v125h-225v-125h225z" />
    <glyph glyph-name="uniE065" unicode="&#xe023;&#xe023;" horiz-adv-x="620" 
d="M90 425h-65v75h65v40q0 79 39 119.5t111 40.5h90v-75h-85q-38 0 -56.5 -20t-18.5 -65v-40h225v40q0 79 39 119.5t111 40.5h90v-75h-85q-38 0 -56.5 -20t-18.5 -65v-40h130v-75h-130v-425h-80v425h-225v-425h-80v425z" />
    <glyph glyph-name="uniE066" unicode="&#xe023;i" horiz-adv-x="545" 
d="M90 425h-65v75h65v40q0 79 39 119.5t111 40.5h185v-75h-180q-38 0 -56.5 -20t-18.5 -65v-40h305v-500h-80v425h-225v-425h-80v425z" />
    <glyph glyph-name="uniE067" unicode="&#xe023;&#xe026;" horiz-adv-x="550" 
d="M90 425h-65v75h65v40q0 36 13.5 67t39 54t61.5 36t81 13q49 0 85.5 -13t61 -36t36.5 -54t12 -67v-540h-80v540q0 42 -29 68.5t-86 26.5t-86 -26.5t-29 -68.5v-40h130v-75h-130v-425h-80v425z" />
    <glyph glyph-name="uniE068" unicode="&#xe023;&#xe025;" horiz-adv-x="545" 
d="M250 -115h75q34 0 52 20t18 65v455h-225v-425h-80v425h-65v75h65v40q0 79 39 119.5t111 40.5h185v-75h-180q-38 0 -56.5 -20t-18.5 -65v-40h305v-530q0 -79 -39 -119.5t-111 -40.5h-75v75z" />
    <glyph glyph-name="uniE069" unicode="&#xe023;&#xe027;" horiz-adv-x="675" 
d="M90 425h-65v75h65v40q0 36 13.5 67t39 54t61.5 36t81 13q49 0 85.5 -13t61 -36t36.5 -54t12 -67v-40h160v-75h-160v-270q0 -80 75 -80h90v-75h-90q-75 0 -115 40t-40 115v270h-230v-425h-80v425zM400 500v40q0 42 -29 68.5t-86 26.5t-86 -26.5t-29 -68.5v-40h230z" />
    <glyph glyph-name="f_f" unicode="ff" horiz-adv-x="620" 
d="M90 425h-65v75h65v200h240v-75h-160v-125h225v200h240v-75h-160v-125h130v-75h-130v-425h-80v425h-225v-425h-80v425z" />
    <glyph glyph-name="fi" unicode="fi" horiz-adv-x="545" 
d="M90 425h-65v75h65v200h335v-75h-255v-125h305v-500h-80v425h-225v-425h-80v425z" />
    <glyph glyph-name="fl" unicode="fl" horiz-adv-x="600" 
d="M90 425h-65v75h65v200h385v-625h115v-75h-195v625h-225v-125h130v-75h-130v-425h-80v425z" />
    <glyph glyph-name=".notdef" horiz-adv-x="900" 
d="M100 284h45v-139h33v139h50v31h-128v126l19 -61h23l34 106l33 -106h23l54 170h-32l-34 -110l-35 110h-19l-35 -110l-31 103v157h700v-150h-110v-170h110v-91q-13 27 -50 27q-29 0 -44.5 -14.5t-15.5 -34.5q0 -22 13.5 -32t30 -15t30.5 -9.5t14 -16.5q0 -14 -9.5 -17.5
t-18.5 -3.5q-15 0 -21.5 7.5t-6.5 17.5h-33q0 -24 16.5 -39.5t44.5 -15.5q20 0 32.5 7.5t17.5 12.5v-163h-700v284zM328 143q38 0 60 25t22 61q0 37 -22.5 62t-59.5 25t-59.5 -25t-22.5 -62q0 -36 22 -61t60 -25zM328 174q-23 0 -37 16t-14 39q0 24 13.5 40t37.5 16
t37.5 -16t13.5 -40q0 -23 -14 -39t-37 -16zM344 380v62h24l35 -62h37l-40 67q36 16 36 50q0 21 -15.5 37t-41.5 16h-68v-170h33zM344 519h35q10 0 17 -6t7 -17q0 -13 -8 -18t-16 -5h-35v46zM585 143q29 0 48 18.5t19 47.5v106h-32v-106q0 -15 -9 -25t-26 -10q-18 0 -27 11
t-9 24v106h-32v-106q0 -29 19.5 -47.5t48.5 -18.5zM502 380v170h-33v-170h33zM612 380v139h50v31h-132v-31h50v-139h32zM800 224q-11 10 -24 14.5t-24.5 8.5t-19.5 8t-8 12q0 9 7.5 14.5t18.5 5.5q10 0 18 -6.5t8 -18.5h24v-38zM722 452h78v-41h-78v41zM722 519h78v-36h-78
v36z" />
    <glyph glyph-name=".null" horiz-adv-x="0" 
 />
    <glyph glyph-name=".null" horiz-adv-x="0" 
 />
    <glyph glyph-name="uni000D" unicode="&#xd;" horiz-adv-x="0" 
 />
    <glyph glyph-name="space" unicode=" " horiz-adv-x="280" 
 />
    <glyph glyph-name="exclam" unicode="!" horiz-adv-x="280" 
d="M140 -15q-26 0 -43 17t-17 43t17 43t43 17t43 -17t17 -43t-17 -43t-43 -17zM95 345v355h90v-355l-15 -140h-60z" />
    <glyph glyph-name="quotedbl" unicode="&#x22;" horiz-adv-x="385" 
d="M235 565v135h80v-135l-15 -110h-50zM70 565v135h80v-135l-15 -110h-50z" />
    <glyph glyph-name="numbersign" unicode="#" horiz-adv-x="665" 
d="M132 195h-107v70h127l50 170h-117v70h138l57 195h85l-57 -195h140l57 195h85l-57 -195h107v-70h-128l-50 -170h118v-70h-138l-57 -195h-85l57 195h-140l-57 -195h-85zM377 265l50 170h-140l-50 -170h140z" />
    <glyph glyph-name="dollar" unicode="$" horiz-adv-x="640" 
d="M280 -17q-39 5 -70.5 17t-55.5 28t-42 35t-31 38q-30 45 -41 99h90q10 -38 36 -68q22 -26 61 -46.5t103 -20.5q45 0 78 9.5t54.5 26t32 38.5t10.5 46q0 32 -18.5 53t-49.5 36t-70 26t-79.5 22.5t-79.5 26.5t-70 37t-49.5 54.5t-18.5 79.5q0 36 14.5 69t41.5 59.5t66 44.5
t88 24v93h90v-93q72 -10 115.5 -40.5t66.5 -64.5q27 -40 38 -87h-90q-9 30 -32 55q-20 20 -55 37.5t-93 17.5q-39 0 -69 -9.5t-50.5 -25.5t-30.5 -37t-10 -43q0 -41 32 -64.5t80.5 -40t105 -31t105 -38t80.5 -61.5t32 -100q0 -38 -15 -72.5t-43.5 -61.5t-70.5 -45.5
t-96 -23.5v-92h-90v93z" />
    <glyph glyph-name="percent" unicode="%" horiz-adv-x="765" 
d="M550 700h85l-420 -700h-85zM560 -10q-34 0 -64 13t-52.5 35.5t-35.5 52.5t-13 64t13 64t35.5 52.5t52.5 35.5t64 13t64 -13t52.5 -35.5t35.5 -52.5t13 -64t-13 -64t-35.5 -52.5t-52.5 -35.5t-64 -13zM560 60q38 0 64 26.5t26 68.5t-26 68.5t-64 26.5t-64 -26.5t-26 -68.5
t26 -68.5t64 -26.5zM205 380q-34 0 -64 13t-52.5 35.5t-35.5 52.5t-13 64t13 64t35.5 52.5t52.5 35.5t64 13t64 -13t52.5 -35.5t35.5 -52.5t13 -64t-13 -64t-35.5 -52.5t-52.5 -35.5t-64 -13zM205 450q38 0 64 26.5t26 68.5t-26 68.5t-64 26.5t-64 -26.5t-26 -68.5t26 -68.5
t64 -26.5z" />
    <glyph glyph-name="ampersand" unicode="&#x26;" horiz-adv-x="710" 
d="M280 -20q-54 0 -101 19.5t-81 53t-53.5 79t-19.5 98.5q0 52 19.5 98t53.5 79.5t81 53t101 19.5q17 0 26.5 -1.5t11.5 -3.5v1l-6 9l-87 130v85h405v-85h-300v-1l405 -614h-105l-100 159l-4 6h-1q-9 -38 -29.5 -72t-51.5 -59t-72 -39.5t-92 -14.5zM280 70q72 0 116 44
t44 116t-44 116t-116 44t-116 -44t-44 -116t44 -116t116 -44z" />
    <glyph glyph-name="quotesingle" unicode="'" horiz-adv-x="220" 
d="M70 565v135h80v-135l-15 -110h-50z" />
    <glyph glyph-name="parenleft" unicode="(" horiz-adv-x="370" 
d="M310 -175q-67 50 -120 120q-23 30 -44.5 66.5t-38 79.5t-27 93t-10.5 106t10.5 106t27 93t38 79.5t44.5 66.5q53 70 120 120l40 -60q-55 -46 -98 -107q-18 -26 -35.5 -58t-31 -69.5t-22 -80t-8.5 -90.5t8.5 -91t22 -80.5t31 -69t35.5 -57.5q43 -61 98 -107l-40 -60v0z
" />
    <glyph glyph-name="parenright" unicode=")" horiz-adv-x="370" 
d="M20 -115q54 46 97 107q18 26 36 57.5t31.5 69t22 80.5t8.5 91t-8.5 90.5t-22 80t-31.5 69.5t-36 58q-43 61 -97 107l40 60q67 -50 120 -120q22 -30 44 -66.5t38.5 -79.5t27 -93t10.5 -106t-10.5 -106t-27 -93t-38.5 -79.5t-44 -66.5q-53 -70 -120 -120z" />
    <glyph glyph-name="asterisk" unicode="*" horiz-adv-x="370" 
d="M65 420l65 100h-95v65h115v115h70v-115h115v-65h-95l65 -100l-55 -30l-65 95l-65 -95z" />
    <glyph glyph-name="plus" unicode="+" horiz-adv-x="510" 
d="M215 270h-160v75h160v165h80v-165h160v-75h-160v-165h-80v165z" />
    <glyph glyph-name="comma" unicode="," horiz-adv-x="210" 
d="M50 -85q60 7 60 65v15q-2 -2 -6 -3q-8 -2 -14 -2q-19 0 -32 14t-13 38q0 29 17 46t43 17t43 -20.5t17 -69.5q0 -68 -31 -102t-84 -38v40z" />
    <glyph glyph-name="hyphen" unicode="-" horiz-adv-x="480" 
d="M60 315h360v-80h-360v80z" />
    <glyph glyph-name="period" unicode="." horiz-adv-x="210" 
d="M105 -15q-26 0 -43 17t-17 43t17 43t43 17t43 -17t17 -43t-17 -43t-43 -17z" />
    <glyph glyph-name="slash" unicode="/" horiz-adv-x="360" 
d="M270 700h90l-270 -700h-90z" />
    <glyph glyph-name="zero" unicode="0" horiz-adv-x="740" 
d="M370 -20q-64 0 -121 26t-100 74.5t-68.5 117t-25.5 152.5t25.5 152.5t68.5 117t100 74.5t121 26t121 -26t100 -74.5t68.5 -117t25.5 -152.5t-25.5 -152.5t-68.5 -117t-100 -74.5t-121 -26zM370 65q47 0 88 18.5t71.5 54.5t48 89.5t17.5 122.5t-17.5 122.5t-48 89.5
t-71.5 54.5t-88 18.5t-88 -18.5t-71.5 -54.5t-48 -89.5t-17.5 -122.5t17.5 -122.5t48 -89.5t71.5 -54.5t88 -18.5z" />
    <glyph glyph-name="one" unicode="1" horiz-adv-x="320" 
d="M150 590l-125 -95v100l135 105h80v-700h-90v590z" />
    <glyph glyph-name="two" unicode="2" horiz-adv-x="570" 
d="M30 85l230 170q43 32 76 60t55 56t33 58t11 66q0 30 -11 55.5t-30.5 44.5t-47 29.5t-61.5 10.5q-51 0 -81.5 -22t-46.5 -48q-19 -31 -27 -70h-95q9 63 39 112q13 21 31.5 41.5t44 36t59 25.5t76.5 10q52 0 96.5 -17.5t76 -48t49.5 -71.5t18 -88q0 -49 -15 -90t-42.5 -77
t-65 -68.5t-82.5 -64.5l-145 -103l-10 -6v-2l9 1h351v-85h-495v85z" />
    <glyph glyph-name="three" unicode="3" horiz-adv-x="595" 
d="M295 -20q-44 0 -79 9t-62.5 23.5t-47.5 33.5t-34 39q-33 46 -47 105h95q9 -36 31 -63q19 -23 53 -42.5t91 -19.5q83 0 126.5 40t43.5 100t-43 100t-122 40h-145v80l234 189l1 1h-330v85h455v-85l-220 -177l-9 -7l-1 -1h15q56 0 103 -18.5t80.5 -49t52.5 -71.5t19 -86
t-19 -86t-53 -71.5t-82 -49t-106 -18.5z" />
    <glyph glyph-name="four" unicode="4" horiz-adv-x="585" 
d="M385 150h-365v85l245 465h100l-245 -465h265v180h5h85v-180h105v-85h-105v-150h-90v150z" />
    <glyph glyph-name="five" unicode="5" horiz-adv-x="615" 
d="M315 -20q-44 0 -79 9t-62 23.5t-46.5 33.5t-33.5 39q-33 46 -44 105h90q9 -36 31 -63q19 -23 53 -42.5t91 -19.5q39 0 70.5 11.5t53.5 32t34 49t12 62.5t-12 62.5t-34 49t-53.5 32t-70.5 11.5q-42 0 -71 -12t-48 -26q-22 -17 -36 -37h-80l30 400h415v-85h-340l-15 -204
v-1q15 14 38 25q20 9 48.5 17t68.5 8q54 0 100 -18.5t79.5 -51t52 -76t18.5 -94.5t-19 -94.5t-53 -76t-82 -51t-106 -18.5z" />
    <glyph glyph-name="six" unicode="6" 
d="M305 -20q-58 0 -106.5 19.5t-84 52.5t-55 77.5t-19.5 95.5q0 39 9 72.5t25 64t37 59.5t44 59l170 220h105l-185 -234l-4 -5l-1 -1q2 1 18 5.5t52 4.5q56 0 104 -19.5t82.5 -52.5t54 -77.5t19.5 -95.5t-19.5 -95.5t-55 -77.5t-84 -52.5t-106.5 -19.5zM305 65
q39 0 71.5 12.5t55.5 34t35.5 50.5t12.5 63t-12.5 63t-35.5 50.5t-55.5 34t-71.5 12.5t-71.5 -12.5t-55.5 -34t-35.5 -50.5t-12.5 -63t12.5 -63t35.5 -50.5t55.5 -34t71.5 -12.5z" />
    <glyph glyph-name="seven" unicode="7" horiz-adv-x="495" 
d="M380 614v1h-370v85h465v-85l-290 -615h-95z" />
    <glyph glyph-name="eight" unicode="8" horiz-adv-x="640" 
d="M320 -20q-66 0 -117 17.5t-86 46.5t-53.5 67t-18.5 79q0 57 22.5 91.5t49.5 54.5q32 23 73 34v5q-32 11 -58 32q-22 18 -39.5 48t-17.5 75q0 37 16.5 71.5t48 61t77 42t103.5 15.5t103.5 -15.5t77 -42t48 -61t16.5 -71.5q0 -45 -18 -75t-40 -48q-26 -21 -57 -32v-5
q40 -11 72 -34q13 -10 26.5 -23.5t23.5 -31.5t16.5 -40.5t6.5 -50.5q0 -41 -18.5 -79t-53.5 -67t-86 -46.5t-117 -17.5zM320 65q47 0 81.5 10.5t57.5 28.5t34.5 41.5t11.5 49.5t-11.5 49.5t-34.5 41.5t-57.5 28.5t-81.5 10.5t-81.5 -10.5t-57.5 -28.5t-34.5 -41.5
t-11.5 -49.5t11.5 -49.5t34.5 -41.5t57.5 -28.5t81.5 -10.5zM320 410q37 0 66 9.5t49 25t30 35t10 40.5q0 49 -38 82t-117 33t-117 -33t-38 -82q0 -21 10 -40.5t30 -35t48.5 -25t66.5 -9.5z" />
    <glyph glyph-name="nine" unicode="9" 
d="M365 234l3 4l1 1q-2 -1 -18 -5t-51 -4q-56 0 -104 19.5t-82.5 52.5t-54 77.5t-19.5 95.5t19.5 95.5t55 77.5t84 52.5t106.5 19.5t106.5 -19.5t84 -52.5t55 -77.5t19.5 -95.5q0 -39 -9.5 -72.5t-25 -64t-36.5 -59.5t-44 -59l-170 -220h-105zM305 315q39 0 71.5 12.5
t55.5 34t35.5 50.5t12.5 63t-12.5 63t-35.5 50.5t-55.5 34t-71.5 12.5t-71.5 -12.5t-55.5 -34t-35.5 -50.5t-12.5 -63t12.5 -63t35.5 -50.5t55.5 -34t71.5 -12.5z" />
    <glyph glyph-name="colon" unicode=":" horiz-adv-x="210" 
d="M105 395q-26 0 -43 17t-17 43t17 43t43 17t43 -17t17 -43t-17 -43t-43 -17zM105 -15q-26 0 -43 17t-17 43t17 43t43 17t43 -17t17 -43t-17 -43t-43 -17z" />
    <glyph glyph-name="semicolon" unicode=";" horiz-adv-x="210" 
d="M105 395q-26 0 -43 17t-17 43t17 43t43 17t43 -17t17 -43t-17 -43t-43 -17zM50 -85q60 7 60 65v15q-2 -2 -6 -3q-8 -2 -14 -2q-19 0 -32 14t-13 38q0 29 17 46t43 17t43 -20.5t17 -69.5q0 -68 -31 -102t-84 -38v40z" />
    <glyph glyph-name="less" unicode="&#x3c;" horiz-adv-x="510" 
d="M55 205v90l390 200v-80l-310 -160v-10l310 -160v-80z" />
    <glyph glyph-name="equal" unicode="=" horiz-adv-x="510" 
d="M70 210h370v-75h-370v75zM70 395h370v-75h-370v75z" />
    <glyph glyph-name="greater" unicode="&#x3e;" horiz-adv-x="510" 
d="M65 85l310 160v10l-310 160v80l390 -200v-90l-390 -200v80z" />
    <glyph glyph-name="question" unicode="?" horiz-adv-x="530" 
d="M245 -15q-26 0 -43 17t-17 43t17 43t43 17t43 -17t17 -43t-17 -43t-43 -17zM200 200q0 52 15.5 86.5t39 58.5t50.5 41t50.5 35.5t39 41t15.5 57.5q0 22 -10 43t-29 37t-45.5 25.5t-60.5 9.5q-51 0 -83 -20t-50 -43q-21 -27 -32 -62h-90q14 58 47 105q14 19 33 38t44.5 34
t57.5 24t73 9q52 0 95.5 -16.5t74.5 -44t48 -64t17 -75.5q0 -47 -15.5 -78.5t-39 -53.5t-50.5 -39t-50.5 -37t-39 -46t-15.5 -66h-90z" />
    <glyph glyph-name="at" unicode="@" horiz-adv-x="815" 
d="M425 -60q-81 0 -150.5 29t-120.5 80t-80 120.5t-29 150.5t29 150.5t80 120.5t120.5 80t150.5 29t146.5 -27.5t112 -71t71.5 -98t25 -108.5q0 -109 -64.5 -172t-185.5 -63h-35v50h-1q-1 -1 -6.5 -10.5t-17.5 -20.5t-31.5 -20t-48.5 -9q-28 0 -54 12.5t-46.5 35t-32.5 53.5
t-12 69q0 37 12 68.5t32.5 54t46.5 35t54 12.5t47.5 -8.5t31.5 -19t18 -20.5t7 -12h1v50h80v-245q53 0 89 40.5t36 119.5q0 43 -17.5 84.5t-52.5 73.5t-86.5 52t-118.5 20q-68 0 -124 -22.5t-96 -62.5t-62.5 -96.5t-22.5 -123.5q0 -68 22.5 -124t62.5 -96t96 -62.5
t124 -22.5q42 0 76 7.5t60 17.5q30 11 54 25v-75q-24 -14 -54 -25q-26 -10 -60 -17.5t-76 -7.5zM410 225q38 0 61.5 25t23.5 70t-23.5 70t-61.5 25t-61.5 -25t-23.5 -70t23.5 -70t61.5 -25z" />
    <glyph glyph-name="A" unicode="A" horiz-adv-x="675" 
d="M200 700h275l180 -700h-90l-55 205h-345l-55 -205h-90zM490 290l-85 325h-135l-85 -325h305z" />
    <glyph glyph-name="B" unicode="B" horiz-adv-x="700" 
d="M80 700h335q47 0 85 -14t64.5 -38.5t41 -57.5t14.5 -70q0 -45 -15.5 -74t-34.5 -46q-22 -20 -50 -30v-5q36 -8 65 -28q24 -17 44.5 -50t20.5 -87q0 -43 -15.5 -79.5t-46 -63.5t-75.5 -42t-103 -15h-330v700zM410 85q75 0 112.5 33t37.5 82q0 53 -37.5 86.5t-112.5 33.5
h-240v-235h240zM410 405q57 0 88.5 30t31.5 75t-31.5 75t-88.5 30h-240v-210h240z" />
    <glyph glyph-name="C" unicode="C" horiz-adv-x="800" 
d="M410 -20q-79 0 -146 27.5t-115.5 77t-76 117t-27.5 148.5t27.5 148.5t76 117t115.5 77t146 27.5q53 0 96 -11t77.5 -29t60.5 -41t45 -47q45 -56 66 -127h-90q-19 47 -53 85q-15 16 -34 31t-44 27t-56 19.5t-68 7.5q-60 0 -110.5 -20.5t-87 -58t-57 -90t-20.5 -116.5
t20.5 -116.5t57 -90t87 -58t110.5 -20.5q38 0 70 8t57.5 21t45 29.5t34.5 33.5q34 40 53 93h90q-24 -76 -70 -135q-20 -26 -46.5 -50t-61 -43t-77.5 -30.5t-95 -11.5z" />
    <glyph glyph-name="D" unicode="D" horiz-adv-x="720" 
d="M80 700h230q79 0 146 -27t116 -74t76 -111t27 -138t-27 -138t-76 -111t-116 -74t-146 -27h-230v700zM310 85q62 0 112.5 19.5t86.5 55t56 84t20 106.5t-20 106.5t-56 84t-86.5 55t-112.5 19.5h-140v-530h140z" />
    <glyph glyph-name="E" unicode="E" 
d="M80 700h490v-85h-400v-220h325v-85h-325v-225h400v-85h-490v700z" />
    <glyph glyph-name="F" unicode="F" horiz-adv-x="580" 
d="M80 700h475v-85h-385v-240h305v-85h-305v-290h-90v700z" />
    <glyph glyph-name="G" unicode="G" horiz-adv-x="860" 
d="M410 -20q-79 0 -146 27.5t-115.5 77t-76 117t-27.5 148.5t27.5 148.5t76 117t115.5 77t146 27.5q52 0 95 -11t77 -28.5t60 -40t45 -45.5q45 -55 68 -125h-90q-20 46 -54 82q-15 15 -34.5 30t-44.5 27t-55.5 19t-66.5 7q-60 0 -110.5 -20.5t-87 -58t-57 -90t-20.5 -116.5
t20.5 -116.5t57 -90t87 -58t110.5 -20.5q54 0 99.5 17.5t80 47t56 68.5t29.5 82h-135v85h310v-85h-85q-15 -66 -45.5 -121t-75.5 -94.5t-104 -62t-130 -22.5z" />
    <glyph glyph-name="H" unicode="H" horiz-adv-x="715" 
d="M80 700h90v-305h375v305h90v-700h-90v310h-375v-310h-90v700z" />
    <glyph glyph-name="I" unicode="I" horiz-adv-x="250" 
d="M80 700h90v-700h-90v700z" />
    <glyph glyph-name="J" unicode="J" horiz-adv-x="550" 
d="M235 -25q-37 0 -66.5 7.5t-53 20.5t-41 29t-30.5 33q-30 40 -44 90l90 20q9 -32 27 -58q16 -22 44.5 -39.5t73.5 -17.5q68 0 106.5 40.5t38.5 119.5v480h90v-480q0 -117 -63 -181t-172 -64z" />
    <glyph glyph-name="K" unicode="K" horiz-adv-x="650" 
d="M80 700h90v-305h135l220 305h105l-245 -340l255 -360h-110l-220 310h-140v-310h-90v700z" />
    <glyph glyph-name="L" unicode="L" horiz-adv-x="540" 
d="M80 700h90v-615h365v-85h-455v700z" />
    <glyph glyph-name="M" unicode="M" horiz-adv-x="915" 
d="M80 700h145l210 -450h45l210 450h145v-700h-90v600l1 10h-2l-204 -440h-165l-204 440h-2l1 -10v-600h-90v700z" />
    <glyph glyph-name="N" unicode="N" horiz-adv-x="725" 
d="M80 700h130l344 -590h2l-1 10v580h90v-700h-130l-344 590h-2l1 -10v-579l-90 -1v700z" />
    <glyph glyph-name="O" unicode="O" horiz-adv-x="820" 
d="M410 -20q-79 0 -146 27.5t-115.5 77t-76 117t-27.5 148.5t27.5 148.5t76 117t115.5 77t146 27.5t145.5 -27.5t115.5 -77t76.5 -117t27.5 -148.5t-27.5 -148.5t-76.5 -117t-115.5 -77t-145.5 -27.5zM410 65q60 0 110.5 20.5t87 58t57 90t20.5 116.5t-20.5 116.5t-57 90
t-87 58t-110.5 20.5t-110.5 -20.5t-87 -58t-57 -90t-20.5 -116.5t20.5 -116.5t57 -90t87 -58t110.5 -20.5z" />
    <glyph glyph-name="P" unicode="P" horiz-adv-x="670" 
d="M80 700h295q60 0 108 -17.5t82 -48.5t52 -73t18 -91t-18 -91t-52 -73t-82 -48.5t-108 -17.5h-205v-240h-90v700zM375 325q83 0 126.5 40.5t43.5 104.5t-43.5 104.5t-126.5 40.5h-205v-290h205z" />
    <glyph glyph-name="Q" unicode="Q" horiz-adv-x="820" 
d="M365 -17q-69 8 -128 38.5t-101.5 78.5t-66.5 111.5t-24 138.5q0 81 27.5 148.5t76 117t115.5 77t146 27.5t145.5 -27.5t115.5 -77t76.5 -117t27.5 -148.5q0 -75 -24 -138.5t-66.5 -111.5t-101.5 -78.5t-128 -38.5v-183h-90v183zM410 65q60 0 110.5 20.5t87 58t57 90
t20.5 116.5t-20.5 116.5t-57 90t-87 58t-110.5 20.5t-110.5 -20.5t-87 -58t-57 -90t-20.5 -116.5t20.5 -116.5t57 -90t87 -58t110.5 -20.5z" />
    <glyph glyph-name="R" unicode="R" horiz-adv-x="685" 
d="M80 700h300q60 0 107.5 -17t80 -46.5t50 -69.5t17.5 -87q0 -78 -48 -134.5t-137 -75.5l180 -270h-105l-170 260h-185v-260h-90v700zM380 345q83 0 124 37.5t41 97.5t-41 97.5t-124 37.5h-210v-270h210z" />
    <glyph glyph-name="S" unicode="S" horiz-adv-x="640" 
d="M330 -20q-48 0 -86 9.5t-67 25t-51 35t-37 40.5q-36 48 -49 110h90q10 -38 36 -68q22 -26 61 -46.5t103 -20.5q45 0 78 9.5t54.5 26t32 38.5t10.5 46q0 32 -18.5 53t-49.5 36t-70 26t-79.5 22.5t-79.5 26.5t-70 37t-49.5 54.5t-18.5 79.5q0 39 17.5 75.5t49.5 64t78.5 44
t104.5 16.5q44 0 79.5 -8.5t62.5 -22t47.5 -31.5t34.5 -36q33 -43 46 -97h-90q-9 30 -32 55q-20 20 -55 37.5t-93 17.5q-39 0 -69 -9.5t-50.5 -25.5t-30.5 -37t-10 -43q0 -41 32 -64.5t80.5 -40t105 -31t105 -38t80.5 -61.5t32 -100q0 -41 -17.5 -78.5t-51.5 -65.5
t-83 -44.5t-113 -16.5z" />
    <glyph glyph-name="T" unicode="T" horiz-adv-x="590" 
d="M250 615h-240v85h570v-85h-240v-615h-90v615z" />
    <glyph glyph-name="U" unicode="U" horiz-adv-x="700" 
d="M350 -20q-62 0 -112.5 20t-86.5 57t-56 89.5t-20 118.5v435h90v-435q0 -47 13.5 -84t38 -63t58.5 -39.5t75 -13.5t75 13.5t58.5 39.5t38 63t13.5 84v435h90v-435q0 -66 -20 -118.5t-56 -89.5t-86.5 -57t-112.5 -20z" />
    <glyph glyph-name="V" unicode="V" horiz-adv-x="670" 
d="M20 700h95l160 -615h120l160 615h95l-185 -700h-260z" />
    <glyph glyph-name="W" unicode="W" horiz-adv-x="965" 
d="M30 700h95l130 -615h25l130 615h145l130 -615h25l130 615h95l-155 -700h-160l-125 615h-25l-125 -615h-160z" />
    <glyph glyph-name="X" unicode="X" horiz-adv-x="630" 
d="M205 345l-175 355h95l155 -310h70l155 310h95l-175 -355l185 -345h-95l-165 305h-70l-165 -305h-95z" />
    <glyph glyph-name="Y" unicode="Y" horiz-adv-x="640" 
d="M275 255l-270 445h105l205 -340h10l205 340h105l-270 -445v-255h-90v255z" />
    <glyph glyph-name="Z" unicode="Z" horiz-adv-x="605" 
d="M30 85l425 525v5h-410v85h525v-85l-425 -525v-5h430v-85h-545v85z" />
    <glyph glyph-name="bracketleft" unicode="[" horiz-adv-x="330" 
d="M80 725h230v-80h-140v-710h140v-80h-230v870z" />
    <glyph glyph-name="backslash" unicode="\" horiz-adv-x="360" 
d="M0 700h90l270 -700h-90z" />
    <glyph glyph-name="bracketright" unicode="]" horiz-adv-x="330" 
d="M20 -65h140v710h-140v80h230v-870h-230v80z" />
    <glyph glyph-name="asciicircum" unicode="^" horiz-adv-x="460" 
d="M180 700h100l145 -320h-80l-105 240h-20l-105 -240h-80z" />
    <glyph glyph-name="underscore" unicode="_" horiz-adv-x="320" 
d="M-20 -105h360v-75h-360v75z" />
    <glyph glyph-name="grave" unicode="`" horiz-adv-x="245" 
d="M30 754v1h100l85 -145h-70z" />
    <glyph glyph-name="a" unicode="a" 
d="M280 -10q-49 0 -92.5 19.5t-76.5 54t-52 82.5t-19 104t19 104t52 82.5t76.5 54t92.5 19.5t83 -14t55.5 -31t31 -31.5l9.5 -14.5h1v81h80v-500h-80v80h-1l-9.5 -14.5t-31 -31t-55.5 -30.5t-83 -14zM290 65q36 0 67 13.5t54 38t36 58.5t13 75t-13 75t-36 58.5t-54 38
t-67 13.5t-67 -13.5t-54 -38t-36 -58.5t-13 -75t13 -75t36 -58.5t54 -38t67 -13.5z" />
    <glyph glyph-name="b" unicode="b" 
d="M330 -10q-49 0 -83 14t-55.5 30.5t-31 31l-9.5 14.5h-1v-80h-80v700h80v-280h1l9.5 14.5t31 31t55.5 30.5t83 14t92.5 -19.5t76.5 -54t52 -82.5t19 -104t-19 -104t-52 -82.5t-76.5 -54t-92.5 -19.5zM320 65q36 0 67 13.5t54 38t36 58.5t13 75t-13 75t-36 58.5t-54 38
t-67 13.5t-67 -13.5t-54 -38t-36 -58.5t-13 -75t13 -75t36 -58.5t54 -38t67 -13.5z" />
    <glyph glyph-name="c" unicode="c" horiz-adv-x="565" 
d="M290 -10q-53 0 -98.5 19.5t-79 54t-53 82.5t-19.5 104t19.5 104t53 82.5t79 54t98.5 19.5q37 0 67.5 -7.5t54.5 -20t42 -28.5t31 -32q31 -39 45 -87h-80q-12 28 -33 50q-18 19 -49 34.5t-78 15.5q-36 0 -67 -13.5t-54 -38t-36 -58.5t-13 -75q0 -42 14 -76t37 -58
t54 -37.5t65 -13.5q49 0 80.5 17t50.5 38q22 24 34 55h80q-14 -53 -46 -93q-14 -17 -32 -33.5t-42.5 -29.5t-55.5 -21t-69 -8z" />
    <glyph glyph-name="d" unicode="d" 
d="M280 -10q-49 0 -92.5 19.5t-76.5 54t-52 82.5t-19 104t19 104t52 82.5t76.5 54t92.5 19.5t83 -14t55.5 -30.5t31 -31l9.5 -14.5h1v280h80v-700h-80v80h-1l-9.5 -14.5t-31 -31t-55.5 -30.5t-83 -14zM290 65q36 0 67 13.5t54 38t36 58.5t13 75t-13 75t-36 58.5t-54 38
t-67 13.5t-67 -13.5t-54 -38t-36 -58.5t-13 -75t13 -75t36 -58.5t54 -38t67 -13.5z" />
    <glyph glyph-name="e" unicode="e" horiz-adv-x="590" 
d="M295 -10q-54 0 -101 19.5t-81 54t-53.5 82.5t-19.5 104t19.5 104t53.5 82.5t81 54t101 19.5t101 -19.5t81 -53.5t53.5 -81t19.5 -101v-30h-430q4 -35 19 -64.5t38 -50.5t53.5 -33t64.5 -12q45 0 76 14t51 31q23 19 38 45h80q-18 -47 -51 -83q-29 -31 -76 -56.5
t-118 -25.5zM465 295q-4 28 -17.5 53.5t-35.5 44.5t-51.5 30.5t-65.5 11.5t-65.5 -11.5t-52 -30.5t-36.5 -44.5t-19 -53.5h343z" />
    <glyph glyph-name="f" unicode="f" horiz-adv-x="315" 
d="M90 425h-65v75h65v200h240v-75h-160v-125h130v-75h-130v-425h-80v425z" />
    <glyph glyph-name="g" unicode="g" 
d="M110 -115h350v195h-1l-9.5 -14.5t-31 -31t-55.5 -30.5t-83 -14t-92.5 19.5t-76.5 54t-52 82.5t-19 104t19 104t52 82.5t76.5 54t92.5 19.5t83 -14t55.5 -30.5t31 -31l9.5 -14.5h1v80h80v-690h-430v75zM290 65q36 0 67 13.5t54 38t36 58.5t13 75t-13 75t-36 58.5t-54 38
t-67 13.5t-67 -13.5t-54 -38t-36 -58.5t-13 -75t13 -75t36 -58.5t54 -38t67 -13.5z" />
    <glyph glyph-name="h" unicode="h" horiz-adv-x="580" 
d="M70 700h80v-275h1q15 24 39 42q20 16 52.5 29.5t77.5 13.5t82 -14.5t63 -42.5t40.5 -67.5t14.5 -90.5v-295h-80v290q0 75 -37.5 110t-97.5 35q-34 0 -62.5 -11.5t-49 -33.5t-32 -52.5t-11.5 -67.5v-270h-80v700z" />
    <glyph glyph-name="i" unicode="i" horiz-adv-x="220" 
d="M70 500h80v-500h-80v500zM110 550q-23 0 -39 16t-16 39t16 39t39 16t39 -16t16 -39t-16 -39t-39 -16z" />
    <glyph glyph-name="j" unicode="j" horiz-adv-x="220" 
d="M-75 -115h145v615h80v-690h-225v75zM110 551q-23 0 -39 16t-16 39t16 39t39 16t39 -16t16 -39t-16 -39t-39 -16z" />
    <glyph glyph-name="k" unicode="k" horiz-adv-x="525" 
d="M70 700h80v-400h100l160 200h95l-185 -235l200 -265h-100l-170 225h-100v-225h-80v700z" />
    <glyph glyph-name="l" unicode="l" horiz-adv-x="275" 
d="M70 700h80v-625h115v-75h-195v700z" />
    <glyph glyph-name="m" unicode="m" horiz-adv-x="915" 
d="M70 500h80v-75h1q14 24 37 42q20 16 51 29.5t76 13.5t75.5 -15.5t49.5 -34.5q22 -22 35 -50h5q16 28 42 50q22 19 57 34.5t86 15.5q39 0 73 -14.5t59 -42.5t39 -67.5t14 -90.5v-295h-80v290q0 72 -33.5 108.5t-86.5 36.5q-30 0 -57 -12.5t-48 -33.5t-33 -49t-12 -60v-280
h-80v290q0 71 -33.5 108t-86.5 37q-30 0 -57 -12.5t-48 -33.5t-33 -49t-12 -60v-280h-80v500z" />
    <glyph glyph-name="n" unicode="n" horiz-adv-x="585" 
d="M70 500h80v-75h1q15 24 39 42q20 16 52.5 29.5t77.5 13.5t82 -14.5t63 -42.5t40.5 -67.5t14.5 -90.5v-295h-80v290q0 75 -37.5 110t-97.5 35q-34 0 -62.5 -11.5t-49 -33.5t-32 -52.5t-11.5 -67.5v-270h-80v500z" />
    <glyph glyph-name="o" unicode="o" horiz-adv-x="600" 
d="M300 -10q-56 0 -104 19.5t-82.5 54t-54 82.5t-19.5 104t19.5 104t54 82.5t82.5 54t104 19.5t104 -19.5t82.5 -54t54 -82.5t19.5 -104t-19.5 -104t-54 -82.5t-82.5 -54t-104 -19.5zM300 65q39 0 72 13.5t57 38t37.5 58.5t13.5 75t-13.5 75t-37.5 58.5t-57 38t-72 13.5
t-72 -13.5t-57 -38t-37.5 -58.5t-13.5 -75t13.5 -75t37.5 -58.5t57 -38t72 -13.5z" />
    <glyph glyph-name="p" unicode="p" 
d="M70 500h80v-80h1l9.5 14.5t31 31t55.5 30.5t83 14t92.5 -19.5t76.5 -54t52 -82.5t19 -104t-19 -104t-52 -82.5t-76.5 -54t-92.5 -19.5t-83 14t-55.5 30.5t-31 31l-9.5 14.5h-1v-270h-80v690zM320 65q36 0 67 13.5t54 38t36 58.5t13 75t-13 75t-36 58.5t-54 38t-67 13.5
t-67 -13.5t-54 -38t-36 -58.5t-13 -75t13 -75t36 -58.5t54 -38t67 -13.5z" />
    <glyph glyph-name="q" unicode="q" 
d="M460 80h-1l-9.5 -14.5t-31 -31t-55.5 -30.5t-83 -14t-92.5 19.5t-76.5 54t-52 82.5t-19 104t19 104t52 82.5t76.5 54t92.5 19.5t83 -14t55.5 -30.5t31 -31l9.5 -14.5h1v80h80v-690h-80v270zM290 65q36 0 67 13.5t54 38t36 58.5t13 75t-13 75t-36 58.5t-54 38t-67 13.5
t-67 -13.5t-54 -38t-36 -58.5t-13 -75t13 -75t36 -58.5t54 -38t67 -13.5z" />
    <glyph glyph-name="r" unicode="r" horiz-adv-x="380" 
d="M70 500h80v-80h1q13 24 34 42q18 16 47 29.5t73 13.5h60v-80h-60q-34 0 -62.5 -11.5t-49 -32t-32 -49t-11.5 -62.5v-270h-80v500z" />
    <glyph glyph-name="s" unicode="s" horiz-adv-x="510" 
d="M265 -10q-37 0 -66 7t-52 18.5t-40.5 26.5t-29.5 30q-29 36 -42 83h85q10 -26 29 -45q17 -17 44.5 -31t71.5 -14q68 0 96.5 22.5t28.5 52.5q0 26 -24.5 40t-61 24t-79.5 19t-79.5 26t-61 45t-24.5 76q0 28 12 53.5t36 44.5t59.5 30.5t82.5 11.5q35 0 62.5 -6.5t49 -17
t37.5 -24t28 -27.5q26 -33 38 -75h-85q-9 20 -26 37q-14 14 -39.5 26t-64.5 12q-28 0 -49 -6t-34.5 -15.5t-20 -21t-6.5 -22.5q0 -26 24.5 -40t61 -24t79.5 -19t79.5 -26t61 -45.5t24.5 -75.5q0 -30 -13 -57t-39 -48t-64 -33t-89 -12z" />
    <glyph glyph-name="t" unicode="t" horiz-adv-x="365" 
d="M90 425h-65v75h65v110h80v-110h160v-75h-160v-350h165v-75h-245v425z" />
    <glyph glyph-name="u" unicode="u" horiz-adv-x="590" 
d="M270 -10q-45 0 -82 14.5t-63 42.5t-40.5 67.5t-14.5 90.5v295h80v-290q0 -75 37.5 -110t97.5 -35q34 0 62.5 11.5t49 33.5t32 52t11.5 68v270h80v-500h-80v75h-1q-16 -25 -40 -43q-20 -16 -52 -29t-77 -13z" />
    <glyph glyph-name="v" unicode="v" horiz-adv-x="525" 
d="M20 500h85l115 -425h85l115 425h85l-140 -500h-205z" />
    <glyph glyph-name="w" unicode="w" horiz-adv-x="775" 
d="M30 500h85l90 -425h25l85 425h145l85 -425h25l90 425h85l-110 -500h-155l-85 425h-15l-85 -425h-155z" />
    <glyph glyph-name="x" unicode="x" horiz-adv-x="495" 
d="M160 255l-145 245h90l120 -205h45l120 205h90l-145 -245l150 -255h-90l-125 220h-45l-125 -220h-90z" />
    <glyph glyph-name="y" unicode="y" horiz-adv-x="505" 
d="M270 0h-115l-135 500h85l110 -425h75l130 425h85l-210 -690h-85z" />
    <glyph glyph-name="z" unicode="z" horiz-adv-x="465" 
d="M25 75l300 349v1h-290v75h395v-75l-300 -349v-1h310v-75h-415v75z" />
    <glyph glyph-name="braceleft" unicode="{" horiz-adv-x="350" 
d="M265 -145q-72 0 -108.5 35.5t-36.5 99.5v215q0 23 -13.5 36.5t-36.5 13.5h-30v75h30q23 0 36.5 13.5t13.5 36.5v210q0 64 36.5 99.5t108.5 35.5h65v-80h-65q-60 0 -60 -55v-210q0 -29 -10.5 -45.5t-22.5 -25.5q-14 -11 -32 -14v-5q18 -3 32 -14q12 -9 22.5 -26t10.5 -45
v-215q0 -55 60 -55h65v-80h-65v0z" />
    <glyph glyph-name="bar" unicode="|" horiz-adv-x="325" 
d="M120 750h85v-850h-85v850z" />
    <glyph glyph-name="braceright" unicode="}" horiz-adv-x="350" 
d="M20 -65h65q60 0 60 55v215q0 28 10 45t22 26q14 11 33 14v5q-19 3 -33 14q-12 9 -22 25.5t-10 45.5v210q0 55 -60 55h-65v80h65q72 0 108.5 -35.5t36.5 -99.5v-210q0 -23 13.5 -36.5t36.5 -13.5h30v-75h-30q-23 0 -36.5 -13.5t-13.5 -36.5v-215q0 -64 -36.5 -99.5
t-108.5 -35.5h-65v80z" />
    <glyph glyph-name="asciitilde" unicode="~" horiz-adv-x="510" 
d="M45 265q0 60 31 90t84 30q34 0 58.5 -10t44.5 -22.5t38 -22.5t39 -10q45 0 45 45v20h80v-20q0 -60 -31 -90t-84 -30q-34 0 -58.5 10t-44.5 22.5t-38 22.5t-39 10q-45 0 -45 -45v-20h-80v20z" />
    <glyph glyph-name="uni00A0" unicode="&#xa0;" horiz-adv-x="280" 
 />
    <glyph glyph-name="exclamdown" unicode="&#xa1;" horiz-adv-x="280" 
d="M95 155l15 140h60l15 -140v-345h-90v345zM140 395q-26 0 -43 17t-17 43t17 43t43 17t43 -17t17 -43t-17 -43t-43 -17z" />
    <glyph glyph-name="cent" unicode="&#xa2;" horiz-adv-x="565" 
d="M245 -6q-44 8 -81.5 30t-65 55.5t-43 77t-15.5 93.5t15.5 93t43 77t65 56t81.5 30v84h80v-82q64 -8 103.5 -35.5t62.5 -58.5q26 -36 39 -79h-80q-12 28 -33 50q-18 19 -49 34.5t-78 15.5q-36 0 -67 -13.5t-54 -38t-36 -58.5t-13 -75q0 -42 14 -76t37 -58t54 -37.5
t65 -13.5q49 0 80.5 17t50.5 38q22 24 34 55h80q-13 -46 -40 -84q-12 -16 -27.5 -32.5t-36.5 -30t-47 -23.5t-59 -13v-87h-80v89z" />
    <glyph glyph-name="sterling" unicode="&#xa3;" horiz-adv-x="560" 
d="M25 85h20q34 0 54.5 22.5t20.5 67.5v160h-75v85h75v107q0 46 14.5 83.5t41 64t64.5 41t85 14.5q34 0 61 -7.5t47.5 -19.5t35.5 -27t25 -31q24 -38 31 -85h-90q-5 24 -18 42q-11 16 -32.5 29.5t-59.5 13.5q-53 0 -84 -31.5t-31 -86.5v-107h160v-85h-160v-160q0 -25 -6 -41
t-14 -26q-9 -11 -20 -18v-5h370v-85h-515v85z" />
    <glyph glyph-name="currency" unicode="&#xa4;" horiz-adv-x="660" 
d="M110 95h-80v85h80v80h-80v85h80v355h255q62 0 110.5 -17t81.5 -46.5t50.5 -69.5t17.5 -87t-17.5 -87t-50.5 -69.5t-81.5 -46.5t-110.5 -17h-165v-80h250v-85h-250v-95h-90v95zM365 345q87 0 128.5 37.5t41.5 97.5t-41.5 97.5t-128.5 37.5h-165v-270h165z" />
    <glyph glyph-name="yen" unicode="&#xa5;" horiz-adv-x="640" 
d="M275 80h-145v75h145v65h-145v75h140l-265 405h105l205 -315h10l205 315h105l-265 -405h140v-75h-145v-65h145v-75h-145v-80h-90v80z" />
    <glyph glyph-name="brokenbar" unicode="&#xa6;" horiz-adv-x="325" 
d="M120 265h85v-365h-85v365zM120 750h85v-365h-85v365z" />
    <glyph glyph-name="section" unicode="&#xa7;" horiz-adv-x="545" 
d="M275 -20q-75 0 -121.5 22.5t-71.5 49.5q-30 32 -42 73h85q9 -20 28 -35q17 -14 45.5 -24.5t76.5 -10.5q37 0 63 6t42 15.5t23 21t7 22.5q0 27 -26.5 43.5t-66.5 28.5t-87 23.5t-87 29t-66.5 44.5t-26.5 71q0 30 14 50.5t31 33.5q19 15 45 25v1q-21 12 -38 29
q-14 14 -25.5 34.5t-11.5 46.5q0 28 12.5 53.5t38 44.5t65.5 30.5t94 11.5q71 0 115 -23t69 -50q28 -32 41 -72h-85q-9 19 -27 35q-16 13 -43 24t-70 11q-36 0 -60.5 -6t-40 -15.5t-22.5 -21t-7 -22.5q0 -28 26.5 -44.5t65.5 -29t85.5 -24.5t85.5 -30t65.5 -45.5t26.5 -71.5
q0 -29 -13 -49t-29 -33.5t-30.5 -20t-17.5 -7.5v-1q1 0 13.5 -7t27.5 -19.5t27 -32t12 -45.5t-13 -51.5t-40 -45t-67.5 -31.5t-94.5 -12zM345 260q15 2 28.5 9t24 17.5t16.5 23t6 25.5q0 22 -20 36.5t-51.5 25t-69.5 19t-74 19.5q-15 -2 -28.5 -9t-24 -17.5t-16.5 -23
t-6 -25.5q0 -23 20 -37t51.5 -24.5t69.5 -19t74 -19.5z" />
    <glyph glyph-name="dieresis" unicode="&#xa8;" horiz-adv-x="350" 
d="M85 625q-23 0 -39 16t-16 39t16 39t39 16t39 -16t16 -39t-16 -39t-39 -16zM265 625q-23 0 -39 16t-16 39t16 39t39 16t39 -16t16 -39t-16 -39t-39 -16z" />
    <glyph glyph-name="copyright" unicode="&#xa9;" horiz-adv-x="840" 
d="M420 -20q-81 0 -149.5 28.5t-118.5 78t-78.5 117t-28.5 146.5t28.5 146.5t78.5 117t118.5 78t149.5 28.5t149.5 -28.5t118.5 -78t78.5 -117t28.5 -146.5t-28.5 -146.5t-78.5 -117t-118.5 -78t-149.5 -28.5zM420 50q64 0 118 22.5t93.5 62t61.5 94.5t22 121t-22 121
t-61.5 94.5t-93.5 62t-118 22.5t-118 -22.5t-93.5 -62t-61.5 -94.5t-22 -121t22 -121t61.5 -94.5t93.5 -62t118 -22.5zM425 165q-38 0 -70.5 14t-57 39t-38.5 59t-14 73t14 73t38.5 59t57 39t70.5 14q25 0 46 -6t38 -15.5t30.5 -21.5t23.5 -25q24 -30 37 -67h-85
q-9 17 -21 30q-11 11 -28 20.5t-41 9.5q-42 0 -71 -30.5t-29 -79.5t29 -79.5t71 -30.5q26 0 43 9.5t28 20.5q12 13 19 30h85q-13 -38 -37 -68q-20 -26 -53.5 -46.5t-84.5 -20.5z" />
    <glyph glyph-name="ordfeminine" unicode="&#xaa;" horiz-adv-x="370" 
d="M150 370q-53 0 -81.5 29t-28.5 71t30 68.5t90 26.5h95v20q0 60 -60 60q-23 0 -36.5 -6t-21.5 -14q-9 -9 -12 -20h-75q10 29 29 52q17 20 44.5 36.5t71.5 16.5q64 0 99.5 -34t35.5 -91v-210h-75v45h-1q-1 -1 -7 -9t-18.5 -17t-32 -16.5t-46.5 -7.5zM170 430q38 0 61.5 23
t23.5 57h-85q-30 0 -42.5 -10.5t-12.5 -29.5q0 -15 12.5 -27.5t42.5 -12.5z" />
    <glyph glyph-name="guillemotleft" unicode="&#xab;" horiz-adv-x="550" 
d="M30 250l210 245l55 -55l-165 -190l165 -190l-55 -55zM245 250l210 245l55 -55l-165 -190l165 -190l-55 -55z" />
    <glyph glyph-name="logicalnot" unicode="&#xac;" horiz-adv-x="510" 
d="M360 275h-300v75h385v-185h-85v110z" />
    <glyph glyph-name="uni00AD" unicode="&#xad;" horiz-adv-x="480" 
d="M60 315h360v-80h-360v80z" />
    <glyph glyph-name="registered" unicode="&#xae;" horiz-adv-x="600" 
d="M300 200q-56 0 -104.5 20t-84 55.5t-56 83t-20.5 101.5t20.5 101.5t56 83t84 55.5t104.5 20t104.5 -20t84 -55.5t56 -83t20.5 -101.5t-20.5 -101.5t-56 -83t-84 -55.5t-104.5 -20zM300 260q43 0 79.5 15t63.5 42t42 63.5t15 79.5t-15 79.5t-42 63.5t-63.5 42t-79.5 15
t-79.5 -15t-63.5 -42t-42 -63.5t-15 -79.5t15 -79.5t42 -63.5t63.5 -42t79.5 -15zM200 590h115q53 0 79 -24t26 -66q0 -21 -8 -35t-17 -23q-11 -11 -25 -17l55 -80h-70l-50 70h-40v-70h-65v245zM315 470q19 0 30 7.5t11 22.5t-11 22.5t-30 7.5h-50v-60h50z" />
    <glyph glyph-name="macron" unicode="&#xaf;" horiz-adv-x="330" 
d="M30 720h270v-70h-270v70z" />
    <glyph glyph-name="degree" unicode="&#xb0;" horiz-adv-x="330" 
d="M165 450q-28 0 -52 10.5t-41 27.5t-27 40t-10 47t10 47t27 40t41 27.5t52 10.5t52 -10.5t41 -27.5t27 -40t10 -47t-10 -47t-27 -40t-41 -27.5t-52 -10.5zM165 515q26 0 43 17t17 43t-17 43t-43 17t-43 -17t-17 -43t17 -43t43 -17z" />
    <glyph glyph-name="plusminus" unicode="&#xb1;" horiz-adv-x="510" 
d="M55 90h160v155h-160v75h160v165h80v-165h160v-75h-160v-155h160v-75h-400v75z" />
    <glyph glyph-name="twosuperior" unicode="&#xb2;" horiz-adv-x="355" 
d="M35 525l80 50q36 22 60 39.5t38.5 31.5t20.5 26t6 23q0 23 -15 36.5t-45 13.5q-23 0 -37.5 -8.5t-22.5 -19.5q-10 -12 -14 -27h-71q6 34 24 60q15 23 43.5 41.5t77.5 18.5q64 0 99.5 -33t35.5 -81q0 -46 -35 -82.5t-110 -77.5l-13 -7l-7 -3v-2l10 1h160v-65h-285v65z" />
    <glyph glyph-name="threesuperior" unicode="&#xb3;" horiz-adv-x="350" 
d="M175 450q-48 0 -75.5 17t-43.5 38q-18 24 -26 55h76q5 -13 14 -23q8 -8 21 -15t34 -7q34 0 49.5 13.5t15.5 36.5q0 19 -16 32t-54 13h-70v60l90 64v2l-10 -1h-130v65h245v-60l-85 -62l-10 -6v-2h5q49 0 79.5 -30t30.5 -75q0 -49 -36 -82t-104 -33z" />
    <glyph glyph-name="acute" unicode="&#xb4;" horiz-adv-x="245" 
d="M115 755h100v-1l-115 -144h-70z" />
    <glyph glyph-name="uni00B5" unicode="&#xb5;" horiz-adv-x="590" 
d="M70 500h80v-290q0 -72 37.5 -108.5t97.5 -36.5q34 0 62.5 11.5t49 33.5t32 52t11.5 68v270h80v-500h-80v75h-1q-15 -25 -39 -43q-20 -16 -51 -29t-74 -13q-29 0 -51 7.5t-39 17.5q-19 11 -34 25h-2l1 -10v-228h-80v698z" />
    <glyph glyph-name="paragraph" unicode="&#xb6;" horiz-adv-x="415" 
d="M215 330q-38 0 -71.5 15t-58.5 40t-40 58.5t-15 71.5q0 37 15 71t42 59t63.5 40t79.5 15h160v-80h-85v-810h-90v520z" />
    <glyph glyph-name="periodcentered" unicode="&#xb7;" horiz-adv-x="280" 
d="M140 210q-26 0 -43 17t-17 43t17 43t43 17t43 -17t17 -43t-17 -43t-43 -17z" />
    <glyph glyph-name="cedilla" unicode="&#xb8;" horiz-adv-x="245" 
d="M105 -240q-19 0 -33 3t-23 7q-11 4 -19 10v55q8 -6 19 -10q9 -4 23 -7t33 -3q26 0 38 12.5t12 27.5q0 19 -12.5 29.5t-42.5 10.5h-40l50 115h55l-30 -65q22 -4 40 -15q15 -10 27.5 -27.5t12.5 -47.5q0 -19 -8 -36t-22.5 -30t-35 -21t-44.5 -8z" />
    <glyph glyph-name="onesuperior" unicode="&#xb9;" horiz-adv-x="350" 
d="M55 525h100v195l-90 -50v80l95 50h70v-275h95v-65h-270v65z" />
    <glyph glyph-name="ordmasculine" unicode="&#xba;" horiz-adv-x="400" 
d="M200 370q-36 0 -67 13t-54 36t-36 54t-13 67t13 67t36 54t54 36t67 13t67 -13t54 -36t36 -54t13 -67t-13 -67t-36 -54t-54 -36t-67 -13zM200 440q42 0 68.5 27.5t26.5 72.5t-26.5 72.5t-68.5 27.5t-68.5 -27.5t-26.5 -72.5t26.5 -72.5t68.5 -27.5z" />
    <glyph glyph-name="guillemotright" unicode="&#xbb;" horiz-adv-x="550" 
d="M40 60l165 190l-165 190l55 55l210 -245l-210 -245zM255 60l165 190l-165 190l55 55l210 -245l-210 -245z" />
    <glyph glyph-name="onequarter" unicode="&#xbc;" horiz-adv-x="753" 
d="M590 700h80l-430 -700h-80zM55 425h100v195l-90 -50v80l95 50h70v-275h95v-65h-270v65zM613 70h-170v65l130 205h80l-130 -205h90v65h75v-65h50v-65h-50v-70h-75v70z" />
    <glyph glyph-name="onehalf" unicode="&#xbd;" horiz-adv-x="801" 
d="M590 700h80l-430 -700h-80zM55 425h100v195l-90 -50v80l95 50h70v-275h95v-65h-270v65zM481 65l80 50q36 22 60 39.5t38.5 31.5t20.5 26t6 23q0 23 -15 36.5t-45 13.5q-23 0 -37.5 -8.5t-22.5 -19.5q-10 -12 -14 -27h-71q6 34 24 60q15 23 43.5 41.5t77.5 18.5
q64 0 99.5 -33t35.5 -81q0 -46 -35 -82.5t-110 -77.5l-13 -7l-7 -3v-2l10 1h160v-65h-285v65z" />
    <glyph glyph-name="threequarters" unicode="&#xbe;" horiz-adv-x="738" 
d="M575 700h80l-430 -700h-80zM175 350q-48 0 -75.5 17t-43.5 38q-18 24 -26 55h76q5 -13 14 -23q8 -8 21 -15t34 -7q34 0 49.5 13.5t15.5 36.5q0 19 -16 32t-54 13h-70v60l90 64v2l-10 -1h-130v65h245v-60l-85 -62l-10 -6v-2h5q49 0 79.5 -30t30.5 -75q0 -49 -36 -82
t-104 -33zM598 70h-170v65l130 205h80l-130 -205h90v65h75v-65h50v-65h-50v-70h-75v70z" />
    <glyph glyph-name="questiondown" unicode="&#xbf;" horiz-adv-x="520" 
d="M255 -210q-53 0 -96 16.5t-74 44t-48 64t-17 75.5q0 47 15.5 77.5t39 51.5t50.5 37t50.5 34.5t39 44t15.5 65.5h90q0 -52 -15.5 -86t-39 -56.5t-50.5 -38.5t-50.5 -33t-39 -39t-15.5 -57q0 -23 10 -43.5t28.5 -36.5t45.5 -25.5t61 -9.5q51 0 83 19.5t50 42.5q21 27 32 63
h90q-14 -59 -47 -105q-14 -20 -33 -39t-44.5 -33.5t-58 -23.5t-72.5 -9zM275 395q-26 0 -43 17t-17 43t17 43t43 17t43 -17t17 -43t-17 -43t-43 -17z" />
    <glyph glyph-name="Agrave" unicode="&#xc0;" horiz-adv-x="675" 
d="M200 700h275l180 -700h-90l-55 205h-345l-55 -205h-90zM490 290l-85 325h-135l-85 -325h305zM185 893v1h100l85 -145h-70z" />
    <glyph glyph-name="Aacute" unicode="&#xc1;" horiz-adv-x="675" 
d="M200 700h275l180 -700h-90l-55 205h-345l-55 -205h-90zM490 290l-85 325h-135l-85 -325h305zM391 894h100v-1l-115 -144h-70z" />
    <glyph glyph-name="Acircumflex" unicode="&#xc2;" horiz-adv-x="675" 
d="M200 700h275l180 -700h-90l-55 205h-345l-55 -205h-90zM490 290l-85 325h-135l-85 -325h305zM183 751l110 144h90l110 -144v-1h-85l-65 90h-10l-65 -90h-85v1z" />
    <glyph glyph-name="Atilde" unicode="&#xc3;" horiz-adv-x="675" 
d="M200 700h275l180 -700h-90l-55 205h-345l-55 -205h-90zM490 290l-85 325h-135l-85 -325h305zM413 751q-26 0 -44 9.5t-32 20.5t-26.5 20.5t-27.5 9.5q-30 0 -30 -30v-25h-65v28q0 39 26.5 65.5t68.5 26.5q26 0 44 -9.5t32 -20.5t26.5 -20.5t27.5 -9.5q30 0 30 30v25h65
v-28q0 -39 -26.5 -65.5t-68.5 -26.5z" />
    <glyph glyph-name="Adieresis" unicode="&#xc4;" horiz-adv-x="675" 
d="M200 700h275l180 -700h-90l-55 205h-345l-55 -205h-90zM490 290l-85 325h-135l-85 -325h305zM250 805q-23 0 -39 16t-16 39t16 39t39 16t39 -16t16 -39t-16 -39t-39 -16zM430 805q-23 0 -39 16t-16 39t16 39t39 16t39 -16t16 -39t-16 -39t-39 -16z" />
    <glyph glyph-name="Aring" unicode="&#xc5;" horiz-adv-x="675" 
d="M200 700h275l180 -700h-90l-55 205h-345l-55 -205h-90zM490 290l-85 325h-135l-85 -325h305zM340 755q-45 0 -75 30t-30 75t30 75t75 30t75 -30t30 -75t-30 -75t-75 -30zM340 805q26 0 40.5 16t14.5 39t-14.5 39t-40.5 16t-40.5 -16t-14.5 -39t14.5 -39t40.5 -16z" />
    <glyph glyph-name="AE" unicode="&#xc6;" horiz-adv-x="980" 
d="M200 700h740v-85h-385v-220h310v-85h-310v-225h385v-85h-475v205h-300l-55 -205h-90zM465 290v325h-195l-85 -325h280z" />
    <glyph glyph-name="Ccedilla" unicode="&#xc7;" horiz-adv-x="800" 
d="M385 -240q-19 0 -33 3t-23 7q-11 4 -19 10v55q8 -6 19 -10q9 -4 23 -7t33 -3q26 0 38 12.5t12 27.5q0 19 -12.5 29.5t-42.5 10.5h-40l37 86q-72 6 -133 35.5t-105.5 78t-69 113.5t-24.5 142q0 81 27.5 148.5t76 117t115.5 77t146 27.5q53 0 96 -11t77.5 -29t60.5 -41
t45 -47q45 -56 66 -127h-90q-19 47 -53 85q-15 16 -34 31t-44 27t-56 19.5t-68 7.5q-60 0 -110.5 -20.5t-87 -58t-57 -90t-20.5 -116.5t20.5 -116.5t57 -90t87 -58t110.5 -20.5q38 0 70 8t57.5 21t45 29.5t34.5 33.5q34 40 53 93h90q-23 -72 -66 -130q-19 -25 -44 -49
t-57 -43t-72.5 -32t-89.5 -15l-16 -36q22 -4 40 -15q15 -10 27.5 -27.5t12.5 -47.5q0 -19 -8 -36t-22.5 -30t-35 -21t-44.5 -8z" />
    <glyph glyph-name="Egrave" unicode="&#xc8;" 
d="M80 700h490v-85h-400v-220h325v-85h-325v-225h400v-85h-490v700zM233 895v1h100l85 -145h-70z" />
    <glyph glyph-name="Eacute" unicode="&#xc9;" 
d="M80 700h490v-85h-400v-220h325v-85h-325v-225h400v-85h-490v700zM317 898h100v-1l-115 -144h-70z" />
    <glyph glyph-name="Ecircumflex" unicode="&#xca;" 
d="M80 700h490v-85h-400v-220h325v-85h-325v-225h400v-85h-490v700zM170 749l110 144h90l110 -144v-1h-85l-65 90h-10l-65 -90h-85v1z" />
    <glyph glyph-name="Edieresis" unicode="&#xcb;" 
d="M80 700h490v-85h-400v-220h325v-85h-325v-225h400v-85h-490v700zM235 805q-23 0 -39 16t-16 39t16 39t39 16t39 -16t16 -39t-16 -39t-39 -16zM415 805q-23 0 -39 16t-16 39t16 39t39 16t39 -16t16 -39t-16 -39t-39 -16z" />
    <glyph glyph-name="Igrave" unicode="&#xcc;" horiz-adv-x="250" 
d="M80 700h90v-700h-90v700zM-25 893v1h100l85 -145h-70z" />
    <glyph glyph-name="Iacute" unicode="&#xcd;" horiz-adv-x="250" 
d="M80 700h90v-700h-90v700zM175 895h100v-1l-115 -144h-70z" />
    <glyph glyph-name="Icircumflex" unicode="&#xce;" horiz-adv-x="250" 
d="M80 700h90v-700h-90v700zM-30 791l110 144h90l110 -144v-1h-85l-65 90h-10l-65 -90h-85v1z" />
    <glyph glyph-name="Idieresis" unicode="&#xcf;" horiz-adv-x="250" 
d="M80 700h90v-700h-90v700zM35 805q-23 0 -39 16t-16 39t16 39t39 16t39 -16t16 -39t-16 -39t-39 -16zM215 805q-23 0 -39 16t-16 39t16 39t39 16t39 -16t16 -39t-16 -39t-39 -16z" />
    <glyph glyph-name="Eth" unicode="&#xd0;" horiz-adv-x="730" 
d="M90 305h-70v90h70v305h230q79 0 146 -27t116 -74t76 -111t27 -138t-27 -138t-76 -111t-116 -74t-146 -27h-230v305zM320 85q62 0 112.5 19.5t86.5 55t56 84t20 106.5t-20 106.5t-56 84t-86.5 55t-112.5 19.5h-140v-220h180v-90h-180v-220h140z" />
    <glyph glyph-name="Ntilde" unicode="&#xd1;" horiz-adv-x="725" 
d="M80 700h130l344 -590h2l-1 10v580h90v-700h-130l-344 590h-2l1 -10v-579l-90 -1v700zM430 800q-26 0 -44 9.5t-32 20.5t-26.5 20.5t-27.5 9.5q-30 0 -30 -30v-25h-65v28q0 39 26.5 65.5t68.5 26.5q26 0 44 -9.5t32 -20.5t26.5 -20.5t27.5 -9.5q30 0 30 30v25h65v-28
q0 -39 -26.5 -65.5t-68.5 -26.5z" />
    <glyph glyph-name="Ograve" unicode="&#xd2;" horiz-adv-x="820" 
d="M410 -20q-79 0 -146 27.5t-115.5 77t-76 117t-27.5 148.5t27.5 148.5t76 117t115.5 77t146 27.5t145.5 -27.5t115.5 -77t76.5 -117t27.5 -148.5t-27.5 -148.5t-76.5 -117t-115.5 -77t-145.5 -27.5zM410 65q60 0 110.5 20.5t87 58t57 90t20.5 116.5t-20.5 116.5t-57 90
t-87 58t-110.5 20.5t-110.5 -20.5t-87 -58t-57 -90t-20.5 -116.5t20.5 -116.5t57 -90t87 -58t110.5 -20.5zM295 923v1h100l85 -145h-70z" />
    <glyph glyph-name="Oacute" unicode="&#xd3;" horiz-adv-x="820" 
d="M410 -20q-79 0 -146 27.5t-115.5 77t-76 117t-27.5 148.5t27.5 148.5t76 117t115.5 77t146 27.5t145.5 -27.5t115.5 -77t76.5 -117t27.5 -148.5t-27.5 -148.5t-76.5 -117t-115.5 -77t-145.5 -27.5zM410 65q60 0 110.5 20.5t87 58t57 90t20.5 116.5t-20.5 116.5t-57 90
t-87 58t-110.5 20.5t-110.5 -20.5t-87 -58t-57 -90t-20.5 -116.5t20.5 -116.5t57 -90t87 -58t110.5 -20.5zM425 922h100v-1l-115 -144h-70z" />
    <glyph glyph-name="Ocircumflex" unicode="&#xd4;" horiz-adv-x="820" 
d="M410 -20q-79 0 -146 27.5t-115.5 77t-76 117t-27.5 148.5t27.5 148.5t76 117t115.5 77t146 27.5t145.5 -27.5t115.5 -77t76.5 -117t27.5 -148.5t-27.5 -148.5t-76.5 -117t-115.5 -77t-145.5 -27.5zM410 65q60 0 110.5 20.5t87 58t57 90t20.5 116.5t-20.5 116.5t-57 90
t-87 58t-110.5 20.5t-110.5 -20.5t-87 -58t-57 -90t-20.5 -116.5t20.5 -116.5t57 -90t87 -58t110.5 -20.5zM255 750l110 144h90l110 -144v-1h-85l-65 90h-10l-65 -90h-85v1z" />
    <glyph glyph-name="Otilde" unicode="&#xd5;" horiz-adv-x="820" 
d="M410 -20q-79 0 -146 27.5t-115.5 77t-76 117t-27.5 148.5t27.5 148.5t76 117t115.5 77t146 27.5t145.5 -27.5t115.5 -77t76.5 -117t27.5 -148.5t-27.5 -148.5t-76.5 -117t-115.5 -77t-145.5 -27.5zM410 65q60 0 110.5 20.5t87 58t57 90t20.5 116.5t-20.5 116.5t-57 90
t-87 58t-110.5 20.5t-110.5 -20.5t-87 -58t-57 -90t-20.5 -116.5t20.5 -116.5t57 -90t87 -58t110.5 -20.5zM475 779q-26 0 -44 9.5t-32 20.5t-26.5 20.5t-27.5 9.5q-30 0 -30 -30v-25h-65v28q0 39 26.5 65.5t68.5 26.5q26 0 44 -9.5t32 -20.5t26.5 -20.5t27.5 -9.5
q30 0 30 30v25h65v-28q0 -39 -26.5 -65.5t-68.5 -26.5z" />
    <glyph glyph-name="Odieresis" unicode="&#xd6;" horiz-adv-x="820" 
d="M410 -20q-79 0 -146 27.5t-115.5 77t-76 117t-27.5 148.5t27.5 148.5t76 117t115.5 77t146 27.5t145.5 -27.5t115.5 -77t76.5 -117t27.5 -148.5t-27.5 -148.5t-76.5 -117t-115.5 -77t-145.5 -27.5zM410 65q60 0 110.5 20.5t87 58t57 90t20.5 116.5t-20.5 116.5t-57 90
t-87 58t-110.5 20.5t-110.5 -20.5t-87 -58t-57 -90t-20.5 -116.5t20.5 -116.5t57 -90t87 -58t110.5 -20.5zM320 805q-23 0 -39 16t-16 39t16 39t39 16t39 -16t16 -39t-16 -39t-39 -16zM500 805q-23 0 -39 16t-16 39t16 39t39 16t39 -16t16 -39t-16 -39t-39 -16z" />
    <glyph glyph-name="multiply" unicode="&#xd7;" horiz-adv-x="510" 
d="M75 175l125 125l-125 125l55 55l125 -125l125 125l55 -55l-125 -125l125 -125l-55 -55l-125 125l-125 -125z" />
    <glyph glyph-name="Oslash" unicode="&#xd8;" horiz-adv-x="820" 
d="M410 -20q-83 0 -152 29.5t-118 83.5l-125 -98v90l83 65q-26 42 -39.5 92.5t-13.5 107.5q0 81 27.5 148.5t76 117t115.5 77t146 27.5q82 0 151 -30t119 -84l125 99v-90l-83 -65q26 -43 39.5 -93t13.5 -107q0 -81 -27.5 -148.5t-76.5 -117t-115.5 -77t-145.5 -27.5zM410 65
q60 0 110.5 20.5t87 58t57 90t20.5 116.5q0 41 -8.5 77t-24.5 68l-443 -348q37 -39 88 -60.5t113 -21.5zM611 552q-37 40 -88 61.5t-113 21.5q-60 0 -110.5 -20.5t-87 -58t-57 -90t-20.5 -116.5q0 -84 33 -145z" />
    <glyph glyph-name="Ugrave" unicode="&#xd9;" horiz-adv-x="700" 
d="M350 -20q-62 0 -112.5 20t-86.5 57t-56 89.5t-20 118.5v435h90v-435q0 -47 13.5 -84t38 -63t58.5 -39.5t75 -13.5t75 13.5t58.5 39.5t38 63t13.5 84v435h90v-435q0 -66 -20 -118.5t-56 -89.5t-86.5 -57t-112.5 -20zM245 892v1h100l85 -145h-70z" />
    <glyph glyph-name="Uacute" unicode="&#xda;" horiz-adv-x="700" 
d="M350 -20q-62 0 -112.5 20t-86.5 57t-56 89.5t-20 118.5v435h90v-435q0 -47 13.5 -84t38 -63t58.5 -39.5t75 -13.5t75 13.5t58.5 39.5t38 63t13.5 84v435h90v-435q0 -66 -20 -118.5t-56 -89.5t-86.5 -57t-112.5 -20zM365 892h100v-1l-115 -144h-70z" />
    <glyph glyph-name="Ucircumflex" unicode="&#xdb;" horiz-adv-x="700" 
d="M350 -20q-62 0 -112.5 20t-86.5 57t-56 89.5t-20 118.5v435h90v-435q0 -47 13.5 -84t38 -63t58.5 -39.5t75 -13.5t75 13.5t58.5 39.5t38 63t13.5 84v435h90v-435q0 -66 -20 -118.5t-56 -89.5t-86.5 -57t-112.5 -20zM195 791l110 144h90l110 -144v-1h-85l-65 90h-10
l-65 -90h-85v1z" />
    <glyph glyph-name="Udieresis" unicode="&#xdc;" horiz-adv-x="700" 
d="M350 -20q-62 0 -112.5 20t-86.5 57t-56 89.5t-20 118.5v435h90v-435q0 -47 13.5 -84t38 -63t58.5 -39.5t75 -13.5t75 13.5t58.5 39.5t38 63t13.5 84v435h90v-435q0 -66 -20 -118.5t-56 -89.5t-86.5 -57t-112.5 -20zM260 805q-23 0 -39 16t-16 39t16 39t39 16t39 -16
t16 -39t-16 -39t-39 -16zM440 805q-23 0 -39 16t-16 39t16 39t39 16t39 -16t16 -39t-16 -39t-39 -16z" />
    <glyph glyph-name="Yacute" unicode="&#xdd;" horiz-adv-x="640" 
d="M275 255l-270 445h105l205 -340h10l205 340h105l-270 -445v-255h-90v255zM313 896h100v-1l-115 -144h-70z" />
    <glyph glyph-name="Thorn" unicode="&#xde;" horiz-adv-x="700" 
d="M80 700h90v-135h255q58 0 103.5 -16t77 -44t48 -66.5t16.5 -83.5t-16.5 -83.5t-48 -66.5t-77.5 -44t-104 -16h-254v-145h-90v700zM424 230q80 0 118 34t38 91t-38 91t-117 34h-255v-250h254z" />
    <glyph glyph-name="germandbls" unicode="&#xdf;" horiz-adv-x="570" 
d="M70 530q0 37 14.5 70t40.5 57.5t63 38.5t82 14t82 -14t63 -38t40.5 -55.5t14.5 -67.5q0 -45 -15 -74t-33 -46q-21 -20 -47 -30v-5q43 -8 77 -30q15 -9 29 -22.5t25 -32t17.5 -42t6.5 -53.5q0 -43 -15.5 -79.5t-43.5 -63.5t-67.5 -42t-88.5 -15h-65v75h65q64 0 99.5 34
t35.5 91q0 26 -10.5 49.5t-30 41.5t-46 28.5t-58.5 10.5h-55v75q32 0 58 9.5t44 26.5t28 40t10 49q0 21 -9 40t-25 33.5t-38 23t-48 8.5q-53 0 -86.5 -33t-33.5 -82v-520h-80v530z" />
    <glyph glyph-name="agrave" unicode="&#xe0;" 
d="M280 -10q-49 0 -92.5 19.5t-76.5 54t-52 82.5t-19 104t19 104t52 82.5t76.5 54t92.5 19.5t83 -14t55.5 -31t31 -31.5l9.5 -14.5h1v81h80v-500h-80v80h-1l-9.5 -14.5t-31 -31t-55.5 -30.5t-83 -14zM290 65q36 0 67 13.5t54 38t36 58.5t13 75t-13 75t-36 58.5t-54 38
t-67 13.5t-67 -13.5t-54 -38t-36 -58.5t-13 -75t13 -75t36 -58.5t54 -38t67 -13.5zM198 697v1h100l85 -145h-70z" />
    <glyph glyph-name="aacute" unicode="&#xe1;" 
d="M280 -10q-49 0 -92.5 19.5t-76.5 54t-52 82.5t-19 104t19 104t52 82.5t76.5 54t92.5 19.5t83 -14t55.5 -31t31 -31.5l9.5 -14.5h1v81h80v-500h-80v80h-1l-9.5 -14.5t-31 -31t-55.5 -30.5t-83 -14zM290 65q36 0 67 13.5t54 38t36 58.5t13 75t-13 75t-36 58.5t-54 38
t-67 13.5t-67 -13.5t-54 -38t-36 -58.5t-13 -75t13 -75t36 -58.5t54 -38t67 -13.5zM283 697h100v-1l-115 -144h-70z" />
    <glyph glyph-name="acircumflex" unicode="&#xe2;" 
d="M280 -10q-49 0 -92.5 19.5t-76.5 54t-52 82.5t-19 104t19 104t52 82.5t76.5 54t92.5 19.5t83 -14t55.5 -31t31 -31.5l9.5 -14.5h1v81h80v-500h-80v80h-1l-9.5 -14.5t-31 -31t-55.5 -30.5t-83 -14zM290 65q36 0 67 13.5t54 38t36 58.5t13 75t-13 75t-36 58.5t-54 38
t-67 13.5t-67 -13.5t-54 -38t-36 -58.5t-13 -75t13 -75t36 -58.5t54 -38t67 -13.5zM135 553l110 144h90l110 -144v-1h-85l-65 90h-10l-65 -90h-85v1z" />
    <glyph glyph-name="atilde" unicode="&#xe3;" 
d="M280 -10q-49 0 -92.5 19.5t-76.5 54t-52 82.5t-19 104t19 104t52 82.5t76.5 54t92.5 19.5t83 -14t55.5 -31t31 -31.5l9.5 -14.5h1v81h80v-500h-80v80h-1l-9.5 -14.5t-31 -31t-55.5 -30.5t-83 -14zM290 65q36 0 67 13.5t54 38t36 58.5t13 75t-13 75t-36 58.5t-54 38
t-67 13.5t-67 -13.5t-54 -38t-36 -58.5t-13 -75t13 -75t36 -58.5t54 -38t67 -13.5zM355 550q-26 0 -44 9.5t-32 20.5t-26.5 20.5t-27.5 9.5q-30 0 -30 -30v-25h-65v28q0 39 26.5 65.5t68.5 26.5q26 0 44 -9.5t32 -20.5t26.5 -20.5t27.5 -9.5q30 0 30 30v25h65v-28
q0 -39 -26.5 -65.5t-68.5 -26.5z" />
    <glyph glyph-name="adieresis" unicode="&#xe4;" 
d="M280 -10q-49 0 -92.5 19.5t-76.5 54t-52 82.5t-19 104t19 104t52 82.5t76.5 54t92.5 19.5t83 -14t55.5 -31t31 -31.5l9.5 -14.5h1v81h80v-500h-80v80h-1l-9.5 -14.5t-31 -31t-55.5 -30.5t-83 -14zM290 65q36 0 67 13.5t54 38t36 58.5t13 75t-13 75t-36 58.5t-54 38
t-67 13.5t-67 -13.5t-54 -38t-36 -58.5t-13 -75t13 -75t36 -58.5t54 -38t67 -13.5zM215 625q-23 0 -39 16t-16 39t16 39t39 16t39 -16t16 -39t-16 -39t-39 -16zM395 625q-23 0 -39 16t-16 39t16 39t39 16t39 -16t16 -39t-16 -39t-39 -16z" />
    <glyph glyph-name="aring" unicode="&#xe5;" 
d="M280 -10q-49 0 -92.5 19.5t-76.5 54t-52 82.5t-19 104t19 104t52 82.5t76.5 54t92.5 19.5t83 -14t55.5 -31t31 -31.5l9.5 -14.5h1v81h80v-500h-80v80h-1l-9.5 -14.5t-31 -31t-55.5 -30.5t-83 -14zM290 65q36 0 67 13.5t54 38t36 58.5t13 75t-13 75t-36 58.5t-54 38
t-67 13.5t-67 -13.5t-54 -38t-36 -58.5t-13 -75t13 -75t36 -58.5t54 -38t67 -13.5zM305 575q-45 0 -75 30t-30 75t30 75t75 30t75 -30t30 -75t-30 -75t-75 -30zM305 625q26 0 40.5 16t14.5 39t-14.5 39t-40.5 16t-40.5 -16t-14.5 -39t14.5 -39t40.5 -16z" />
    <glyph glyph-name="ae" unicode="&#xe6;" horiz-adv-x="955" 
d="M235 -10q-90 0 -137.5 43.5t-47.5 111.5q0 32 12.5 59.5t37 47.5t62 31.5t88.5 11.5h165v25q0 53 -32.5 84t-92.5 31q-43 0 -69.5 -13.5t-42.5 -29.5q-18 -18 -28 -42h-80q12 45 39 80q23 30 66.5 55t114.5 25q51 0 84.5 -15t53.5 -33q24 -21 37 -47h5q19 26 47 47
q24 18 60.5 33t87.5 15q52 0 98 -19.5t79.5 -53t53 -79.5t19.5 -98v-35h-420q4 -36 19 -65.5t38 -50.5t52 -32.5t61 -11.5q43 0 73 14t50 31q23 19 37 45h80q-17 -47 -50 -83q-28 -31 -74 -56.5t-116 -25.5q-55 0 -93.5 17.5t-63.5 39.5q-29 26 -48 58h-5q-18 -32 -48 -58
q-26 -22 -68 -39.5t-104 -17.5zM245 65q79 0 124.5 44t45.5 116h-175q-57 0 -83.5 -23t-26.5 -57q0 -38 29 -59t86 -21zM830 295q-4 28 -17.5 53.5t-35 44.5t-50 30.5t-62.5 11.5t-62.5 -11.5t-50.5 -30.5t-36 -44.5t-19 -53.5h333z" />
    <glyph glyph-name="ccedilla" unicode="&#xe7;" horiz-adv-x="565" 
d="M255 -240q-19 0 -33 3t-23 7q-11 4 -19 10v55q8 -6 19 -10q9 -4 23 -7t33 -3q26 0 38 12.5t12 27.5q0 19 -12.5 29.5t-42.5 10.5h-40l42 98q-45 6 -84 28t-67.5 55.5t-44.5 78t-16 95.5q0 56 19.5 104t53 82.5t79 54t98.5 19.5q37 0 67.5 -7.5t54.5 -20t42 -28.5t31 -32
q31 -39 45 -87h-80q-12 28 -33 50q-18 19 -49 34.5t-78 15.5q-36 0 -67 -13.5t-54 -38t-36 -58.5t-13 -75q0 -42 14 -76t37 -58t54 -37.5t65 -13.5q49 0 80.5 17t50.5 38q22 24 34 55h80q-14 -49 -43 -89q-25 -34 -70 -63t-116 -32l-21 -46q22 -4 40 -15q15 -10 27.5 -27.5
t12.5 -47.5q0 -19 -8 -36t-22.5 -30t-35 -21t-44.5 -8z" />
    <glyph glyph-name="egrave" unicode="&#xe8;" horiz-adv-x="590" 
d="M295 -10q-54 0 -101 19.5t-81 54t-53.5 82.5t-19.5 104t19.5 104t53.5 82.5t81 54t101 19.5t101 -19.5t81 -53.5t53.5 -81t19.5 -101v-30h-430q4 -35 19 -64.5t38 -50.5t53.5 -33t64.5 -12q45 0 76 14t51 31q23 19 38 45h80q-18 -47 -51 -83q-29 -31 -76 -56.5
t-118 -25.5zM465 295q-4 28 -17.5 53.5t-35.5 44.5t-51.5 30.5t-65.5 11.5t-65.5 -11.5t-52 -30.5t-36.5 -44.5t-19 -53.5h343zM205 696v1h100l85 -145h-70z" />
    <glyph glyph-name="eacute" unicode="&#xe9;" horiz-adv-x="590" 
d="M295 -10q-54 0 -101 19.5t-81 54t-53.5 82.5t-19.5 104t19.5 104t53.5 82.5t81 54t101 19.5t101 -19.5t81 -53.5t53.5 -81t19.5 -101v-30h-430q4 -35 19 -64.5t38 -50.5t53.5 -33t64.5 -12q45 0 76 14t51 31q23 19 38 45h80q-18 -47 -51 -83q-29 -31 -76 -56.5
t-118 -25.5zM465 295q-4 28 -17.5 53.5t-35.5 44.5t-51.5 30.5t-65.5 11.5t-65.5 -11.5t-52 -30.5t-36.5 -44.5t-19 -53.5h343zM288 697h100v-1l-115 -144h-70z" />
    <glyph glyph-name="ecircumflex" unicode="&#xea;" horiz-adv-x="590" 
d="M295 -10q-54 0 -101 19.5t-81 54t-53.5 82.5t-19.5 104t19.5 104t53.5 82.5t81 54t101 19.5t101 -19.5t81 -53.5t53.5 -81t19.5 -101v-30h-430q4 -35 19 -64.5t38 -50.5t53.5 -33t64.5 -12q45 0 76 14t51 31q23 19 38 45h80q-18 -47 -51 -83q-29 -31 -76 -56.5
t-118 -25.5zM465 295q-4 28 -17.5 53.5t-35.5 44.5t-51.5 30.5t-65.5 11.5t-65.5 -11.5t-52 -30.5t-36.5 -44.5t-19 -53.5h343zM141 551l110 144h90l110 -144v-1h-85l-65 90h-10l-65 -90h-85v1z" />
    <glyph glyph-name="edieresis" unicode="&#xeb;" horiz-adv-x="590" 
d="M295 -10q-54 0 -101 19.5t-81 54t-53.5 82.5t-19.5 104t19.5 104t53.5 82.5t81 54t101 19.5t101 -19.5t81 -53.5t53.5 -81t19.5 -101v-30h-430q4 -35 19 -64.5t38 -50.5t53.5 -33t64.5 -12q45 0 76 14t51 31q23 19 38 45h80q-18 -47 -51 -83q-29 -31 -76 -56.5
t-118 -25.5zM465 295q-4 28 -17.5 53.5t-35.5 44.5t-51.5 30.5t-65.5 11.5t-65.5 -11.5t-52 -30.5t-36.5 -44.5t-19 -53.5h343zM205 625q-23 0 -39 16t-16 39t16 39t39 16t39 -16t16 -39t-16 -39t-39 -16zM385 625q-23 0 -39 16t-16 39t16 39t39 16t39 -16t16 -39t-16 -39
t-39 -16z" />
    <glyph glyph-name="igrave" unicode="&#xec;" horiz-adv-x="220" 
d="M70 500h80v-500h-80v500zM-35 695v1h100l85 -145h-70z" />
    <glyph glyph-name="iacute" unicode="&#xed;" horiz-adv-x="220" 
d="M70 500h80v-500h-80v500zM155 695h100v-1l-115 -144h-70z" />
    <glyph glyph-name="icircumflex" unicode="&#xee;" horiz-adv-x="220" 
d="M70 500h80v-500h-80v500zM-45 611l110 144h90l110 -144v-1h-85l-65 90h-10l-65 -90h-85v1z" />
    <glyph glyph-name="idieresis" unicode="&#xef;" horiz-adv-x="220" 
d="M70 500h80v-500h-80v500zM20 625q-23 0 -39 16t-16 39t16 39t39 16t39 -16t16 -39t-16 -39t-39 -16zM200 625q-23 0 -39 16t-16 39t16 39t39 16t39 -16t16 -39t-16 -39t-39 -16z" />
    <glyph glyph-name="eth" unicode="&#xf0;" horiz-adv-x="560" 
d="M280 -10q-54 0 -99.5 17.5t-77.5 49t-50 74.5t-18 94t17.5 94t49 74.5t74.5 49t94 17.5q47 0 80 -14t54 -31q25 -20 40 -45h1q-8 42 -44 93t-96 111l-1 1l-124 -80v70l85 50l-90 85h95l50 -46l130 81v-70l-90 -55q34 -34 64 -69.5t52.5 -78t35.5 -93t13 -114.5
q0 -62 -18 -111t-50 -83.5t-77.5 -52.5t-99.5 -18zM280 65q36 0 66 12.5t52 34t34.5 50.5t12.5 63t-12.5 63t-34.5 50.5t-52 34t-66 12.5t-66 -12.5t-52 -34t-34.5 -50.5t-12.5 -63t12.5 -63t34.5 -50.5t52 -34t66 -12.5z" />
    <glyph glyph-name="ntilde" unicode="&#xf1;" horiz-adv-x="585" 
d="M70 500h80v-75h1q15 24 39 42q20 16 52.5 29.5t77.5 13.5t82 -14.5t63 -42.5t40.5 -67.5t14.5 -90.5v-295h-80v290q0 75 -37.5 110t-97.5 35q-34 0 -62.5 -11.5t-49 -33.5t-32 -52.5t-11.5 -67.5v-270h-80v500zM360 620q-26 0 -44 9.5t-32 20.5t-26.5 20.5t-27.5 9.5
q-30 0 -30 -30v-25h-65v28q0 39 26.5 65.5t68.5 26.5q26 0 44 -9.5t32 -20.5t26.5 -20.5t27.5 -9.5q30 0 30 30v25h65v-28q0 -39 -26.5 -65.5t-68.5 -26.5z" />
    <glyph glyph-name="ograve" unicode="&#xf2;" horiz-adv-x="600" 
d="M300 -10q-56 0 -104 19.5t-82.5 54t-54 82.5t-19.5 104t19.5 104t54 82.5t82.5 54t104 19.5t104 -19.5t82.5 -54t54 -82.5t19.5 -104t-19.5 -104t-54 -82.5t-82.5 -54t-104 -19.5zM300 65q39 0 72 13.5t57 38t37.5 58.5t13.5 75t-13.5 75t-37.5 58.5t-57 38t-72 13.5
t-72 -13.5t-57 -38t-37.5 -58.5t-13.5 -75t13.5 -75t37.5 -58.5t57 -38t72 -13.5zM207 694v1h100l85 -145h-70z" />
    <glyph glyph-name="oacute" unicode="&#xf3;" horiz-adv-x="600" 
d="M300 -10q-56 0 -104 19.5t-82.5 54t-54 82.5t-19.5 104t19.5 104t54 82.5t82.5 54t104 19.5t104 -19.5t82.5 -54t54 -82.5t19.5 -104t-19.5 -104t-54 -82.5t-82.5 -54t-104 -19.5zM300 65q39 0 72 13.5t57 38t37.5 58.5t13.5 75t-13.5 75t-37.5 58.5t-57 38t-72 13.5
t-72 -13.5t-57 -38t-37.5 -58.5t-13.5 -75t13.5 -75t37.5 -58.5t57 -38t72 -13.5zM294 696h100v-1l-115 -144h-70z" />
    <glyph glyph-name="ocircumflex" unicode="&#xf4;" horiz-adv-x="600" 
d="M300 -10q-56 0 -104 19.5t-82.5 54t-54 82.5t-19.5 104t19.5 104t54 82.5t82.5 54t104 19.5t104 -19.5t82.5 -54t54 -82.5t19.5 -104t-19.5 -104t-54 -82.5t-82.5 -54t-104 -19.5zM300 65q39 0 72 13.5t57 38t37.5 58.5t13.5 75t-13.5 75t-37.5 58.5t-57 38t-72 13.5
t-72 -13.5t-57 -38t-37.5 -58.5t-13.5 -75t13.5 -75t37.5 -58.5t57 -38t72 -13.5zM145 552l110 144h90l110 -144v-1h-85l-65 90h-10l-65 -90h-85v1z" />
    <glyph glyph-name="otilde" unicode="&#xf5;" horiz-adv-x="600" 
d="M300 -10q-56 0 -104 19.5t-82.5 54t-54 82.5t-19.5 104t19.5 104t54 82.5t82.5 54t104 19.5t104 -19.5t82.5 -54t54 -82.5t19.5 -104t-19.5 -104t-54 -82.5t-82.5 -54t-104 -19.5zM300 65q39 0 72 13.5t57 38t37.5 58.5t13.5 75t-13.5 75t-37.5 58.5t-57 38t-72 13.5
t-72 -13.5t-57 -38t-37.5 -58.5t-13.5 -75t13.5 -75t37.5 -58.5t57 -38t72 -13.5zM365 559q-26 0 -44 9.5t-32 20.5t-26.5 20.5t-27.5 9.5q-30 0 -30 -30v-25h-65v28q0 39 26.5 65.5t68.5 26.5q26 0 44 -9.5t32 -20.5t26.5 -20.5t27.5 -9.5q30 0 30 30v25h65v-28
q0 -39 -26.5 -65.5t-68.5 -26.5z" />
    <glyph glyph-name="odieresis" unicode="&#xf6;" horiz-adv-x="600" 
d="M300 -10q-56 0 -104 19.5t-82.5 54t-54 82.5t-19.5 104t19.5 104t54 82.5t82.5 54t104 19.5t104 -19.5t82.5 -54t54 -82.5t19.5 -104t-19.5 -104t-54 -82.5t-82.5 -54t-104 -19.5zM300 65q39 0 72 13.5t57 38t37.5 58.5t13.5 75t-13.5 75t-37.5 58.5t-57 38t-72 13.5
t-72 -13.5t-57 -38t-37.5 -58.5t-13.5 -75t13.5 -75t37.5 -58.5t57 -38t72 -13.5zM210 625q-23 0 -39 16t-16 39t16 39t39 16t39 -16t16 -39t-16 -39t-39 -16zM390 625q-23 0 -39 16t-16 39t16 39t39 16t39 -16t16 -39t-16 -39t-39 -16z" />
    <glyph glyph-name="divide" unicode="&#xf7;" horiz-adv-x="510" 
d="M255 40q-26 0 -43 17t-17 43t17 43t43 17t43 -17t17 -43t-17 -43t-43 -17zM60 310h390v-80h-390v80zM255 380q-26 0 -43 17t-17 43t17 43t43 17t43 -17t17 -43t-17 -43t-43 -17z" />
    <glyph glyph-name="oslash" unicode="&#xf8;" horiz-adv-x="600" 
d="M300 -10q-56 0 -102.5 19t-81.5 53l-86 -67v90l43 33q-16 29 -24.5 62t-8.5 70q0 56 19.5 104t54 82.5t82.5 54t104 19.5t102.5 -19t81.5 -53l86 67v-90l-43 -34q16 -29 24.5 -61.5t8.5 -69.5q0 -56 -19.5 -104t-54 -82.5t-82.5 -54t-104 -19.5zM300 65q39 0 72 13.5
t57 38t37.5 58.5t13.5 75q0 44 -16 82l-287 -222q50 -45 123 -45zM422 390q-48 45 -122 45q-39 0 -72 -13.5t-57 -38t-37.5 -58.5t-13.5 -75q0 -48 16 -83z" />
    <glyph glyph-name="ugrave" unicode="&#xf9;" horiz-adv-x="590" 
d="M270 -10q-45 0 -82 14.5t-63 42.5t-40.5 67.5t-14.5 90.5v295h80v-290q0 -75 37.5 -110t97.5 -35q34 0 62.5 11.5t49 33.5t32 52t11.5 68v270h80v-500h-80v75h-1q-16 -25 -40 -43q-20 -16 -52 -29t-77 -13zM208 694v1h100l85 -145h-70z" />
    <glyph glyph-name="uacute" unicode="&#xfa;" horiz-adv-x="590" 
d="M270 -10q-45 0 -82 14.5t-63 42.5t-40.5 67.5t-14.5 90.5v295h80v-290q0 -75 37.5 -110t97.5 -35q34 0 62.5 11.5t49 33.5t32 52t11.5 68v270h80v-500h-80v75h-1q-16 -25 -40 -43q-20 -16 -52 -29t-77 -13zM292 696h100v-1l-115 -144h-70z" />
    <glyph glyph-name="ucircumflex" unicode="&#xfb;" horiz-adv-x="590" 
d="M270 -10q-45 0 -82 14.5t-63 42.5t-40.5 67.5t-14.5 90.5v295h80v-290q0 -75 37.5 -110t97.5 -35q34 0 62.5 11.5t49 33.5t32 52t11.5 68v270h80v-500h-80v75h-1q-16 -25 -40 -43q-20 -16 -52 -29t-77 -13zM140 611l110 144h90l110 -144v-1h-85l-65 90h-10l-65 -90h-85v1
z" />
    <glyph glyph-name="udieresis" unicode="&#xfc;" horiz-adv-x="590" 
d="M270 -10q-45 0 -82 14.5t-63 42.5t-40.5 67.5t-14.5 90.5v295h80v-290q0 -75 37.5 -110t97.5 -35q34 0 62.5 11.5t49 33.5t32 52t11.5 68v270h80v-500h-80v75h-1q-16 -25 -40 -43q-20 -16 -52 -29t-77 -13zM205 625q-23 0 -39 16t-16 39t16 39t39 16t39 -16t16 -39
t-16 -39t-39 -16zM385 625q-23 0 -39 16t-16 39t16 39t39 16t39 -16t16 -39t-16 -39t-39 -16z" />
    <glyph glyph-name="yacute" unicode="&#xfd;" horiz-adv-x="505" 
d="M270 0h-115l-135 500h85l110 -425h75l130 425h85l-210 -690h-85zM310 755h100v-1l-115 -144h-70z" />
    <glyph glyph-name="thorn" unicode="&#xfe;" 
d="M70 700h80v-280h1l9.5 14.5t31 31t55.5 30.5t83 14t92.5 -19.5t76.5 -54t52 -82.5t19 -104t-19 -104t-52 -82.5t-76.5 -54t-92.5 -19.5t-83 14t-55.5 30.5t-31 31l-9.5 14.5h-1v-270h-80v890zM320 65q36 0 67 13.5t54 38t36 58.5t13 75t-13 75t-36 58.5t-54 38t-67 13.5
t-67 -13.5t-54 -38t-36 -58.5t-13 -75t13 -75t36 -58.5t54 -38t67 -13.5z" />
    <glyph glyph-name="ydieresis" unicode="&#xff;" horiz-adv-x="505" 
d="M270 0h-115l-135 500h85l110 -425h75l130 425h85l-210 -690h-85zM175 625q-23 0 -39 16t-16 39t16 39t39 16t39 -16t16 -39t-16 -39t-39 -16zM355 625q-23 0 -39 16t-16 39t16 39t39 16t39 -16t16 -39t-16 -39t-39 -16z" />
    <glyph glyph-name="Amacron" unicode="&#x100;" horiz-adv-x="675" 
d="M200 700h275l180 -700h-90l-55 205h-345l-55 -205h-90zM490 290l-85 325h-135l-85 -325h305zM205 900h270v-70h-270v70z" />
    <glyph glyph-name="amacron" unicode="&#x101;" 
d="M280 -10q-49 0 -92.5 19.5t-76.5 54t-52 82.5t-19 104t19 104t52 82.5t76.5 54t92.5 19.5t83 -14t55.5 -31t31 -31.5l9.5 -14.5h1v81h80v-500h-80v80h-1l-9.5 -14.5t-31 -31t-55.5 -30.5t-83 -14zM290 65q36 0 67 13.5t54 38t36 58.5t13 75t-13 75t-36 58.5t-54 38
t-67 13.5t-67 -13.5t-54 -38t-36 -58.5t-13 -75t13 -75t36 -58.5t54 -38t67 -13.5zM170 720h270v-70h-270v70z" />
    <glyph glyph-name="Abreve" unicode="&#x102;" horiz-adv-x="675" 
d="M200 700h275l180 -700h-90l-55 205h-345l-55 -205h-90zM490 290l-85 325h-135l-85 -325h305zM337 751q-68 0 -106.5 36t-38.5 89h70q0 -30 18.5 -47.5t56.5 -17.5t56.5 17.5t18.5 47.5h70q0 -53 -38.5 -89t-106.5 -36z" />
    <glyph glyph-name="abreve" unicode="&#x103;" 
d="M280 -10q-49 0 -92.5 19.5t-76.5 54t-52 82.5t-19 104t19 104t52 82.5t76.5 54t92.5 19.5t83 -14t55.5 -31t31 -31.5l9.5 -14.5h1v81h80v-500h-80v80h-1l-9.5 -14.5t-31 -31t-55.5 -30.5t-83 -14zM290 65q36 0 67 13.5t54 38t36 58.5t13 75t-13 75t-36 58.5t-54 38
t-67 13.5t-67 -13.5t-54 -38t-36 -58.5t-13 -75t13 -75t36 -58.5t54 -38t67 -13.5zM290 552q-68 0 -106.5 36t-38.5 89h70q0 -30 18.5 -47.5t56.5 -17.5t56.5 17.5t18.5 47.5h70q0 -53 -38.5 -89t-106.5 -36z" />
    <glyph glyph-name="Aogonek" unicode="&#x104;" horiz-adv-x="675" 
d="M580 -230q-49 0 -77 26.5t-28 68.5q0 32 17.5 57t39.5 42q26 20 58 36h-25l-55 205h-345l-55 -205h-90l180 700h275l180 -700q-34 -17 -60 -37q-23 -17 -41.5 -41t-18.5 -52q0 -19 13.5 -32t36.5 -13q13 0 25.5 3t22.5 7q11 4 22 10v-55q-10 -6 -21 -10q-10 -4 -23.5 -7
t-30.5 -3zM490 290l-85 325h-135l-85 -325h305z" />
    <glyph glyph-name="aogonek" unicode="&#x105;" 
d="M465 -230q-49 0 -77 26.5t-28 68.5q0 32 17.5 57t39.5 42q26 20 58 36h-15v80h-1l-9.5 -14.5t-31 -31t-55.5 -30.5t-83 -14t-92.5 19.5t-76.5 54t-52 82.5t-19 104t19 104t52 82.5t76.5 54t92.5 19.5t83 -14t55.5 -30.5t31 -31l9.5 -14.5h1v80h80v-500q-34 -17 -60 -37
q-23 -17 -41.5 -41t-18.5 -52q0 -19 13.5 -32t36.5 -13q13 0 25.5 3t22.5 7q11 4 22 10v-55q-10 -6 -21 -10q-10 -4 -23.5 -7t-30.5 -3zM290 65q36 0 67 13.5t54 38t36 58.5t13 75t-13 75t-36 58.5t-54 38t-67 13.5t-67 -13.5t-54 -38t-36 -58.5t-13 -75t13 -75t36 -58.5
t54 -38t67 -13.5z" />
    <glyph glyph-name="Cacute" unicode="&#x106;" horiz-adv-x="800" 
d="M410 -20q-79 0 -146 27.5t-115.5 77t-76 117t-27.5 148.5t27.5 148.5t76 117t115.5 77t146 27.5q53 0 96 -11t77.5 -29t60.5 -41t45 -47q45 -56 66 -127h-90q-19 47 -53 85q-15 16 -34 31t-44 27t-56 19.5t-68 7.5q-60 0 -110.5 -20.5t-87 -58t-57 -90t-20.5 -116.5
t20.5 -116.5t57 -90t87 -58t110.5 -20.5q38 0 70 8t57.5 21t45 29.5t34.5 33.5q34 40 53 93h90q-24 -76 -70 -135q-20 -26 -46.5 -50t-61 -43t-77.5 -30.5t-95 -11.5zM460 935h100v-1l-115 -144h-70z" />
    <glyph glyph-name="cacute" unicode="&#x107;" horiz-adv-x="565" 
d="M290 -10q-53 0 -98.5 19.5t-79 54t-53 82.5t-19.5 104t19.5 104t53 82.5t79 54t98.5 19.5q37 0 67.5 -7.5t54.5 -20t42 -28.5t31 -32q31 -39 45 -87h-80q-12 28 -33 50q-18 19 -49 34.5t-78 15.5q-36 0 -67 -13.5t-54 -38t-36 -58.5t-13 -75q0 -42 14 -76t37 -58
t54 -37.5t65 -13.5q49 0 80.5 17t50.5 38q22 24 34 55h80q-14 -53 -46 -93q-14 -17 -32 -33.5t-42.5 -29.5t-55.5 -21t-69 -8zM340 755h100v-1l-115 -144h-70z" />
    <glyph glyph-name="Ccircumflex" unicode="&#x108;" horiz-adv-x="800" 
d="M410 -20q-79 0 -146 27.5t-115.5 77t-76 117t-27.5 148.5t27.5 148.5t76 117t115.5 77t146 27.5q53 0 96 -11t77.5 -29t60.5 -41t45 -47q45 -56 66 -127h-90q-19 47 -53 85q-15 16 -34 31t-44 27t-56 19.5t-68 7.5q-60 0 -110.5 -20.5t-87 -58t-57 -90t-20.5 -116.5
t20.5 -116.5t57 -90t87 -58t110.5 -20.5q38 0 70 8t57.5 21t45 29.5t34.5 33.5q34 40 53 93h90q-24 -76 -70 -135q-20 -26 -46.5 -50t-61 -43t-77.5 -30.5t-95 -11.5zM255 791l110 144h90l110 -144v-1h-85l-65 90h-10l-65 -90h-85v1z" />
    <glyph glyph-name="ccircumflex" unicode="&#x109;" horiz-adv-x="565" 
d="M290 -10q-53 0 -98.5 19.5t-79 54t-53 82.5t-19.5 104t19.5 104t53 82.5t79 54t98.5 19.5q37 0 67.5 -7.5t54.5 -20t42 -28.5t31 -32q31 -39 45 -87h-80q-12 28 -33 50q-18 19 -49 34.5t-78 15.5q-36 0 -67 -13.5t-54 -38t-36 -58.5t-13 -75q0 -42 14 -76t37 -58
t54 -37.5t65 -13.5q49 0 80.5 17t50.5 38q22 24 34 55h80q-14 -53 -46 -93q-14 -17 -32 -33.5t-42.5 -29.5t-55.5 -21t-69 -8zM135 611l110 144h90l110 -144v-1h-85l-65 90h-10l-65 -90h-85v1z" />
    <glyph glyph-name="Cdotaccent" unicode="&#x10a;" horiz-adv-x="800" 
d="M410 -20q-79 0 -146 27.5t-115.5 77t-76 117t-27.5 148.5t27.5 148.5t76 117t115.5 77t146 27.5q53 0 96 -11t77.5 -29t60.5 -41t45 -47q45 -56 66 -127h-90q-19 47 -53 85q-15 16 -34 31t-44 27t-56 19.5t-68 7.5q-60 0 -110.5 -20.5t-87 -58t-57 -90t-20.5 -116.5
t20.5 -116.5t57 -90t87 -58t110.5 -20.5q38 0 70 8t57.5 21t45 29.5t34.5 33.5q34 40 53 93h90q-24 -76 -70 -135q-20 -26 -46.5 -50t-61 -43t-77.5 -30.5t-95 -11.5zM410 805q-23 0 -39 16t-16 39t16 39t39 16t39 -16t16 -39t-16 -39t-39 -16z" />
    <glyph glyph-name="cdotaccent" unicode="&#x10b;" horiz-adv-x="565" 
d="M290 -10q-53 0 -98.5 19.5t-79 54t-53 82.5t-19.5 104t19.5 104t53 82.5t79 54t98.5 19.5q37 0 67.5 -7.5t54.5 -20t42 -28.5t31 -32q31 -39 45 -87h-80q-12 28 -33 50q-18 19 -49 34.5t-78 15.5q-36 0 -67 -13.5t-54 -38t-36 -58.5t-13 -75q0 -42 14 -76t37 -58
t54 -37.5t65 -13.5q49 0 80.5 17t50.5 38q22 24 34 55h80q-14 -53 -46 -93q-14 -17 -32 -33.5t-42.5 -29.5t-55.5 -21t-69 -8zM295 625q-23 0 -39 16t-16 39t16 39t39 16t39 -16t16 -39t-16 -39t-39 -16z" />
    <glyph glyph-name="Ccaron" unicode="&#x10c;" horiz-adv-x="800" 
d="M410 -20q-79 0 -146 27.5t-115.5 77t-76 117t-27.5 148.5t27.5 148.5t76 117t115.5 77t146 27.5q53 0 96 -11t77.5 -29t60.5 -41t45 -47q45 -56 66 -127h-90q-19 47 -53 85q-15 16 -34 31t-44 27t-56 19.5t-68 7.5q-60 0 -110.5 -20.5t-87 -58t-57 -90t-20.5 -116.5
t20.5 -116.5t57 -90t87 -58t110.5 -20.5q38 0 70 8t57.5 21t45 29.5t34.5 33.5q34 40 53 93h90q-24 -76 -70 -135q-20 -26 -46.5 -50t-61 -43t-77.5 -30.5t-95 -11.5zM255 934v1h85l65 -90h10l65 90h85v-1l-110 -144h-90z" />
    <glyph glyph-name="ccaron" unicode="&#x10d;" horiz-adv-x="565" 
d="M290 -10q-53 0 -98.5 19.5t-79 54t-53 82.5t-19.5 104t19.5 104t53 82.5t79 54t98.5 19.5q37 0 67.5 -7.5t54.5 -20t42 -28.5t31 -32q31 -39 45 -87h-80q-12 28 -33 50q-18 19 -49 34.5t-78 15.5q-36 0 -67 -13.5t-54 -38t-36 -58.5t-13 -75q0 -42 14 -76t37 -58
t54 -37.5t65 -13.5q49 0 80.5 17t50.5 38q22 24 34 55h80q-14 -53 -46 -93q-14 -17 -32 -33.5t-42.5 -29.5t-55.5 -21t-69 -8zM135 754v1h85l65 -90h10l65 90h85v-1l-110 -144h-90z" />
    <glyph glyph-name="Dcaron" unicode="&#x10e;" horiz-adv-x="720" 
d="M80 700h230q79 0 146 -27t116 -74t76 -111t27 -138t-27 -138t-76 -111t-116 -74t-146 -27h-230v700zM310 85q62 0 112.5 19.5t86.5 55t56 84t20 106.5t-20 106.5t-56 84t-86.5 55t-112.5 19.5h-140v-530h140zM200 934v1h85l65 -90h10l65 90h85v-1l-110 -144h-90z" />
    <glyph glyph-name="dcaron" unicode="&#x10f;" horiz-adv-x="665" 
d="M280 -10q-49 0 -92.5 19.5t-76.5 54t-52 82.5t-19 104t19 104t52 82.5t76.5 54t92.5 19.5t83 -14t55.5 -30.5t31 -31l9.5 -14.5h1v280h80v-700h-80v80h-1l-9.5 -14.5t-31 -31t-55.5 -30.5t-83 -14zM290 65q36 0 67 13.5t54 38t36 58.5t13 75t-13 75t-36 58.5t-54 38
t-67 13.5t-67 -13.5t-54 -38t-36 -58.5t-13 -75t13 -75t36 -58.5t54 -38t67 -13.5zM590 540q30 4 45 17.5t15 32.5q0 4 -1 6.5t-2 4.5l-2 4q-2 -2 -4 -3q-6 -2 -11 -2q-19 0 -32 13.5t-13 36.5q0 19 14.5 34.5t40.5 15.5t43 -19t17 -61q0 -57 -28.5 -86.5t-81.5 -33.5v40z
" />
    <glyph glyph-name="Dcroat" unicode="&#x110;" horiz-adv-x="730" 
d="M90 305h-70v90h70v305h230q79 0 146 -27t116 -74t76 -111t27 -138t-27 -138t-76 -111t-116 -74t-146 -27h-230v305zM320 85q62 0 112.5 19.5t86.5 55t56 84t20 106.5t-20 106.5t-56 84t-86.5 55t-112.5 19.5h-140v-220h180v-90h-180v-220h140z" />
    <glyph glyph-name="dcroat" unicode="&#x111;" horiz-adv-x="595" 
d="M275 -10q-49 0 -91.5 18.5t-74.5 51.5t-50.5 77.5t-18.5 97.5q0 52 18.5 97t50.5 78t74.5 51.5t91.5 18.5q45 0 77 -12.5t52 -27.5q24 -18 40 -40h1v160h-130v75h130v65h80v-65h65v-75h-65v-560h-80v70h-1q-14 -22 -38 -40q-20 -15 -52 -27.5t-79 -12.5zM285 65
q72 0 116 45.5t44 124.5q0 37 -12.5 68.5t-34 54t-50.5 35t-63 12.5q-36 0 -66 -12.5t-52 -35t-34.5 -54t-12.5 -68.5q0 -38 12.5 -69t34.5 -53.5t52 -35t66 -12.5z" />
    <glyph glyph-name="Emacron" unicode="&#x112;" 
d="M80 700h490v-85h-400v-220h325v-85h-325v-225h400v-85h-490v700zM190 900h270v-70h-270v70z" />
    <glyph glyph-name="emacron" unicode="&#x113;" horiz-adv-x="590" 
d="M295 -10q-54 0 -101 19.5t-81 54t-53.5 82.5t-19.5 104t19.5 104t53.5 82.5t81 54t101 19.5t101 -19.5t81 -53.5t53.5 -81t19.5 -101v-30h-430q4 -35 19 -64.5t38 -50.5t53.5 -33t64.5 -12q45 0 76 14t51 31q23 19 38 45h80q-18 -47 -51 -83q-29 -31 -76 -56.5
t-118 -25.5zM465 295q-4 28 -17.5 53.5t-35.5 44.5t-51.5 30.5t-65.5 11.5t-65.5 -11.5t-52 -30.5t-36.5 -44.5t-19 -53.5h343zM160 720h270v-70h-270v70z" />
    <glyph glyph-name="Ebreve" unicode="&#x114;" 
d="M80 700h490v-85h-400v-220h325v-85h-325v-225h400v-85h-490v700zM325 800q-68 0 -106.5 36t-38.5 89h70q0 -30 18.5 -47.5t56.5 -17.5t56.5 17.5t18.5 47.5h70q0 -53 -38.5 -89t-106.5 -36z" />
    <glyph glyph-name="ebreve" unicode="&#x115;" horiz-adv-x="590" 
d="M295 -10q-54 0 -101 19.5t-81 54t-53.5 82.5t-19.5 104t19.5 104t53.5 82.5t81 54t101 19.5t101 -19.5t81 -53.5t53.5 -81t19.5 -101v-30h-430q4 -35 19 -64.5t38 -50.5t53.5 -33t64.5 -12q45 0 76 14t51 31q23 19 38 45h80q-18 -47 -51 -83q-29 -31 -76 -56.5
t-118 -25.5zM465 295q-4 28 -17.5 53.5t-35.5 44.5t-51.5 30.5t-65.5 11.5t-65.5 -11.5t-52 -30.5t-36.5 -44.5t-19 -53.5h343zM295 620q-68 0 -106.5 36t-38.5 89h70q0 -30 18.5 -47.5t56.5 -17.5t56.5 17.5t18.5 47.5h70q0 -53 -38.5 -89t-106.5 -36z" />
    <glyph glyph-name="Edotaccent" unicode="&#x116;" 
d="M80 700h490v-85h-400v-220h325v-85h-325v-225h400v-85h-490v700zM325 805q-23 0 -39 16t-16 39t16 39t39 16t39 -16t16 -39t-16 -39t-39 -16z" />
    <glyph glyph-name="edotaccent" unicode="&#x117;" horiz-adv-x="590" 
d="M295 -10q-54 0 -101 19.5t-81 54t-53.5 82.5t-19.5 104t19.5 104t53.5 82.5t81 54t101 19.5t101 -19.5t81 -53.5t53.5 -81t19.5 -101v-30h-430q4 -35 19 -64.5t38 -50.5t53.5 -33t64.5 -12q45 0 76 14t51 31q23 19 38 45h80q-18 -47 -51 -83q-29 -31 -76 -56.5
t-118 -25.5zM465 295q-4 28 -17.5 53.5t-35.5 44.5t-51.5 30.5t-65.5 11.5t-65.5 -11.5t-52 -30.5t-36.5 -44.5t-19 -53.5h343zM295 625q-23 0 -39 16t-16 39t16 39t39 16t39 -16t16 -39t-16 -39t-39 -16z" />
    <glyph glyph-name="Eogonek" unicode="&#x118;" 
d="M495 -230q-49 0 -77 26.5t-28 68.5q0 32 17.5 57t39.5 42q26 20 58 36h-425v700h490v-85h-400v-220h325v-85h-325v-225h400v-85q-34 -17 -60 -37q-23 -17 -41.5 -41t-18.5 -52q0 -19 13.5 -32t36.5 -13q13 0 25.5 3t22.5 7q11 4 22 10v-55q-10 -6 -21 -10
q-10 -4 -23.5 -7t-30.5 -3z" />
    <glyph glyph-name="eogonek" unicode="&#x119;" horiz-adv-x="590" 
d="M330 -230q-49 0 -77 26.5t-28 68.5q0 28 14.5 51t32.5 40q21 19 48 34h-25q-54 0 -101 19.5t-81 54t-53.5 82.5t-19.5 104t19.5 104t53.5 82.5t81 54t101 19.5t101 -19.5t81 -53.5t53.5 -81t19.5 -101v-30h-430q4 -35 19 -64.5t38 -50.5t53.5 -33t64.5 -12q45 0 76 14
t51 31q23 19 38 45h80q-9 -26 -26 -51q-14 -21 -37 -44t-57 -40q-38 -22 -68 -47q-26 -21 -46.5 -48t-20.5 -55q0 -19 13.5 -32t36.5 -13q13 0 25.5 3t22.5 7q11 4 22 10v-55q-10 -6 -21 -10q-10 -4 -23.5 -7t-30.5 -3zM465 295q-4 28 -17.5 53.5t-35.5 44.5t-51.5 30.5
t-65.5 11.5t-65.5 -11.5t-52 -30.5t-36.5 -44.5t-19 -53.5h343z" />
    <glyph glyph-name="Ecaron" unicode="&#x11a;" 
d="M80 700h490v-85h-400v-220h325v-85h-325v-225h400v-85h-490v700zM170 934v1h85l65 -90h10l65 90h85v-1l-110 -144h-90z" />
    <glyph glyph-name="ecaron" unicode="&#x11b;" horiz-adv-x="590" 
d="M295 -10q-54 0 -101 19.5t-81 54t-53.5 82.5t-19.5 104t19.5 104t53.5 82.5t81 54t101 19.5t101 -19.5t81 -53.5t53.5 -81t19.5 -101v-30h-430q4 -35 19 -64.5t38 -50.5t53.5 -33t64.5 -12q45 0 76 14t51 31q23 19 38 45h80q-18 -47 -51 -83q-29 -31 -76 -56.5
t-118 -25.5zM465 295q-4 28 -17.5 53.5t-35.5 44.5t-51.5 30.5t-65.5 11.5t-65.5 -11.5t-52 -30.5t-36.5 -44.5t-19 -53.5h343zM140 754v1h85l65 -90h10l65 90h85v-1l-110 -144h-90z" />
    <glyph glyph-name="Gcircumflex" unicode="&#x11c;" horiz-adv-x="860" 
d="M410 -20q-79 0 -146 27.5t-115.5 77t-76 117t-27.5 148.5t27.5 148.5t76 117t115.5 77t146 27.5q52 0 95 -11t77 -28.5t60 -40t45 -45.5q45 -55 68 -125h-90q-20 46 -54 82q-15 15 -34.5 30t-44.5 27t-55.5 19t-66.5 7q-60 0 -110.5 -20.5t-87 -58t-57 -90t-20.5 -116.5
t20.5 -116.5t57 -90t87 -58t110.5 -20.5q54 0 99.5 17.5t80 47t56 68.5t29.5 82h-135v85h310v-85h-85q-15 -66 -45.5 -121t-75.5 -94.5t-104 -62t-130 -22.5zM255 791l110 144h90l110 -144v-1h-85l-65 90h-10l-65 -90h-85v1z" />
    <glyph glyph-name="gcircumflex" unicode="&#x11d;" 
d="M110 -115h350v195h-1l-9.5 -14.5t-31 -31t-55.5 -30.5t-83 -14t-92.5 19.5t-76.5 54t-52 82.5t-19 104t19 104t52 82.5t76.5 54t92.5 19.5t83 -14t55.5 -30.5t31 -31l9.5 -14.5h1v80h80v-690h-430v75zM290 65q36 0 67 13.5t54 38t36 58.5t13 75t-13 75t-36 58.5t-54 38
t-67 13.5t-67 -13.5t-54 -38t-36 -58.5t-13 -75t13 -75t36 -58.5t54 -38t67 -13.5zM150 611l110 144h90l110 -144v-1h-85l-65 90h-10l-65 -90h-85v1z" />
    <glyph glyph-name="Gbreve" unicode="&#x11e;" horiz-adv-x="860" 
d="M410 -20q-79 0 -146 27.5t-115.5 77t-76 117t-27.5 148.5t27.5 148.5t76 117t115.5 77t146 27.5q52 0 95 -11t77 -28.5t60 -40t45 -45.5q45 -55 68 -125h-90q-20 46 -54 82q-15 15 -34.5 30t-44.5 27t-55.5 19t-66.5 7q-60 0 -110.5 -20.5t-87 -58t-57 -90t-20.5 -116.5
t20.5 -116.5t57 -90t87 -58t110.5 -20.5q54 0 99.5 17.5t80 47t56 68.5t29.5 82h-135v85h310v-85h-85q-15 -66 -45.5 -121t-75.5 -94.5t-104 -62t-130 -22.5zM410 800q-68 0 -106.5 36t-38.5 89h70q0 -30 18.5 -47.5t56.5 -17.5t56.5 17.5t18.5 47.5h70q0 -53 -38.5 -89
t-106.5 -36z" />
    <glyph glyph-name="gbreve" unicode="&#x11f;" 
d="M110 -115h350v195h-1l-9.5 -14.5t-31 -31t-55.5 -30.5t-83 -14t-92.5 19.5t-76.5 54t-52 82.5t-19 104t19 104t52 82.5t76.5 54t92.5 19.5t83 -14t55.5 -30.5t31 -31l9.5 -14.5h1v80h80v-690h-430v75zM290 65q36 0 67 13.5t54 38t36 58.5t13 75t-13 75t-36 58.5t-54 38
t-67 13.5t-67 -13.5t-54 -38t-36 -58.5t-13 -75t13 -75t36 -58.5t54 -38t67 -13.5zM305 620q-68 0 -106.5 36t-38.5 89h70q0 -30 18.5 -47.5t56.5 -17.5t56.5 17.5t18.5 47.5h70q0 -53 -38.5 -89t-106.5 -36z" />
    <glyph glyph-name="Gdotaccent" unicode="&#x120;" horiz-adv-x="860" 
d="M410 -20q-79 0 -146 27.5t-115.5 77t-76 117t-27.5 148.5t27.5 148.5t76 117t115.5 77t146 27.5q52 0 95 -11t77 -28.5t60 -40t45 -45.5q45 -55 68 -125h-90q-20 46 -54 82q-15 15 -34.5 30t-44.5 27t-55.5 19t-66.5 7q-60 0 -110.5 -20.5t-87 -58t-57 -90t-20.5 -116.5
t20.5 -116.5t57 -90t87 -58t110.5 -20.5q54 0 99.5 17.5t80 47t56 68.5t29.5 82h-135v85h310v-85h-85q-15 -66 -45.5 -121t-75.5 -94.5t-104 -62t-130 -22.5zM410 805q-23 0 -39 16t-16 39t16 39t39 16t39 -16t16 -39t-16 -39t-39 -16z" />
    <glyph glyph-name="gdotaccent" unicode="&#x121;" 
d="M110 -115h350v195h-1l-9.5 -14.5t-31 -31t-55.5 -30.5t-83 -14t-92.5 19.5t-76.5 54t-52 82.5t-19 104t19 104t52 82.5t76.5 54t92.5 19.5t83 -14t55.5 -30.5t31 -31l9.5 -14.5h1v80h80v-690h-430v75zM290 65q36 0 67 13.5t54 38t36 58.5t13 75t-13 75t-36 58.5t-54 38
t-67 13.5t-67 -13.5t-54 -38t-36 -58.5t-13 -75t13 -75t36 -58.5t54 -38t67 -13.5zM305 625q-23 0 -39 16t-16 39t16 39t39 16t39 -16t16 -39t-16 -39t-39 -16z" />
    <glyph glyph-name="uni0122" unicode="&#x122;" horiz-adv-x="860" 
d="M410 -20q-79 0 -146 27.5t-115.5 77t-76 117t-27.5 148.5t27.5 148.5t76 117t115.5 77t146 27.5q52 0 95 -11t77 -28.5t60 -40t45 -45.5q45 -55 68 -125h-90q-20 46 -54 82q-15 15 -34.5 30t-44.5 27t-55.5 19t-66.5 7q-60 0 -110.5 -20.5t-87 -58t-57 -90t-20.5 -116.5
t20.5 -116.5t57 -90t87 -58t110.5 -20.5q54 0 99.5 17.5t80 47t56 68.5t29.5 82h-135v85h310v-85h-85q-15 -66 -45.5 -121t-75.5 -94.5t-104 -62t-130 -22.5zM360 -260q30 4 45 17.5t15 32.5q0 4 -1 6.5t-2 4.5l-2 4q-2 -2 -4 -3q-6 -2 -11 -2q-19 0 -32 13.5t-13 36.5
q0 19 14.5 34.5t40.5 15.5t43 -19t17 -61q0 -57 -28.5 -86.5t-81.5 -33.5v40z" />
    <glyph glyph-name="uni0123" unicode="&#x123;" 
d="M305 590q-26 0 -43 19t-17 61q0 57 28.5 86.5t81.5 33.5v-40q-30 -4 -45 -17.5t-15 -32.5q0 -7 2 -11q1 -3 3 -4q1 1 4 2q2 1 4.5 2t6.5 1q19 0 32 -13.5t13 -36.5q0 -19 -14.5 -34.5t-40.5 -15.5zM110 -115h350v195h-1l-9.5 -14.5t-31 -31t-55.5 -30.5t-83 -14
t-92.5 19.5t-76.5 54t-52 82.5t-19 104t19 104t52 82.5t76.5 54t92.5 19.5t83 -14t55.5 -30.5t31 -31l9.5 -14.5h1v80h80v-690h-430v75zM290 65q36 0 67 13.5t54 38t36 58.5t13 75t-13 75t-36 58.5t-54 38t-67 13.5t-67 -13.5t-54 -38t-36 -58.5t-13 -75t13 -75t36 -58.5
t54 -38t67 -13.5z" />
    <glyph glyph-name="Hcircumflex" unicode="&#x124;" horiz-adv-x="715" 
d="M80 700h90v-305h375v305h90v-700h-90v310h-375v-310h-90v700zM205 791l110 144h90l110 -144v-1h-85l-65 90h-10l-65 -90h-85v1z" />
    <glyph glyph-name="hcircumflex" unicode="&#x125;" horiz-adv-x="580" 
d="M70 700h80v-275h1q15 24 39 42q20 16 52.5 29.5t77.5 13.5t82 -14.5t63 -42.5t40.5 -67.5t14.5 -90.5v-295h-80v290q0 75 -37.5 110t-97.5 35q-34 0 -62.5 -11.5t-49 -33.5t-32 -52.5t-11.5 -67.5v-270h-80v700zM140 791l110 144h90l110 -144v-1h-85l-65 90h-10l-65 -90
h-85v1z" />
    <glyph glyph-name="Hbar" unicode="&#x126;" horiz-adv-x="735" 
d="M90 530h-75v70h75v100h90v-100h375v100h90v-100h75v-70h-75v-530h-90v310h-375v-310h-90v530zM555 395v135h-375v-135h375z" />
    <glyph glyph-name="hbar" unicode="&#x127;" horiz-adv-x="600" 
d="M90 550h-90v70h90v80h80v-80h130v-70h-130v-175h1q15 24 39 42q20 16 52.5 29.5t77.5 13.5t82 -14.5t63 -42.5t40.5 -67.5t14.5 -90.5v-245h-80v240q0 75 -37.5 110t-97.5 35q-34 0 -62.5 -11.5t-49 -33.5t-32 -52.5t-11.5 -67.5v-220h-80v550z" />
    <glyph glyph-name="Itilde" unicode="&#x128;" horiz-adv-x="250" 
d="M80 700h90v-700h-90v700zM190 750q-26 0 -44 9.5t-32 20.5t-26.5 20.5t-27.5 9.5q-30 0 -30 -30v-25h-65v28q0 39 26.5 65.5t68.5 26.5q26 0 44 -9.5t32 -20.5t26.5 -20.5t27.5 -9.5q30 0 30 30v25h65v-28q0 -39 -26.5 -65.5t-68.5 -26.5z" />
    <glyph glyph-name="itilde" unicode="&#x129;" horiz-adv-x="220" 
d="M70 500h80v-500h-80v500zM175 552q-26 0 -44 9.5t-32 20.5t-26.5 20.5t-27.5 9.5q-30 0 -30 -30v-25h-65v28q0 39 26.5 65.5t68.5 26.5q26 0 44 -9.5t32 -20.5t26.5 -20.5t27.5 -9.5q30 0 30 30v25h65v-28q0 -39 -26.5 -65.5t-68.5 -26.5z" />
    <glyph glyph-name="Imacron" unicode="&#x12a;" horiz-adv-x="250" 
d="M80 700h90v-700h-90v700zM-10 900h270v-70h-270v70z" />
    <glyph glyph-name="imacron" unicode="&#x12b;" horiz-adv-x="220" 
d="M70 500h80v-500h-80v500zM-25 720h270v-70h-270v70z" />
    <glyph glyph-name="Ibreve" unicode="&#x12c;" horiz-adv-x="250" 
d="M80 700h90v-700h-90v700zM125 800q-68 0 -106.5 36t-38.5 89h70q0 -30 18.5 -47.5t56.5 -17.5t56.5 17.5t18.5 47.5h70q0 -53 -38.5 -89t-106.5 -36z" />
    <glyph glyph-name="ibreve" unicode="&#x12d;" horiz-adv-x="220" 
d="M70 500h80v-500h-80v500zM110 620q-68 0 -106.5 36t-38.5 89h70q0 -30 18.5 -47.5t56.5 -17.5t56.5 17.5t18.5 47.5h70q0 -53 -38.5 -89t-106.5 -36z" />
    <glyph glyph-name="Iogonek" unicode="&#x12e;" horiz-adv-x="250" 
d="M95 -230q-49 0 -77 26.5t-28 68.5q0 32 17.5 57t39.5 42q26 20 58 36h-25v700h90v-700q-34 -17 -60 -37q-23 -17 -41.5 -41t-18.5 -52q0 -19 13.5 -32t36.5 -13q13 0 25.5 3t22.5 7q11 4 22 10v-55q-10 -6 -21 -10q-10 -4 -23.5 -7t-30.5 -3z" />
    <glyph glyph-name="iogonek" unicode="&#x12f;" horiz-adv-x="220" 
d="M75 -230q-49 0 -77 26.5t-28 68.5q0 32 17.5 57t39.5 42q26 20 58 36h-15v500h80v-500q-34 -17 -60 -37q-23 -17 -41.5 -41t-18.5 -52q0 -19 13.5 -32t36.5 -13q13 0 25.5 3t22.5 7q11 4 22 10v-55q-10 -6 -21 -10q-10 -4 -23.5 -7t-30.5 -3zM110 595q-23 0 -39 16
t-16 39t16 39t39 16t39 -16t16 -39t-16 -39t-39 -16z" />
    <glyph glyph-name="Idotaccent" unicode="&#x130;" horiz-adv-x="250" 
d="M80 700h90v-700h-90v700zM125 805q-23 0 -39 16t-16 39t16 39t39 16t39 -16t16 -39t-16 -39t-39 -16z" />
    <glyph glyph-name="dotlessi" unicode="&#x131;" horiz-adv-x="220" 
d="M70 500h80v-500h-80v500z" />
    <glyph glyph-name="IJ" unicode="&#x132;" horiz-adv-x="800" 
d="M80 700h90v-700h-90v700zM485 -25q-37 0 -66.5 7.5t-53 20.5t-41 29t-30.5 33q-30 40 -44 90l90 20q9 -32 27 -58q16 -22 44.5 -39.5t73.5 -17.5q68 0 106.5 40.5t38.5 119.5v480h90v-480q0 -117 -63 -181t-172 -64z" />
    <glyph glyph-name="ij" unicode="&#x133;" horiz-adv-x="440" 
d="M70 500h80v-500h-80v500zM145 -115h145v615h80v-690h-225v75zM110 595q-23 0 -39 16t-16 39t16 39t39 16t39 -16t16 -39t-16 -39t-39 -16zM330 595q-23 0 -39 16t-16 39t16 39t39 16t39 -16t16 -39t-16 -39t-39 -16z" />
    <glyph glyph-name="Jcircumflex" unicode="&#x134;" horiz-adv-x="550" 
d="M235 -25q-37 0 -66.5 7.5t-53 20.5t-41 29t-30.5 33q-30 40 -44 90l90 20q9 -32 27 -58q16 -22 44.5 -39.5t73.5 -17.5q68 0 106.5 40.5t38.5 119.5v480h90v-480q0 -117 -63 -181t-172 -64zM270 791l110 144h90l110 -144v-1h-85l-65 90h-10l-65 -90h-85v1z" />
    <glyph glyph-name="jcircumflex" unicode="&#x135;" horiz-adv-x="220" 
d="M-75 -115h145v615h80v-690h-225v75zM-45 606l110 144h90l110 -144v-1h-85l-65 90h-10l-65 -90h-85v1z" />
    <glyph glyph-name="uni0136" unicode="&#x136;" horiz-adv-x="650" 
d="M80 700h90v-305h135l220 305h105l-245 -340l255 -360h-110l-220 310h-140v-310h-90v700zM295 -260q30 4 45 17.5t15 32.5q0 4 -1 6.5t-2 4.5l-2 4q-2 -2 -4 -3q-6 -2 -11 -2q-19 0 -32 13.5t-13 36.5q0 19 14.5 34.5t40.5 15.5t43 -19t17 -61q0 -57 -28.5 -86.5
t-81.5 -33.5v40z" />
    <glyph glyph-name="uni0137" unicode="&#x137;" horiz-adv-x="525" 
d="M70 700h80v-400h100l160 200h95l-185 -235l200 -265h-100l-170 225h-100v-225h-80v700zM230 -260q30 4 45 17.5t15 32.5q0 4 -1 6.5t-2 4.5l-2 4q-2 -2 -4 -3q-6 -2 -11 -2q-19 0 -32 13.5t-13 36.5q0 19 14.5 34.5t40.5 15.5t43 -19t17 -61q0 -57 -28.5 -86.5
t-81.5 -33.5v40z" />
    <glyph glyph-name="Lacute" unicode="&#x139;" horiz-adv-x="540" 
d="M80 700h90v-615h365v-85h-455v700zM180 935h100v-1l-115 -144h-70z" />
    <glyph glyph-name="lacute" unicode="&#x13a;" horiz-adv-x="275" 
d="M70 700h80v-625h115v-75h-195v700zM165 935h100v-1l-115 -144h-70z" />
    <glyph glyph-name="uni013B" unicode="&#x13b;" horiz-adv-x="540" 
d="M80 700h90v-615h365v-85h-455v700zM260 -260q30 4 45 17.5t15 32.5q0 4 -1 6.5t-2 4.5l-2 4q-2 -2 -4 -3q-6 -2 -11 -2q-19 0 -32 13.5t-13 36.5q0 19 14.5 34.5t40.5 15.5t43 -19t17 -61q0 -57 -28.5 -86.5t-81.5 -33.5v40z" />
    <glyph glyph-name="uni013C" unicode="&#x13c;" horiz-adv-x="275" 
d="M70 700h80v-625h115v-75h-195v700zM115 -260q30 4 45 17.5t15 32.5q0 4 -1 6.5t-2 4.5l-2 4q-2 -2 -4 -3q-6 -2 -11 -2q-19 0 -32 13.5t-13 36.5q0 19 14.5 34.5t40.5 15.5t43 -19t17 -61q0 -57 -28.5 -86.5t-81.5 -33.5v40z" />
    <glyph glyph-name="Lcaron" unicode="&#x13d;" horiz-adv-x="540" 
d="M80 700h90v-615h365v-85h-455v700zM260 540q30 4 45 17.5t15 32.5q0 4 -1 6.5t-2 4.5l-2 4q-2 -2 -4 -3q-6 -2 -11 -2q-19 0 -32 13.5t-13 36.5q0 19 14.5 34.5t40.5 15.5t43 -19t17 -61q0 -57 -28.5 -86.5t-81.5 -33.5v40z" />
    <glyph glyph-name="lcaron" unicode="&#x13e;" horiz-adv-x="285" 
d="M70 700h80v-625h115v-75h-195v700zM210 540q30 4 45 17.5t15 32.5q0 4 -1 6.5t-2 4.5l-2 4q-2 -2 -4 -3q-6 -2 -11 -2q-19 0 -32 13.5t-13 36.5q0 19 14.5 34.5t40.5 15.5t43 -19t17 -61q0 -57 -28.5 -86.5t-81.5 -33.5v40z" />
    <glyph glyph-name="Ldot" unicode="&#x13f;" horiz-adv-x="540" 
d="M80 700h90v-615h365v-85h-455v700zM390 325q-23 0 -39 16t-16 39t16 39t39 16t39 -16t16 -39t-16 -39t-39 -16z" />
    <glyph glyph-name="ldot" unicode="&#x140;" horiz-adv-x="360" 
d="M70 700h80v-625h115v-75h-195v700zM290 310q-23 0 -39 16t-16 39t16 39t39 16t39 -16t16 -39t-16 -39t-39 -16z" />
    <glyph glyph-name="Lslash" unicode="&#x141;" horiz-adv-x="545" 
d="M85 270l-70 -35v90l70 35v340h90v-300l150 70v-90l-150 -70v-225h365v-85h-455v270z" />
    <glyph glyph-name="lslash" unicode="&#x142;" horiz-adv-x="290" 
d="M85 270l-80 -35v85l80 35v345h80v-305l100 45v-85l-100 -45v-235h115v-75h-195v270z" />
    <glyph glyph-name="Nacute" unicode="&#x143;" horiz-adv-x="725" 
d="M80 700h130l344 -590h2l-1 10v580h90v-700h-130l-344 590h-2l1 -10v-579l-90 -1v700zM415 935h100v-1l-115 -144h-70z" />
    <glyph glyph-name="nacute" unicode="&#x144;" horiz-adv-x="585" 
d="M70 500h80v-75h1q15 24 39 42q20 16 52.5 29.5t77.5 13.5t82 -14.5t63 -42.5t40.5 -67.5t14.5 -90.5v-295h-80v290q0 75 -37.5 110t-97.5 35q-34 0 -62.5 -11.5t-49 -33.5t-32 -52.5t-11.5 -67.5v-270h-80v500zM345 755h100v-1l-115 -144h-70z" />
    <glyph glyph-name="uni0145" unicode="&#x145;" horiz-adv-x="725" 
d="M80 700h130l344 -590h2l-1 10v580h90v-700h-130l-344 590h-2l1 -10v-579l-90 -1v700zM315 -260q30 4 45 17.5t15 32.5q0 4 -1 6.5t-2 4.5l-2 4q-2 -2 -4 -3q-6 -2 -11 -2q-19 0 -32 13.5t-13 36.5q0 19 14.5 34.5t40.5 15.5t43 -19t17 -61q0 -57 -28.5 -86.5t-81.5 -33.5
v40z" />
    <glyph glyph-name="uni0146" unicode="&#x146;" horiz-adv-x="585" 
d="M70 500h80v-75h1q15 24 39 42q20 16 52.5 29.5t77.5 13.5t82 -14.5t63 -42.5t40.5 -67.5t14.5 -90.5v-295h-80v290q0 75 -37.5 110t-97.5 35q-34 0 -62.5 -11.5t-49 -33.5t-32 -52.5t-11.5 -67.5v-270h-80v500zM245 -260q30 4 45 17.5t15 32.5q0 4 -1 6.5t-2 4.5l-2 4
q-2 -2 -4 -3q-6 -2 -11 -2q-19 0 -32 13.5t-13 36.5q0 19 14.5 34.5t40.5 15.5t43 -19t17 -61q0 -57 -28.5 -86.5t-81.5 -33.5v40z" />
    <glyph glyph-name="Ncaron" unicode="&#x147;" horiz-adv-x="725" 
d="M80 700h130l344 -590h2l-1 10v580h90v-700h-130l-344 590h-2l1 -10v-579l-90 -1v700zM210 934v1h85l65 -90h10l65 90h85v-1l-110 -144h-90z" />
    <glyph glyph-name="ncaron" unicode="&#x148;" horiz-adv-x="585" 
d="M70 500h80v-75h1q15 24 39 42q20 16 52.5 29.5t77.5 13.5t82 -14.5t63 -42.5t40.5 -67.5t14.5 -90.5v-295h-80v290q0 75 -37.5 110t-97.5 35q-34 0 -62.5 -11.5t-49 -33.5t-32 -52.5t-11.5 -67.5v-270h-80v500zM140 754v1h85l65 -90h10l65 90h85v-1l-110 -144h-90z" />
    <glyph glyph-name="Eng" unicode="&#x14a;" horiz-adv-x="725" 
d="M430 -260q-32 0 -58 7t-47 18.5t-36.5 26.5t-27.5 30q-27 36 -41 83l86 25q7 -30 24 -53q14 -20 38 -36t62 -16q57 0 91 36t34 104v35h-40l-344 590h-2l1 -10v-580h-90v700h130l344 -590h2l-1 10v580h90v-735q0 -53 -15.5 -94.5t-43.5 -70.5t-67.5 -44.5t-88.5 -15.5z
" />
    <glyph glyph-name="eng" unicode="&#x14b;" horiz-adv-x="585" 
d="M295 -115h145v405q0 75 -37.5 110t-97.5 35q-34 0 -62.5 -11.5t-49 -33.5t-32 -52.5t-11.5 -67.5v-270h-80v500h80v-75h1q15 24 39 42q20 16 52.5 29.5t77.5 13.5t82 -14.5t63 -42.5t40.5 -67.5t14.5 -90.5v-485h-225v75z" />
    <glyph glyph-name="Omacron" unicode="&#x14c;" horiz-adv-x="820" 
d="M410 -20q-79 0 -146 27.5t-115.5 77t-76 117t-27.5 148.5t27.5 148.5t76 117t115.5 77t146 27.5t145.5 -27.5t115.5 -77t76.5 -117t27.5 -148.5t-27.5 -148.5t-76.5 -117t-115.5 -77t-145.5 -27.5zM410 65q60 0 110.5 20.5t87 58t57 90t20.5 116.5t-20.5 116.5t-57 90
t-87 58t-110.5 20.5t-110.5 -20.5t-87 -58t-57 -90t-20.5 -116.5t20.5 -116.5t57 -90t87 -58t110.5 -20.5zM275 900h270v-70h-270v70z" />
    <glyph glyph-name="omacron" unicode="&#x14d;" horiz-adv-x="600" 
d="M300 -10q-56 0 -104 19.5t-82.5 54t-54 82.5t-19.5 104t19.5 104t54 82.5t82.5 54t104 19.5t104 -19.5t82.5 -54t54 -82.5t19.5 -104t-19.5 -104t-54 -82.5t-82.5 -54t-104 -19.5zM300 65q39 0 72 13.5t57 38t37.5 58.5t13.5 75t-13.5 75t-37.5 58.5t-57 38t-72 13.5
t-72 -13.5t-57 -38t-37.5 -58.5t-13.5 -75t13.5 -75t37.5 -58.5t57 -38t72 -13.5zM165 720h270v-70h-270v70z" />
    <glyph glyph-name="Obreve" unicode="&#x14e;" horiz-adv-x="820" 
d="M410 -20q-79 0 -146 27.5t-115.5 77t-76 117t-27.5 148.5t27.5 148.5t76 117t115.5 77t146 27.5t145.5 -27.5t115.5 -77t76.5 -117t27.5 -148.5t-27.5 -148.5t-76.5 -117t-115.5 -77t-145.5 -27.5zM410 65q60 0 110.5 20.5t87 58t57 90t20.5 116.5t-20.5 116.5t-57 90
t-87 58t-110.5 20.5t-110.5 -20.5t-87 -58t-57 -90t-20.5 -116.5t20.5 -116.5t57 -90t87 -58t110.5 -20.5zM410 800q-68 0 -106.5 36t-38.5 89h70q0 -30 18.5 -47.5t56.5 -17.5t56.5 17.5t18.5 47.5h70q0 -53 -38.5 -89t-106.5 -36z" />
    <glyph glyph-name="obreve" unicode="&#x14f;" horiz-adv-x="600" 
d="M300 -10q-56 0 -104 19.5t-82.5 54t-54 82.5t-19.5 104t19.5 104t54 82.5t82.5 54t104 19.5t104 -19.5t82.5 -54t54 -82.5t19.5 -104t-19.5 -104t-54 -82.5t-82.5 -54t-104 -19.5zM300 65q39 0 72 13.5t57 38t37.5 58.5t13.5 75t-13.5 75t-37.5 58.5t-57 38t-72 13.5
t-72 -13.5t-57 -38t-37.5 -58.5t-13.5 -75t13.5 -75t37.5 -58.5t57 -38t72 -13.5zM300 620q-68 0 -106.5 36t-38.5 89h70q0 -30 18.5 -47.5t56.5 -17.5t56.5 17.5t18.5 47.5h70q0 -53 -38.5 -89t-106.5 -36z" />
    <glyph glyph-name="Ohungarumlaut" unicode="&#x150;" horiz-adv-x="820" 
d="M410 -20q-79 0 -146 27.5t-115.5 77t-76 117t-27.5 148.5t27.5 148.5t76 117t115.5 77t146 27.5t145.5 -27.5t115.5 -77t76.5 -117t27.5 -148.5t-27.5 -148.5t-76.5 -117t-115.5 -77t-145.5 -27.5zM410 65q60 0 110.5 20.5t87 58t57 90t20.5 116.5t-20.5 116.5t-57 90
t-87 58t-110.5 20.5t-110.5 -20.5t-87 -58t-57 -90t-20.5 -116.5t20.5 -116.5t57 -90t87 -58t110.5 -20.5zM375 935h90v-1l-100 -144h-60zM525 935h90v-1l-100 -144h-60z" />
    <glyph glyph-name="ohungarumlaut" unicode="&#x151;" horiz-adv-x="600" 
d="M300 -10q-56 0 -104 19.5t-82.5 54t-54 82.5t-19.5 104t19.5 104t54 82.5t82.5 54t104 19.5t104 -19.5t82.5 -54t54 -82.5t19.5 -104t-19.5 -104t-54 -82.5t-82.5 -54t-104 -19.5zM300 65q39 0 72 13.5t57 38t37.5 58.5t13.5 75t-13.5 75t-37.5 58.5t-57 38t-72 13.5
t-72 -13.5t-57 -38t-37.5 -58.5t-13.5 -75t13.5 -75t37.5 -58.5t57 -38t72 -13.5zM265 755h90v-1l-100 -144h-60zM415 755h90v-1l-100 -144h-60z" />
    <glyph glyph-name="OE" unicode="&#x152;" horiz-adv-x="1180" 
d="M400 -20q-75 0 -140 27.5t-112.5 77t-75 117t-27.5 148.5t27.5 148.5t75 117t112.5 77t140 27.5q68 0 117.5 -20.5t82.5 -44.5q39 -29 65 -65v110h475v-85h-385v-220h310v-85h-310v-225h385v-85h-475v110q-26 -37 -65 -65q-33 -25 -82.5 -45t-117.5 -20zM400 65
q56 0 104.5 20.5t84 58t56 90t20.5 116.5t-20.5 116.5t-56 90t-84 58t-104.5 20.5t-104.5 -20.5t-84 -58t-56 -90t-20.5 -116.5t20.5 -116.5t56 -90t84 -58t104.5 -20.5z" />
    <glyph glyph-name="oe" unicode="&#x153;" horiz-adv-x="995" 
d="M290 -10q-53 0 -98.5 19.5t-79 54t-53 82.5t-19.5 104t19.5 104t53 82.5t79 54t98.5 19.5q55 0 95.5 -18t66.5 -40q31 -26 52 -57h1q19 31 48 57q25 22 63.5 40t93.5 18q51 0 95.5 -19.5t77.5 -53.5t52.5 -81t19.5 -101v-30h-415q4 -34 18 -63t36 -50.5t50.5 -34
t60.5 -12.5q43 0 73 14t50 31q23 19 37 45h80q-18 -47 -50 -83q-27 -31 -72.5 -56.5t-112.5 -25.5q-57 0 -96 17.5t-63 39.5q-29 26 -46 58h-1q-21 -32 -53 -58q-27 -22 -67 -39.5t-94 -17.5zM290 65q36 0 67 13.5t54 38t36 58.5t13 75t-13 75t-36 58.5t-54 38t-67 13.5
t-67 -13.5t-54 -38t-36 -58.5t-13 -75t13 -75t36 -58.5t54 -38t67 -13.5zM870 295q-4 28 -17.5 53.5t-34.5 44.5t-48.5 30.5t-59.5 11.5t-59.5 -11.5t-49 -30.5t-36 -44.5t-20.5 -53.5h325z" />
    <glyph glyph-name="Racute" unicode="&#x154;" horiz-adv-x="685" 
d="M80 700h300q60 0 107.5 -17t80 -46.5t50 -69.5t17.5 -87q0 -78 -48 -134.5t-137 -75.5l180 -270h-105l-170 260h-185v-260h-90v700zM380 345q83 0 124 37.5t41 97.5t-41 97.5t-124 37.5h-210v-270h210zM400 935h100v-1l-115 -144h-70z" />
    <glyph glyph-name="racute" unicode="&#x155;" horiz-adv-x="380" 
d="M70 500h80v-80h1q13 24 34 42q18 16 47 29.5t73 13.5h60v-80h-60q-34 0 -62.5 -11.5t-49 -32t-32 -49t-11.5 -62.5v-270h-80v500zM270 755h100v-1l-115 -144h-70z" />
    <glyph glyph-name="uni0156" unicode="&#x156;" horiz-adv-x="685" 
d="M80 700h300q60 0 107.5 -17t80 -46.5t50 -69.5t17.5 -87q0 -78 -48 -134.5t-137 -75.5l180 -270h-105l-170 260h-185v-260h-90v700zM380 345q83 0 124 37.5t41 97.5t-41 97.5t-124 37.5h-210v-270h210zM295 -260q30 4 45 17.5t15 32.5q0 4 -1 6.5t-2 4.5l-2 4
q-2 -2 -4 -3q-6 -2 -11 -2q-19 0 -32 13.5t-13 36.5q0 19 14.5 34.5t40.5 15.5t43 -19t17 -61q0 -57 -28.5 -86.5t-81.5 -33.5v40z" />
    <glyph glyph-name="uni0157" unicode="&#x157;" horiz-adv-x="380" 
d="M70 500h80v-80h1q13 24 34 42q18 16 47 29.5t73 13.5h60v-80h-60q-34 0 -62.5 -11.5t-49 -32t-32 -49t-11.5 -62.5v-270h-80v500zM60 -260q30 4 45 17.5t15 32.5q0 4 -1 6.5t-2 4.5l-2 4q-2 -2 -4 -3q-6 -2 -11 -2q-19 0 -32 13.5t-13 36.5q0 19 14.5 34.5t40.5 15.5
t43 -19t17 -61q0 -57 -28.5 -86.5t-81.5 -33.5v40z" />
    <glyph glyph-name="Rcaron" unicode="&#x158;" horiz-adv-x="685" 
d="M80 700h300q60 0 107.5 -17t80 -46.5t50 -69.5t17.5 -87q0 -78 -48 -134.5t-137 -75.5l180 -270h-105l-170 260h-185v-260h-90v700zM380 345q83 0 124 37.5t41 97.5t-41 97.5t-124 37.5h-210v-270h210zM195 934v1h85l65 -90h10l65 90h85v-1l-110 -144h-90z" />
    <glyph glyph-name="rcaron" unicode="&#x159;" horiz-adv-x="380" 
d="M70 500h80v-80h1q13 24 34 42q18 16 47 29.5t73 13.5h60v-80h-60q-34 0 -62.5 -11.5t-49 -32t-32 -49t-11.5 -62.5v-270h-80v500zM65 754v1h85l65 -90h10l65 90h85v-1l-110 -144h-90z" />
    <glyph glyph-name="Sacute" unicode="&#x15a;" horiz-adv-x="640" 
d="M330 -20q-48 0 -86 9.5t-67 25t-51 35t-37 40.5q-36 48 -49 110h90q10 -38 36 -68q22 -26 61 -46.5t103 -20.5q45 0 78 9.5t54.5 26t32 38.5t10.5 46q0 32 -18.5 53t-49.5 36t-70 26t-79.5 22.5t-79.5 26.5t-70 37t-49.5 54.5t-18.5 79.5q0 39 17.5 75.5t49.5 64t78.5 44
t104.5 16.5q44 0 79.5 -8.5t62.5 -22t47.5 -31.5t34.5 -36q33 -43 46 -97h-90q-9 30 -32 55q-20 20 -55 37.5t-93 17.5q-39 0 -69 -9.5t-50.5 -25.5t-30.5 -37t-10 -43q0 -41 32 -64.5t80.5 -40t105 -31t105 -38t80.5 -61.5t32 -100q0 -41 -17.5 -78.5t-51.5 -65.5
t-83 -44.5t-113 -16.5zM380 935h100v-1l-115 -144h-70z" />
    <glyph glyph-name="sacute" unicode="&#x15b;" horiz-adv-x="510" 
d="M265 -10q-37 0 -66 7t-52 18.5t-40.5 26.5t-29.5 30q-29 36 -42 83h85q10 -26 29 -45q17 -17 44.5 -31t71.5 -14q68 0 96.5 22.5t28.5 52.5q0 26 -24.5 40t-61 24t-79.5 19t-79.5 26t-61 45t-24.5 76q0 28 12 53.5t36 44.5t59.5 30.5t82.5 11.5q35 0 62.5 -6.5t49 -17
t37.5 -24t28 -27.5q26 -33 38 -75h-85q-9 20 -26 37q-14 14 -39.5 26t-64.5 12q-28 0 -49 -6t-34.5 -15.5t-20 -21t-6.5 -22.5q0 -26 24.5 -40t61 -24t79.5 -19t79.5 -26t61 -45.5t24.5 -75.5q0 -30 -13 -57t-39 -48t-64 -33t-89 -12zM305 755h100v-1l-115 -144h-70z" />
    <glyph glyph-name="Scircumflex" unicode="&#x15c;" horiz-adv-x="640" 
d="M330 -20q-48 0 -86 9.5t-67 25t-51 35t-37 40.5q-36 48 -49 110h90q10 -38 36 -68q22 -26 61 -46.5t103 -20.5q45 0 78 9.5t54.5 26t32 38.5t10.5 46q0 32 -18.5 53t-49.5 36t-70 26t-79.5 22.5t-79.5 26.5t-70 37t-49.5 54.5t-18.5 79.5q0 39 17.5 75.5t49.5 64t78.5 44
t104.5 16.5q44 0 79.5 -8.5t62.5 -22t47.5 -31.5t34.5 -36q33 -43 46 -97h-90q-9 30 -32 55q-20 20 -55 37.5t-93 17.5q-39 0 -69 -9.5t-50.5 -25.5t-30.5 -37t-10 -43q0 -41 32 -64.5t80.5 -40t105 -31t105 -38t80.5 -61.5t32 -100q0 -41 -17.5 -78.5t-51.5 -65.5
t-83 -44.5t-113 -16.5zM175 791l110 144h90l110 -144v-1h-85l-65 90h-10l-65 -90h-85v1z" />
    <glyph glyph-name="scircumflex" unicode="&#x15d;" horiz-adv-x="510" 
d="M265 -10q-37 0 -66 7t-52 18.5t-40.5 26.5t-29.5 30q-29 36 -42 83h85q10 -26 29 -45q17 -17 44.5 -31t71.5 -14q68 0 96.5 22.5t28.5 52.5q0 26 -24.5 40t-61 24t-79.5 19t-79.5 26t-61 45t-24.5 76q0 28 12 53.5t36 44.5t59.5 30.5t82.5 11.5q35 0 62.5 -6.5t49 -17
t37.5 -24t28 -27.5q26 -33 38 -75h-85q-9 20 -26 37q-14 14 -39.5 26t-64.5 12q-28 0 -49 -6t-34.5 -15.5t-20 -21t-6.5 -22.5q0 -26 24.5 -40t61 -24t79.5 -19t79.5 -26t61 -45.5t24.5 -75.5q0 -30 -13 -57t-39 -48t-64 -33t-89 -12zM105 611l110 144h90l110 -144v-1h-85
l-65 90h-10l-65 -90h-85v1z" />
    <glyph glyph-name="Scedilla" unicode="&#x15e;" horiz-adv-x="640" 
d="M310 -240q-19 0 -33 3t-23 7q-11 4 -19 10v55q8 -6 19 -10q9 -4 23 -7t33 -3q26 0 38 12.5t12 27.5q0 19 -12.5 29.5t-42.5 10.5h-40l37 86q-43 3 -77 14t-60.5 26.5t-46 35t-33.5 39.5q-33 47 -45 104h90q10 -38 36 -68q22 -26 61 -46.5t103 -20.5q45 0 78 9.5t54.5 26
t32 38.5t10.5 46q0 32 -18.5 53t-49.5 36t-70 26t-79.5 22.5t-79.5 26.5t-70 37t-49.5 54.5t-18.5 79.5q0 39 17.5 75.5t49.5 64t78.5 44t104.5 16.5q44 0 79.5 -8.5t62.5 -22t47.5 -31.5t34.5 -36q33 -43 46 -97h-90q-9 30 -32 55q-20 20 -55 37.5t-93 17.5q-39 0 -69 -9.5
t-50.5 -25.5t-30.5 -37t-10 -43q0 -41 32 -64.5t80.5 -40t105 -31t105 -38t80.5 -61.5t32 -100q0 -39 -15.5 -74.5t-46 -63t-75 -45.5t-102.5 -21l-16 -36q22 -4 40 -15q15 -10 27.5 -27.5t12.5 -47.5q0 -19 -8 -36t-22.5 -30t-35 -21t-44.5 -8z" />
    <glyph glyph-name="scedilla" unicode="&#x15f;" horiz-adv-x="510" 
d="M240 -240q-19 0 -33 3t-23 7q-11 4 -19 10v55q8 -6 19 -10q9 -4 23 -7t33 -3q26 0 38 12.5t12 27.5q0 19 -12.5 29.5t-42.5 10.5h-40l42 96q-32 3 -58 11.5t-46 20.5t-35 26.5t-26 29.5q-26 34 -37 76h85q10 -26 29 -45q17 -17 44.5 -31t71.5 -14q68 0 96.5 22.5
t28.5 52.5q0 26 -24.5 40t-61 24t-79.5 19t-79.5 26t-61 45t-24.5 76q0 28 12 53.5t36 44.5t59.5 30.5t82.5 11.5q35 0 62.5 -6.5t49 -17t37.5 -24t28 -27.5q26 -33 38 -75h-85q-9 20 -26 37q-14 14 -39.5 26t-64.5 12q-28 0 -49 -6t-34.5 -15.5t-20 -21t-6.5 -22.5
q0 -26 24.5 -40t61 -24t79.5 -19t79.5 -26t61 -45.5t24.5 -75.5q0 -28 -11.5 -53.5t-34 -45.5t-56 -33.5t-77.5 -16.5l-21 -46q22 -4 40 -15q15 -10 27.5 -27.5t12.5 -47.5q0 -19 -8 -36t-22.5 -30t-35 -21t-44.5 -8z" />
    <glyph glyph-name="Scaron" unicode="&#x160;" horiz-adv-x="640" 
d="M330 -20q-48 0 -86 9.5t-67 25t-51 35t-37 40.5q-36 48 -49 110h90q10 -38 36 -68q22 -26 61 -46.5t103 -20.5q45 0 78 9.5t54.5 26t32 38.5t10.5 46q0 32 -18.5 53t-49.5 36t-70 26t-79.5 22.5t-79.5 26.5t-70 37t-49.5 54.5t-18.5 79.5q0 39 17.5 75.5t49.5 64t78.5 44
t104.5 16.5q44 0 79.5 -8.5t62.5 -22t47.5 -31.5t34.5 -36q33 -43 46 -97h-90q-9 30 -32 55q-20 20 -55 37.5t-93 17.5q-39 0 -69 -9.5t-50.5 -25.5t-30.5 -37t-10 -43q0 -41 32 -64.5t80.5 -40t105 -31t105 -38t80.5 -61.5t32 -100q0 -41 -17.5 -78.5t-51.5 -65.5
t-83 -44.5t-113 -16.5zM175 934v1h85l65 -90h10l65 90h85v-1l-110 -144h-90z" />
    <glyph glyph-name="scaron" unicode="&#x161;" horiz-adv-x="510" 
d="M265 -10q-37 0 -66 7t-52 18.5t-40.5 26.5t-29.5 30q-29 36 -42 83h85q10 -26 29 -45q17 -17 44.5 -31t71.5 -14q68 0 96.5 22.5t28.5 52.5q0 26 -24.5 40t-61 24t-79.5 19t-79.5 26t-61 45t-24.5 76q0 28 12 53.5t36 44.5t59.5 30.5t82.5 11.5q35 0 62.5 -6.5t49 -17
t37.5 -24t28 -27.5q26 -33 38 -75h-85q-9 20 -26 37q-14 14 -39.5 26t-64.5 12q-28 0 -49 -6t-34.5 -15.5t-20 -21t-6.5 -22.5q0 -26 24.5 -40t61 -24t79.5 -19t79.5 -26t61 -45.5t24.5 -75.5q0 -30 -13 -57t-39 -48t-64 -33t-89 -12zM100 754v1h85l65 -90h10l65 90h85v-1
l-110 -144h-90z" />
    <glyph glyph-name="uni0162" unicode="&#x162;" horiz-adv-x="590" 
d="M270 -240q-19 0 -33 3t-23 7q-11 4 -19 10v55q8 -6 19 -10q9 -4 23 -7t33 -3q26 0 38 12.5t12 27.5q0 19 -12.5 29.5t-42.5 10.5h-40l45 105h-20v615h-240v85h570v-85h-240v-615h-15l-25 -55q22 -4 40 -15q15 -10 27.5 -27.5t12.5 -47.5q0 -19 -8 -36t-22.5 -30t-35 -21
t-44.5 -8z" />
    <glyph glyph-name="uni0163" unicode="&#x163;" horiz-adv-x="365" 
d="M185 -240q-19 0 -33 3t-23 7q-11 4 -19 10v55q8 -6 19 -10q9 -4 23 -7t33 -3q26 0 38 12.5t12 27.5q0 19 -12.5 29.5t-42.5 10.5h-40l45 105h-95v425h-65v75h65v110h80v-110h160v-75h-160v-350h165v-75h-95l-25 -55q22 -4 40 -15q15 -10 27.5 -27.5t12.5 -47.5
q0 -19 -8 -36t-22.5 -30t-35 -21t-44.5 -8z" />
    <glyph glyph-name="Tcaron" unicode="&#x164;" horiz-adv-x="590" 
d="M250 615h-240v85h570v-85h-240v-615h-90v615zM140 934v1h85l65 -90h10l65 90h85v-1l-110 -144h-90z" />
    <glyph glyph-name="tcaron" unicode="&#x165;" horiz-adv-x="365" 
d="M90 425h-65v75h65v110h80v-535h165v-75h-245v425zM230 460q30 4 45 17.5t15 32.5q0 4 -1 6.5t-2 4.5l-2 4q-2 -2 -4 -3q-6 -2 -11 -2q-19 0 -32 13.5t-13 36.5q0 19 14.5 34.5t40.5 15.5t43 -19t17 -61q0 -57 -28.5 -86.5t-81.5 -33.5v40z" />
    <glyph glyph-name="Tbar" unicode="&#x166;" horiz-adv-x="590" 
d="M250 380h-170v70h170v165h-240v85h570v-85h-240v-165h170v-70h-170v-380h-90v380z" />
    <glyph glyph-name="tbar" unicode="&#x167;" horiz-adv-x="365" 
d="M90 270h-65v70h65v85h-65v75h65v110h80v-110h160v-75h-160v-85h160v-70h-160v-195h165v-75h-245v270z" />
    <glyph glyph-name="Utilde" unicode="&#x168;" horiz-adv-x="700" 
d="M350 -20q-62 0 -112.5 20t-86.5 57t-56 89.5t-20 118.5v435h90v-435q0 -47 13.5 -84t38 -63t58.5 -39.5t75 -13.5t75 13.5t58.5 39.5t38 63t13.5 84v435h90v-435q0 -66 -20 -118.5t-56 -89.5t-86.5 -57t-112.5 -20zM412 751q-26 0 -44 9.5t-32 20.5t-26.5 20.5t-27.5 9.5
q-30 0 -30 -30v-25h-65v28q0 39 26.5 65.5t68.5 26.5q26 0 44 -9.5t32 -20.5t26.5 -20.5t27.5 -9.5q30 0 30 30v25h65v-28q0 -39 -26.5 -65.5t-68.5 -26.5z" />
    <glyph glyph-name="utilde" unicode="&#x169;" horiz-adv-x="590" 
d="M270 -10q-45 0 -82 14.5t-63 42.5t-40.5 67.5t-14.5 90.5v295h80v-290q0 -75 37.5 -110t97.5 -35q34 0 62.5 11.5t49 33.5t32 52t11.5 68v270h80v-500h-80v75h-1q-16 -25 -40 -43q-20 -16 -52 -29t-77 -13zM360 551q-26 0 -44 9.5t-32 20.5t-26.5 20.5t-27.5 9.5
q-30 0 -30 -30v-25h-65v28q0 39 26.5 65.5t68.5 26.5q26 0 44 -9.5t32 -20.5t26.5 -20.5t27.5 -9.5q30 0 30 30v25h65v-28q0 -39 -26.5 -65.5t-68.5 -26.5z" />
    <glyph glyph-name="Umacron" unicode="&#x16a;" horiz-adv-x="700" 
d="M350 -20q-62 0 -112.5 20t-86.5 57t-56 89.5t-20 118.5v435h90v-435q0 -47 13.5 -84t38 -63t58.5 -39.5t75 -13.5t75 13.5t58.5 39.5t38 63t13.5 84v435h90v-435q0 -66 -20 -118.5t-56 -89.5t-86.5 -57t-112.5 -20zM215 900h270v-70h-270v70z" />
    <glyph glyph-name="umacron" unicode="&#x16b;" horiz-adv-x="590" 
d="M270 -10q-45 0 -82 14.5t-63 42.5t-40.5 67.5t-14.5 90.5v295h80v-290q0 -75 37.5 -110t97.5 -35q34 0 62.5 11.5t49 33.5t32 52t11.5 68v270h80v-500h-80v75h-1q-16 -25 -40 -43q-20 -16 -52 -29t-77 -13zM160 720h270v-70h-270v70z" />
    <glyph glyph-name="Ubreve" unicode="&#x16c;" horiz-adv-x="700" 
d="M350 -20q-62 0 -112.5 20t-86.5 57t-56 89.5t-20 118.5v435h90v-435q0 -47 13.5 -84t38 -63t58.5 -39.5t75 -13.5t75 13.5t58.5 39.5t38 63t13.5 84v435h90v-435q0 -66 -20 -118.5t-56 -89.5t-86.5 -57t-112.5 -20zM350 800q-68 0 -106.5 36t-38.5 89h70
q0 -30 18.5 -47.5t56.5 -17.5t56.5 17.5t18.5 47.5h70q0 -53 -38.5 -89t-106.5 -36z" />
    <glyph glyph-name="ubreve" unicode="&#x16d;" horiz-adv-x="590" 
d="M270 -10q-45 0 -82 14.5t-63 42.5t-40.5 67.5t-14.5 90.5v295h80v-290q0 -75 37.5 -110t97.5 -35q34 0 62.5 11.5t49 33.5t32 52t11.5 68v270h80v-500h-80v75h-1q-16 -25 -40 -43q-20 -16 -52 -29t-77 -13zM295 620q-68 0 -106.5 36t-38.5 89h70q0 -30 18.5 -47.5
t56.5 -17.5t56.5 17.5t18.5 47.5h70q0 -53 -38.5 -89t-106.5 -36z" />
    <glyph glyph-name="Uring" unicode="&#x16e;" horiz-adv-x="700" 
d="M350 -20q-62 0 -112.5 20t-86.5 57t-56 89.5t-20 118.5v435h90v-435q0 -47 13.5 -84t38 -63t58.5 -39.5t75 -13.5t75 13.5t58.5 39.5t38 63t13.5 84v435h90v-435q0 -66 -20 -118.5t-56 -89.5t-86.5 -57t-112.5 -20zM350 755q-45 0 -75 30t-30 75t30 75t75 30t75 -30
t30 -75t-30 -75t-75 -30zM350 805q26 0 40.5 16t14.5 39t-14.5 39t-40.5 16t-40.5 -16t-14.5 -39t14.5 -39t40.5 -16z" />
    <glyph glyph-name="uring" unicode="&#x16f;" horiz-adv-x="590" 
d="M270 -10q-45 0 -82 14.5t-63 42.5t-40.5 67.5t-14.5 90.5v295h80v-290q0 -75 37.5 -110t97.5 -35q34 0 62.5 11.5t49 33.5t32 52t11.5 68v270h80v-500h-80v75h-1q-16 -25 -40 -43q-20 -16 -52 -29t-77 -13zM295 575q-45 0 -75 30t-30 75t30 75t75 30t75 -30t30 -75
t-30 -75t-75 -30zM295 625q26 0 40.5 16t14.5 39t-14.5 39t-40.5 16t-40.5 -16t-14.5 -39t14.5 -39t40.5 -16z" />
    <glyph glyph-name="Uhungarumlaut" unicode="&#x170;" horiz-adv-x="700" 
d="M350 -20q-62 0 -112.5 20t-86.5 57t-56 89.5t-20 118.5v435h90v-435q0 -47 13.5 -84t38 -63t58.5 -39.5t75 -13.5t75 13.5t58.5 39.5t38 63t13.5 84v435h90v-435q0 -66 -20 -118.5t-56 -89.5t-86.5 -57t-112.5 -20zM315 935h90v-1l-100 -144h-60zM465 935h90v-1
l-100 -144h-60z" />
    <glyph glyph-name="uhungarumlaut" unicode="&#x171;" horiz-adv-x="590" 
d="M270 -10q-45 0 -82 14.5t-63 42.5t-40.5 67.5t-14.5 90.5v295h80v-290q0 -75 37.5 -110t97.5 -35q34 0 62.5 11.5t49 33.5t32 52t11.5 68v270h80v-500h-80v75h-1q-16 -25 -40 -43q-20 -16 -52 -29t-77 -13zM260 755h90v-1l-100 -144h-60zM410 755h90v-1l-100 -144h-60z
" />
    <glyph glyph-name="Uogonek" unicode="&#x172;" horiz-adv-x="700" 
d="M375 -230q-49 0 -77 26.5t-28 68.5q0 24 12.5 45t27.5 37q18 18 41 33h-1q-62 0 -112.5 20t-86.5 57t-56 89.5t-20 118.5v435h90v-435q0 -47 13.5 -84t38 -63t58.5 -39.5t75 -13.5t75 13.5t58.5 39.5t38 63t13.5 84v435h90v-435q0 -109 -52 -180.5t-143 -94.5
q-28 -17 -50 -36q-19 -17 -34.5 -38.5t-15.5 -45.5q0 -19 13.5 -32t36.5 -13q13 0 25.5 3t22.5 7q11 4 22 10v-55q-10 -6 -21 -10q-10 -4 -23.5 -7t-30.5 -3z" />
    <glyph glyph-name="uogonek" unicode="&#x173;" horiz-adv-x="590" 
d="M445 -230q-49 0 -77 26.5t-28 68.5q0 32 17.5 57t39.5 42q26 20 58 36h-15v75h-1q-16 -25 -40 -43q-20 -16 -52 -29t-77 -13t-82 14.5t-63 42.5t-40.5 67.5t-14.5 90.5v295h80v-290q0 -72 37.5 -108.5t97.5 -36.5q34 0 62.5 11.5t49 33.5t32 52t11.5 68v270h80v-500
q-34 -17 -60 -37q-23 -17 -41.5 -41t-18.5 -52q0 -19 13.5 -32t36.5 -13q13 0 25.5 3t22.5 7q11 4 22 10v-55q-10 -6 -21 -10q-10 -4 -23.5 -7t-30.5 -3z" />
    <glyph glyph-name="Wcircumflex" unicode="&#x174;" horiz-adv-x="965" 
d="M30 700h95l130 -615h25l130 615h145l130 -615h25l130 615h95l-155 -700h-160l-125 615h-25l-125 -615h-160zM330 791l110 144h90l110 -144v-1h-85l-65 90h-10l-65 -90h-85v1z" />
    <glyph glyph-name="wcircumflex" unicode="&#x175;" horiz-adv-x="775" 
d="M30 500h85l90 -425h25l85 425h145l85 -425h25l90 425h85l-110 -500h-155l-85 425h-15l-85 -425h-155zM235 611l110 144h90l110 -144v-1h-85l-65 90h-10l-65 -90h-85v1z" />
    <glyph glyph-name="Ycircumflex" unicode="&#x176;" horiz-adv-x="640" 
d="M275 255l-270 445h105l205 -340h10l205 340h105l-270 -445v-255h-90v255zM165 791l110 144h90l110 -144v-1h-85l-65 90h-10l-65 -90h-85v1z" />
    <glyph glyph-name="ycircumflex" unicode="&#x177;" horiz-adv-x="505" 
d="M270 0h-115l-135 500h85l110 -425h75l130 425h85l-210 -690h-85zM110 611l110 144h90l110 -144v-1h-85l-65 90h-10l-65 -90h-85v1z" />
    <glyph glyph-name="Ydieresis" unicode="&#x178;" horiz-adv-x="640" 
d="M275 255l-270 445h105l205 -340h10l205 340h105l-270 -445v-255h-90v255zM230 805q-23 0 -39 16t-16 39t16 39t39 16t39 -16t16 -39t-16 -39t-39 -16zM410 805q-23 0 -39 16t-16 39t16 39t39 16t39 -16t16 -39t-16 -39t-39 -16z" />
    <glyph glyph-name="Zacute" unicode="&#x179;" horiz-adv-x="605" 
d="M30 85l425 525v5h-410v85h525v-85l-425 -525v-5h430v-85h-545v85zM350 935h100v-1l-115 -144h-70z" />
    <glyph glyph-name="zacute" unicode="&#x17a;" horiz-adv-x="465" 
d="M25 75l300 349v1h-290v75h395v-75l-300 -349v-1h310v-75h-415v75zM285 755h100v-1l-115 -144h-70z" />
    <glyph glyph-name="Zdotaccent" unicode="&#x17b;" horiz-adv-x="605" 
d="M30 85l425 525v5h-410v85h525v-85l-425 -525v-5h430v-85h-545v85zM305 805q-23 0 -39 16t-16 39t16 39t39 16t39 -16t16 -39t-16 -39t-39 -16z" />
    <glyph glyph-name="zdotaccent" unicode="&#x17c;" horiz-adv-x="465" 
d="M25 75l300 349v1h-290v75h395v-75l-300 -349v-1h310v-75h-415v75zM235 625q-23 0 -39 16t-16 39t16 39t39 16t39 -16t16 -39t-16 -39t-39 -16z" />
    <glyph glyph-name="Zcaron" unicode="&#x17d;" horiz-adv-x="605" 
d="M30 85l425 525v5h-410v85h525v-85l-425 -525v-5h430v-85h-545v85zM150 934v1h85l65 -90h10l65 90h85v-1l-110 -144h-90z" />
    <glyph glyph-name="zcaron" unicode="&#x17e;" horiz-adv-x="465" 
d="M25 75l300 349v1h-290v75h395v-75l-300 -349v-1h310v-75h-415v75zM80 754v1h85l65 -90h10l65 90h85v-1l-110 -144h-90z" />
    <glyph glyph-name="uni018F" unicode="&#x18f;" horiz-adv-x="820" 
d="M410 -20q-77 0 -141 26.5t-110.5 73t-72.5 109.5t-26 136v65h622q-6 58 -30 103.5t-60 77t-83 48t-99 16.5q-87 0 -149.5 -40t-100.5 -115h-90q19 54 50.5 98.5t74.5 76t97 48.5t118 17q79 0 145.5 -27.5t115.5 -77t76.5 -117t27.5 -148.5t-27.5 -148.5t-76.5 -117
t-115.5 -77t-145.5 -27.5zM405 65q56 0 104 17.5t84.5 49.5t59.5 77t29 101h-532q4 -54 24.5 -99.5t54 -77.5t78.5 -50t98 -18z" />
    <glyph glyph-name="florin" unicode="&#x192;" horiz-adv-x="390" 
d="M-85 -115h155l80 540h-55v75h70l30 200h220v-75h-150l-20 -125h120v-75h-135l-90 -615h-225v75z" />
    <glyph glyph-name="Ohorn" unicode="&#x1a0;" horiz-adv-x="820" 
d="M410 -20q-79 0 -146 27.5t-115.5 77t-76 117t-27.5 148.5t27.5 148.5t76 117t115.5 77t146 27.5t145.5 -27.5t115.5 -77t76.5 -117t27.5 -148.5t-27.5 -148.5t-76.5 -117t-115.5 -77t-145.5 -27.5zM410 65q60 0 110.5 20.5t87 58t57 90t20.5 116.5t-20.5 116.5t-57 90
t-87 58t-110.5 20.5t-110.5 -20.5t-87 -58t-57 -90t-20.5 -116.5t20.5 -116.5t57 -90t87 -58t110.5 -20.5zM622 635q27 14 27 50v33h88v-35q3 -105 -76 -136h-39v88z" />
    <glyph glyph-name="ohorn" unicode="&#x1a1;" horiz-adv-x="600" 
d="M300 -10q-56 0 -104 19.5t-82.5 54t-54 82.5t-19.5 104t19.5 104t54 82.5t82.5 54t104 19.5t104 -19.5t82.5 -54t54 -82.5t19.5 -104t-19.5 -104t-54 -82.5t-82.5 -54t-104 -19.5zM300 65q39 0 72 13.5t57 38t37.5 58.5t13.5 75t-13.5 75t-37.5 58.5t-57 38t-72 13.5
t-72 -13.5t-57 -38t-37.5 -58.5t-13.5 -75t13.5 -75t37.5 -58.5t57 -38t72 -13.5zM473 427q27 14 27 50v33h88v-35q3 -105 -76 -136h-39v88z" />
    <glyph glyph-name="Uhorn" unicode="&#x1af;" horiz-adv-x="700" 
d="M350 -20q-62 0 -112.5 20t-86.5 57t-56 89.5t-20 118.5v435h90v-435q0 -47 13.5 -84t38 -63t58.5 -39.5t75 -13.5t75 13.5t58.5 39.5t38 63t13.5 84v435h90v-435q0 -66 -20 -118.5t-56 -89.5t-86.5 -57t-112.5 -20zM601 687q27 14 27 50v33h88v-35q3 -105 -76 -136h-39
v88z" />
    <glyph glyph-name="uhorn" unicode="&#x1b0;" horiz-adv-x="590" 
d="M270 -10q-45 0 -82 14.5t-63 42.5t-40.5 67.5t-14.5 90.5v295h80v-290q0 -75 37.5 -110t97.5 -35q34 0 62.5 11.5t49 33.5t32 52t11.5 68v270h80v-500h-80v75h-1q-16 -25 -40 -43q-20 -16 -52 -29t-77 -13zM499 485q27 14 27 50v33h88v-35q3 -105 -76 -136h-39v88z" />
    <glyph glyph-name="uni01F4" unicode="&#x1f4;" horiz-adv-x="860" 
d="M410 -20q-79 0 -146 27.5t-115.5 77t-76 117t-27.5 148.5t27.5 148.5t76 117t115.5 77t146 27.5q52 0 95 -11t77 -28.5t60 -40t45 -45.5q45 -55 68 -125h-90q-20 46 -54 82q-15 15 -34.5 30t-44.5 27t-55.5 19t-66.5 7q-60 0 -110.5 -20.5t-87 -58t-57 -90t-20.5 -116.5
t20.5 -116.5t57 -90t87 -58t110.5 -20.5q54 0 99.5 17.5t80 47t56 68.5t29.5 82h-135v85h310v-85h-85q-15 -66 -45.5 -121t-75.5 -94.5t-104 -62t-130 -22.5zM460 935h100v-1l-115 -144h-70z" />
    <glyph glyph-name="uni01F5" unicode="&#x1f5;" 
d="M110 -115h350v195h-1l-9.5 -14.5t-31 -31t-55.5 -30.5t-83 -14t-92.5 19.5t-76.5 54t-52 82.5t-19 104t19 104t52 82.5t76.5 54t92.5 19.5t83 -14t55.5 -30.5t31 -31l9.5 -14.5h1v80h80v-690h-430v75zM290 65q36 0 67 13.5t54 38t36 58.5t13 75t-13 75t-36 58.5t-54 38
t-67 13.5t-67 -13.5t-54 -38t-36 -58.5t-13 -75t13 -75t36 -58.5t54 -38t67 -13.5zM355 755h100v-1l-115 -144h-70z" />
    <glyph glyph-name="Aringacute" unicode="&#x1fa;" horiz-adv-x="675" 
d="M335 755q-45 0 -75 30t-30 75q0 42 26 70.5t66 33.5l38 66h80v-1l-59 -74q26 -12 42.5 -37.5t16.5 -57.5q0 -45 -30 -75t-75 -30zM335 805q26 0 40.5 16t14.5 39t-14.5 39t-40.5 16t-40.5 -16t-14.5 -39t14.5 -39t40.5 -16zM200 700h275l180 -700h-90l-55 205h-345
l-55 -205h-90zM490 290l-85 325h-135l-85 -325h305z" />
    <glyph glyph-name="aringacute" unicode="&#x1fb;" 
d="M300 580q-45 0 -75 30t-30 75q0 42 26 70.5t66 33.5l38 66h80v-1l-59 -74q26 -12 42.5 -37.5t16.5 -57.5q0 -45 -30 -75t-75 -30zM300 630q26 0 40.5 16t14.5 39t-14.5 39t-40.5 16t-40.5 -16t-14.5 -39t14.5 -39t40.5 -16zM280 -10q-49 0 -92.5 19.5t-76.5 54t-52 82.5
t-19 104t19 104t52 82.5t76.5 54t92.5 19.5t83 -14t55.5 -31t31 -31.5l9.5 -14.5h1v81h80v-500h-80v80h-1l-9.5 -14.5t-31 -31t-55.5 -30.5t-83 -14zM290 65q36 0 67 13.5t54 38t36 58.5t13 75t-13 75t-36 58.5t-54 38t-67 13.5t-67 -13.5t-54 -38t-36 -58.5t-13 -75t13 -75
t36 -58.5t54 -38t67 -13.5z" />
    <glyph glyph-name="AEacute" unicode="&#x1fc;" horiz-adv-x="980" 
d="M200 700h740v-85h-385v-220h310v-85h-310v-225h385v-85h-475v205h-300l-55 -205h-90zM465 290v325h-195l-85 -325h280zM575 935h100v-1l-115 -144h-70z" />
    <glyph glyph-name="aeacute" unicode="&#x1fd;" horiz-adv-x="955" 
d="M235 -10q-90 0 -137.5 43.5t-47.5 111.5q0 32 12.5 59.5t37 47.5t62 31.5t88.5 11.5h165v25q0 53 -32.5 84t-92.5 31q-43 0 -69.5 -13.5t-42.5 -29.5q-18 -18 -28 -42h-80q12 45 39 80q23 30 66.5 55t114.5 25q51 0 84.5 -15t53.5 -33q24 -21 37 -47h5q19 26 47 47
q24 18 60.5 33t87.5 15q52 0 98 -19.5t79.5 -53t53 -79.5t19.5 -98v-35h-420q4 -36 19 -65.5t38 -50.5t52 -32.5t61 -11.5q43 0 73 14t50 31q23 19 37 45h80q-17 -47 -50 -83q-28 -31 -74 -56.5t-116 -25.5q-55 0 -93.5 17.5t-63.5 39.5q-29 26 -48 58h-5q-18 -32 -48 -58
q-26 -22 -68 -39.5t-104 -17.5zM245 65q79 0 124.5 44t45.5 116h-175q-57 0 -83.5 -23t-26.5 -57q0 -38 29 -59t86 -21zM830 295q-4 28 -17.5 53.5t-35 44.5t-50 30.5t-62.5 11.5t-62.5 -11.5t-50.5 -30.5t-36 -44.5t-19 -53.5h333zM510 755h100v-1l-115 -144h-70z" />
    <glyph glyph-name="Oslashacute" unicode="&#x1fe;" horiz-adv-x="820" 
d="M410 -20q-83 0 -152 29.5t-118 83.5l-125 -98v90l83 65q-26 42 -39.5 92.5t-13.5 107.5q0 81 27.5 148.5t76 117t115.5 77t146 27.5q82 0 151 -30t119 -84l125 99v-90l-83 -65q26 -43 39.5 -93t13.5 -107q0 -81 -27.5 -148.5t-76.5 -117t-115.5 -77t-145.5 -27.5zM410 65
q60 0 110.5 20.5t87 58t57 90t20.5 116.5q0 41 -8.5 77t-24.5 68l-443 -348q37 -39 88 -60.5t113 -21.5zM611 552q-37 40 -88 61.5t-113 21.5q-60 0 -110.5 -20.5t-87 -58t-57 -90t-20.5 -116.5q0 -84 33 -145zM460 935h100v-1l-115 -144h-70z" />
    <glyph glyph-name="oslashacute" unicode="&#x1ff;" horiz-adv-x="600" 
d="M300 -10q-56 0 -102.5 19t-81.5 53l-86 -67v90l43 33q-16 29 -24.5 62t-8.5 70q0 56 19.5 104t54 82.5t82.5 54t104 19.5t102.5 -19t81.5 -53l86 67v-90l-43 -34q16 -29 24.5 -61.5t8.5 -69.5q0 -56 -19.5 -104t-54 -82.5t-82.5 -54t-104 -19.5zM300 65q39 0 72 13.5
t57 38t37.5 58.5t13.5 75q0 44 -16 82l-287 -222q50 -45 123 -45zM422 390q-48 45 -122 45q-39 0 -72 -13.5t-57 -38t-37.5 -58.5t-13.5 -75q0 -48 16 -83zM350 755h100v-1l-115 -144h-70z" />
    <glyph glyph-name="uni0218" unicode="&#x218;" horiz-adv-x="640" 
d="M330 -20q-48 0 -86 9.5t-67 25t-51 35t-37 40.5q-36 48 -49 110h90q10 -38 36 -68q22 -26 61 -46.5t103 -20.5q45 0 78 9.5t54.5 26t32 38.5t10.5 46q0 32 -18.5 53t-49.5 36t-70 26t-79.5 22.5t-79.5 26.5t-70 37t-49.5 54.5t-18.5 79.5q0 39 17.5 75.5t49.5 64t78.5 44
t104.5 16.5q44 0 79.5 -8.5t62.5 -22t47.5 -31.5t34.5 -36q33 -43 46 -97h-90q-9 30 -32 55q-20 20 -55 37.5t-93 17.5q-39 0 -69 -9.5t-50.5 -25.5t-30.5 -37t-10 -43q0 -41 32 -64.5t80.5 -40t105 -31t105 -38t80.5 -61.5t32 -100q0 -41 -17.5 -78.5t-51.5 -65.5
t-83 -44.5t-113 -16.5zM275 -260q30 4 45 17.5t15 32.5q0 4 -1 6.5t-2 4.5l-2 4q-2 -2 -4 -3q-6 -2 -11 -2q-19 0 -32 13.5t-13 36.5q0 19 14.5 34.5t40.5 15.5t43 -19t17 -61q0 -57 -28.5 -86.5t-81.5 -33.5v40z" />
    <glyph glyph-name="uni0219" unicode="&#x219;" horiz-adv-x="510" 
d="M265 -10q-37 0 -66 7t-52 18.5t-40.5 26.5t-29.5 30q-29 36 -42 83h85q10 -26 29 -45q17 -17 44.5 -31t71.5 -14q68 0 96.5 22.5t28.5 52.5q0 26 -24.5 40t-61 24t-79.5 19t-79.5 26t-61 45t-24.5 76q0 28 12 53.5t36 44.5t59.5 30.5t82.5 11.5q35 0 62.5 -6.5t49 -17
t37.5 -24t28 -27.5q26 -33 38 -75h-85q-9 20 -26 37q-14 14 -39.5 26t-64.5 12q-28 0 -49 -6t-34.5 -15.5t-20 -21t-6.5 -22.5q0 -26 24.5 -40t61 -24t79.5 -19t79.5 -26t61 -45.5t24.5 -75.5q0 -30 -13 -57t-39 -48t-64 -33t-89 -12zM205 -260q30 4 45 17.5t15 32.5
q0 4 -1 6.5t-2 4.5l-2 4q-2 -2 -4 -3q-6 -2 -11 -2q-19 0 -32 13.5t-13 36.5q0 19 14.5 34.5t40.5 15.5t43 -19t17 -61q0 -57 -28.5 -86.5t-81.5 -33.5v40z" />
    <glyph glyph-name="uni021A" unicode="&#x21a;" horiz-adv-x="590" 
d="M250 615h-240v85h570v-85h-240v-615h-90v615zM240 -260q30 4 45 17.5t15 32.5q0 4 -1 6.5t-2 4.5l-2 4q-2 -2 -4 -3q-6 -2 -11 -2q-19 0 -32 13.5t-13 36.5q0 19 14.5 34.5t40.5 15.5t43 -19t17 -61q0 -57 -28.5 -86.5t-81.5 -33.5v40z" />
    <glyph glyph-name="uni021B" unicode="&#x21b;" horiz-adv-x="365" 
d="M90 425h-65v75h65v110h80v-110h160v-75h-160v-350h165v-75h-245v425zM165 -260q30 4 45 17.5t15 32.5q0 4 -1 6.5t-2 4.5l-2 4q-2 -2 -4 -3q-6 -2 -11 -2q-19 0 -32 13.5t-13 36.5q0 19 14.5 34.5t40.5 15.5t43 -19t17 -61q0 -57 -28.5 -86.5t-81.5 -33.5v40z" />
    <glyph glyph-name="uni0232" unicode="&#x232;" horiz-adv-x="640" 
d="M275 255l-270 445h105l205 -340h10l205 340h105l-270 -445v-255h-90v255zM185 900h270v-70h-270v70z" />
    <glyph glyph-name="uni0233" unicode="&#x233;" horiz-adv-x="505" 
d="M270 0h-115l-135 500h85l110 -425h75l130 425h85l-210 -690h-85zM130 720h270v-70h-270v70z" />
    <glyph glyph-name="uni0244" unicode="&#x244;" horiz-adv-x="720" 
d="M360 -20q-62 0 -112.5 20t-86.5 57t-56 89.5t-20 118.5v125h-75v70h75v240h90v-240h370v240h90v-240h75v-70h-75v-125q0 -66 -20 -118.5t-56 -89.5t-86.5 -57t-112.5 -20zM360 65q41 0 75 13.5t58.5 39.5t38 63t13.5 84v125h-370v-125q0 -47 13.5 -84t38 -63t58.5 -39.5
t75 -13.5z" />
    <glyph glyph-name="uni0259" unicode="&#x259;" horiz-adv-x="580" 
d="M285 -10q-49 0 -93.5 17.5t-78 49.5t-53.5 78.5t-20 104.5v45h418q-5 34 -20 61.5t-37 47t-50.5 30.5t-60.5 11q-57 0 -94.5 -23t-60.5 -57h-80q30 79 93 117t142 38q52 0 98 -19.5t79.5 -54t53 -82.5t19.5 -104t-19.5 -104t-53.5 -82.5t-81 -54t-101 -19.5zM285 65
q72 0 115.5 41t57.5 109h-338q8 -68 50.5 -109t114.5 -41z" />
    <glyph glyph-name="uni0289" unicode="&#x289;" 
d="M280 -10q-45 0 -82 14.5t-63 42.5t-40.5 67.5t-14.5 90.5v75h-70v70h70v150h80v-150h290v150h80v-150h70v-70h-70v-280h-80v75h-1q-16 -25 -40 -43q-20 -16 -52 -29t-77 -13zM295 65q34 0 62.5 11.5t49 33.5t32 52t11.5 68v50h-290v-70q0 -75 37.5 -110t97.5 -35z" />
    <glyph glyph-name="uni02BC" unicode="&#x2bc;" horiz-adv-x="175" 
d="M35 540q30 4 45 17.5t15 32.5q0 4 -1 6.5t-2 4.5l-2 4q-2 -2 -4 -3q-6 -2 -11 -2q-19 0 -32 13.5t-13 36.5q0 19 14.5 34.5t40.5 15.5t43 -19t17 -61q0 -57 -28.5 -86.5t-81.5 -33.5v40z" />
    <glyph glyph-name="circumflex" unicode="&#x2c6;" horiz-adv-x="370" 
d="M30 611l110 144h90l110 -144v-1h-85l-65 90h-10l-65 -90h-85v1z" />
    <glyph glyph-name="caron" unicode="&#x2c7;" horiz-adv-x="370" 
d="M30 754v1h85l65 -90h10l65 90h85v-1l-110 -144h-90z" />
    <glyph glyph-name="breve" unicode="&#x2d8;" horiz-adv-x="350" 
d="M175 620q-68 0 -106.5 36t-38.5 89h70q0 -30 18.5 -47.5t56.5 -17.5t56.5 17.5t18.5 47.5h70q0 -53 -38.5 -89t-106.5 -36z" />
    <glyph glyph-name="dotaccent" unicode="&#x2d9;" horiz-adv-x="170" 
d="M85 625q-23 0 -39 16t-16 39t16 39t39 16t39 -16t16 -39t-16 -39t-39 -16z" />
    <glyph glyph-name="ring" unicode="&#x2da;" horiz-adv-x="270" 
d="M135 575q-45 0 -75 30t-30 75t30 75t75 30t75 -30t30 -75t-30 -75t-75 -30zM135 625q26 0 40.5 16t14.5 39t-14.5 39t-40.5 16t-40.5 -16t-14.5 -39t14.5 -39t40.5 -16z" />
    <glyph glyph-name="ogonek" unicode="&#x2db;" horiz-adv-x="240" 
d="M135 -230q-49 0 -77 26.5t-28 68.5q0 32 17.5 57t39.5 42q26 20 58 36h65q-34 -17 -60 -37q-23 -17 -41.5 -41t-18.5 -52q0 -19 13.5 -32t36.5 -13q13 0 25.5 3t22.5 7q11 4 22 10v-55q-10 -6 -21 -10q-10 -4 -23.5 -7t-30.5 -3z" />
    <glyph glyph-name="tilde" unicode="&#x2dc;" horiz-adv-x="380" 
d="M255 620q-26 0 -44 9.5t-32 20.5t-26.5 20.5t-27.5 9.5q-30 0 -30 -30v-25h-65v28q0 39 26.5 65.5t68.5 26.5q26 0 44 -9.5t32 -20.5t26.5 -20.5t27.5 -9.5q30 0 30 30v25h65v-28q0 -39 -26.5 -65.5t-68.5 -26.5z" />
    <glyph glyph-name="hungarumlaut" unicode="&#x2dd;" horiz-adv-x="370" 
d="M100 755h90v-1l-100 -144h-60zM250 755h90v-1l-100 -144h-60z" />
    <glyph glyph-name="gravecomb" unicode="&#x300;" horiz-adv-x="245" 
d="M-285 902l65 -115h-55l-90 114v1h80z" />
    <glyph glyph-name="acutecomb" unicode="&#x301;" horiz-adv-x="0" 
d="M-300 906h80v-1l-90 -114h-55z" />
    <glyph glyph-name="tildecomb" unicode="&#x303;" horiz-adv-x="380" 
d="M255 620q-26 0 -44 9.5t-32 20.5t-26.5 20.5t-27.5 9.5q-30 0 -30 -30v-25h-65v28q0 39 26.5 65.5t68.5 26.5q26 0 44 -9.5t32 -20.5t26.5 -20.5t27.5 -9.5q30 0 30 30v25h65v-28q0 -39 -26.5 -65.5t-68.5 -26.5z" />
    <glyph glyph-name="hookabovecomb" unicode="&#x309;" horiz-adv-x="333" 
d="M113 747q25 2 37 9t12 28q0 3 -4 9t-14 6q-7 0 -17.5 -7t-18.5 -27l-57 31q22 44 45.5 57t50.5 13q38 0 62.5 -23t23.5 -58q-2 -35 -17.5 -53t-35.5 -26l-3 -32h-57z" />
    <glyph glyph-name="uni030A" unicode="&#x30a;" horiz-adv-x="0" 
d="M-350 745q-45 0 -75 30t-30 75t30 75t75 30t75 -30t30 -75t-30 -75t-75 -30zM-350 795q26 0 40.5 16t14.5 39t-14.5 39t-40.5 16t-40.5 -16t-14.5 -39t14.5 -39t40.5 -16z" />
    <glyph glyph-name="uni031B" unicode="&#x31b;" horiz-adv-x="333" 
d="M98 602q27 14 27 50v33h88v-35q3 -105 -76 -136h-39v88z" />
    <glyph glyph-name="dotbelowcomb" unicode="&#x323;" horiz-adv-x="170" 
d="M85 625q-23 0 -39 16t-16 39t16 39t39 16t39 -16t16 -39t-16 -39t-39 -16z" />
    <glyph glyph-name="uni0401" unicode="&#x401;" 
d="M80 700h490v-85h-400v-220h325v-85h-325v-225h400v-85h-490v700zM235 805q-23 0 -39 16t-16 39t16 39t39 16t39 -16t16 -39t-16 -39t-39 -16zM415 805q-23 0 -39 16t-16 39t16 39t39 16t39 -16t16 -39t-16 -39t-39 -16z" />
    <glyph glyph-name="uni0402" unicode="&#x402;" horiz-adv-x="785" 
d="M505 -15h135v200q0 72 -43 113.5t-122 41.5h-175v-340h-90v615h-210v85h525v-85h-225v-190h175q58 0 105 -18t80.5 -49.5t51.5 -76t18 -96.5v-285h-225v85z" />
    <glyph glyph-name="uni0403" unicode="&#x403;" horiz-adv-x="545" 
d="M80 700h445v-85h-355v-615h-90v700zM350 935h100v-1l-115 -144h-70z" />
    <glyph glyph-name="uni0404" unicode="&#x404;" horiz-adv-x="800" 
d="M410 -20q-79 0 -146 27.5t-115.5 77t-76 117t-27.5 148.5t27.5 148.5t76 117t115.5 77t146 27.5q53 0 96 -11t77.5 -29t60.5 -41t45 -47q45 -56 66 -127h-90q-19 47 -53 85q-15 16 -34 31t-44 27t-56 19.5t-68 7.5q-56 0 -103 -18.5t-82.5 -51t-57 -76t-27.5 -94.5h300
v-85h-300q6 -53 27.5 -97.5t57 -77.5t82.5 -51.5t103 -18.5q38 0 70 8t57.5 21t45 29.5t34.5 33.5q34 40 53 93h90q-24 -76 -70 -135q-20 -26 -46.5 -50t-61 -43t-77.5 -30.5t-95 -11.5z" />
    <glyph glyph-name="uni0405" unicode="&#x405;" horiz-adv-x="640" 
d="M330 -20q-48 0 -86 9.5t-67 25t-51 35t-37 40.5q-36 48 -49 110h90q10 -38 36 -68q22 -26 61 -46.5t103 -20.5q45 0 78 9.5t54.5 26t32 38.5t10.5 46q0 32 -18.5 53t-49.5 36t-70 26t-79.5 22.5t-79.5 26.5t-70 37t-49.5 54.5t-18.5 79.5q0 39 17.5 75.5t49.5 64t78.5 44
t104.5 16.5q44 0 79.5 -8.5t62.5 -22t47.5 -31.5t34.5 -36q33 -43 46 -97h-90q-9 30 -32 55q-20 20 -55 37.5t-93 17.5q-39 0 -69 -9.5t-50.5 -25.5t-30.5 -37t-10 -43q0 -41 32 -64.5t80.5 -40t105 -31t105 -38t80.5 -61.5t32 -100q0 -41 -17.5 -78.5t-51.5 -65.5
t-83 -44.5t-113 -16.5z" />
    <glyph glyph-name="uni0406" unicode="&#x406;" horiz-adv-x="250" 
d="M80 700h90v-700h-90v700z" />
    <glyph glyph-name="uni0407" unicode="&#x407;" horiz-adv-x="250" 
d="M80 700h90v-700h-90v700zM35 805q-23 0 -39 16t-16 39t16 39t39 16t39 -16t16 -39t-16 -39t-39 -16zM215 805q-23 0 -39 16t-16 39t16 39t39 16t39 -16t16 -39t-16 -39t-39 -16z" />
    <glyph glyph-name="uni0408" unicode="&#x408;" horiz-adv-x="550" 
d="M235 -25q-37 0 -66.5 7.5t-53 20.5t-41 29t-30.5 33q-30 40 -44 90l90 20q9 -32 27 -58q16 -22 44.5 -39.5t73.5 -17.5q68 0 106.5 40.5t38.5 119.5v480h90v-480q0 -117 -63 -181t-172 -64z" />
    <glyph glyph-name="uni0409" unicode="&#x409;" horiz-adv-x="1050" 
d="M195 700h375v-240h190q60 0 108 -17.5t82 -48.5t52 -73t18 -91t-18 -91t-52 -73t-82 -48.5t-108 -17.5h-280v615h-220l-150 -615h-90zM760 85q83 0 126.5 40.5t43.5 104.5t-43.5 104.5t-126.5 40.5h-190v-290h190z" />
    <glyph glyph-name="uni040A" unicode="&#x40a;" horiz-adv-x="1110" 
d="M80 700h90v-270h365v270h90v-270h205q60 0 106.5 -16t78.5 -44.5t48.5 -68t16.5 -86.5t-16.5 -86.5t-48.5 -68t-78.5 -44.5t-106.5 -16h-295v345h-365v-345h-90v700zM830 85q83 0 121.5 35t38.5 95t-38.5 95t-121.5 35h-205v-260h205z" />
    <glyph glyph-name="uni040B" unicode="&#x40b;" horiz-adv-x="785" 
d="M210 615h-210v85h525v-85h-225v-190h175q58 0 105 -18t80.5 -49.5t51.5 -76t18 -96.5v-185h-90v185q0 72 -43 113.5t-122 41.5h-175v-340h-90v615z" />
    <glyph glyph-name="uni040C" unicode="&#x40c;" horiz-adv-x="650" 
d="M80 700h90v-305h135l220 305h105l-245 -340l255 -360h-110l-220 310h-140v-310h-90v700zM390 935h100v-1l-115 -144h-70z" />
    <glyph glyph-name="uni040E" unicode="&#x40e;" horiz-adv-x="595" 
d="M335 265h-160l-170 435h95l135 -350h135l135 350h95l-280 -700h-95zM305 785q-75 0 -117.5 40t-42.5 100h80q0 -34 21 -54.5t59 -20.5t59 20.5t21 54.5h80q0 -60 -42.5 -100t-117.5 -40z" />
    <glyph glyph-name="uni040F" unicode="&#x40f;" horiz-adv-x="710" 
d="M310 0h-230v700h90v-615h370v615h90v-700h-230v-135h-90v135z" />
    <glyph glyph-name="uni0410" unicode="&#x410;" horiz-adv-x="675" 
d="M200 700h275l180 -700h-90l-55 205h-345l-55 -205h-90zM490 290l-85 325h-135l-85 -325h305z" />
    <glyph glyph-name="uni0411" unicode="&#x411;" horiz-adv-x="675" 
d="M80 700h495v-85h-405v-185h205q60 0 106.5 -16t78.5 -44.5t48.5 -68t16.5 -86.5t-16.5 -86.5t-48.5 -68t-78.5 -44.5t-106.5 -16h-295v700zM375 85q79 0 119.5 36.5t40.5 93.5t-40.5 93.5t-119.5 36.5h-205v-260h205z" />
    <glyph glyph-name="uni0412" unicode="&#x412;" horiz-adv-x="700" 
d="M80 700h335q47 0 85 -14t64.5 -38.5t41 -57.5t14.5 -70q0 -45 -15.5 -74t-34.5 -46q-22 -20 -50 -30v-5q36 -8 65 -28q24 -17 44.5 -50t20.5 -87q0 -43 -15.5 -79.5t-46 -63.5t-75.5 -42t-103 -15h-330v700zM410 85q75 0 112.5 33t37.5 82q0 53 -37.5 86.5t-112.5 33.5
h-240v-235h240zM410 405q57 0 88.5 30t31.5 75t-31.5 75t-88.5 30h-240v-210h240z" />
    <glyph glyph-name="uni0413" unicode="&#x413;" horiz-adv-x="545" 
d="M80 700h445v-85h-355v-615h-90v700z" />
    <glyph glyph-name="uni0414" unicode="&#x414;" horiz-adv-x="745" 
d="M5 85h80l155 615h265l155 -615h80v-220h-90v135h-555v-135h-90v220zM570 85l-135 530h-125l-135 -530h395z" />
    <glyph glyph-name="uni0415" unicode="&#x415;" 
d="M80 700h490v-85h-400v-220h325v-85h-325v-225h400v-85h-490v700z" />
    <glyph glyph-name="uni0416" unicode="&#x416;" horiz-adv-x="990" 
d="M265 360l-245 340h105l220 -305h105v305h90v-305h105l220 305h105l-245 -340l255 -360h-110l-220 310h-110v-310h-90v310h-110l-220 -310h-110z" />
    <glyph glyph-name="uni0417" unicode="&#x417;" horiz-adv-x="635" 
d="M320 -20q-48 0 -86 9.5t-67.5 25t-51.5 35t-38 40.5q-37 48 -52 110h90q13 -38 39 -68q23 -26 62.5 -46.5t103.5 -20.5q90 0 132.5 36t42.5 89q0 26 -10.5 49t-32 40t-54.5 26.5t-78 9.5h-90v85h90q37 0 66 9.5t48.5 26t30 38.5t10.5 46q0 22 -10 43t-30 37t-49 25.5
t-66 9.5q-57 0 -93 -18.5t-56 -41.5q-25 -26 -36 -60h-90q16 57 51 102q15 19 35.5 37.5t48 33t62.5 23.5t78 9q58 0 103.5 -16t77 -43t48 -63.5t16.5 -77.5q0 -45 -17.5 -75t-37.5 -48q-25 -21 -55 -32v-5q36 -11 65 -33q24 -19 44.5 -51.5t20.5 -85.5q0 -43 -17.5 -81.5
t-51.5 -67t-83 -45t-113 -16.5z" />
    <glyph glyph-name="uni0418" unicode="&#x418;" horiz-adv-x="725" 
d="M80 700h90v-575l-1 -10h2l354 585h120v-700h-90v575l1 10h-2l-354 -585h-120v700z" />
    <glyph glyph-name="uni0419" unicode="&#x419;" horiz-adv-x="725" 
d="M80 700h90v-575l-1 -10h2l354 585h120v-700h-90v575l1 10h-2l-354 -585h-120v700zM365 785q-75 0 -117.5 40t-42.5 100h80q0 -34 21 -54.5t59 -20.5t59 20.5t21 54.5h80q0 -60 -42.5 -100t-117.5 -40z" />
    <glyph glyph-name="uni041A" unicode="&#x41a;" horiz-adv-x="650" 
d="M80 700h90v-305h135l220 305h105l-245 -340l255 -360h-110l-220 310h-140v-310h-90v700z" />
    <glyph glyph-name="uni041B" unicode="&#x41b;" horiz-adv-x="660" 
d="M200 700h260l180 -700h-90l-160 615h-120l-160 -615h-90z" />
    <glyph glyph-name="uni041C" unicode="&#x41c;" horiz-adv-x="915" 
d="M80 700h145l210 -450h45l210 450h145v-700h-90v600l1 10h-2l-204 -440h-165l-204 440h-2l1 -10v-600h-90v700z" />
    <glyph glyph-name="uni041D" unicode="&#x41d;" horiz-adv-x="715" 
d="M80 700h90v-305h375v305h90v-700h-90v310h-375v-310h-90v700z" />
    <glyph glyph-name="uni041E" unicode="&#x41e;" horiz-adv-x="820" 
d="M410 -20q-79 0 -146 27.5t-115.5 77t-76 117t-27.5 148.5t27.5 148.5t76 117t115.5 77t146 27.5t145.5 -27.5t115.5 -77t76.5 -117t27.5 -148.5t-27.5 -148.5t-76.5 -117t-115.5 -77t-145.5 -27.5zM410 65q60 0 110.5 20.5t87 58t57 90t20.5 116.5t-20.5 116.5t-57 90
t-87 58t-110.5 20.5t-110.5 -20.5t-87 -58t-57 -90t-20.5 -116.5t20.5 -116.5t57 -90t87 -58t110.5 -20.5z" />
    <glyph glyph-name="uni041F" unicode="&#x41f;" horiz-adv-x="715" 
d="M80 700h555v-700h-90v615h-375v-615h-90v700z" />
    <glyph glyph-name="uni0420" unicode="&#x420;" horiz-adv-x="670" 
d="M80 700h295q60 0 108 -17.5t82 -48.5t52 -73t18 -91t-18 -91t-52 -73t-82 -48.5t-108 -17.5h-205v-240h-90v700zM375 325q83 0 126.5 40.5t43.5 104.5t-43.5 104.5t-126.5 40.5h-205v-290h205z" />
    <glyph glyph-name="uni0421" unicode="&#x421;" horiz-adv-x="800" 
d="M410 -20q-79 0 -146 27.5t-115.5 77t-76 117t-27.5 148.5t27.5 148.5t76 117t115.5 77t146 27.5q53 0 96 -11t77.5 -29t60.5 -41t45 -47q45 -56 66 -127h-90q-19 47 -53 85q-15 16 -34 31t-44 27t-56 19.5t-68 7.5q-60 0 -110.5 -20.5t-87 -58t-57 -90t-20.5 -116.5
t20.5 -116.5t57 -90t87 -58t110.5 -20.5q38 0 70 8t57.5 21t45 29.5t34.5 33.5q34 40 53 93h90q-24 -76 -70 -135q-20 -26 -46.5 -50t-61 -43t-77.5 -30.5t-95 -11.5z" />
    <glyph glyph-name="uni0422" unicode="&#x422;" horiz-adv-x="590" 
d="M250 615h-240v85h570v-85h-240v-615h-90v615z" />
    <glyph glyph-name="uni0423" unicode="&#x423;" horiz-adv-x="595" 
d="M335 265h-160l-170 435h95l135 -350h135l135 350h95l-280 -700h-95z" />
    <glyph glyph-name="uni0424" unicode="&#x424;" horiz-adv-x="880" 
d="M395 45q-81 0 -146.5 24.5t-112 66.5t-71.5 98.5t-25 120.5t25 120.5t71.5 98.5t112 66.5t146.5 24.5v80h90v-80q81 0 146.5 -24.5t112 -66.5t71.5 -98.5t25 -120.5t-25 -120.5t-71.5 -98.5t-112 -66.5t-146.5 -24.5v-80h-90v80zM395 585q-62 0 -111 -17.5t-83.5 -48.5
t-52.5 -73t-18 -91t18 -91t52.5 -73t83.5 -48.5t111 -17.5v460zM485 125q62 0 111 17.5t83.5 48.5t52.5 73t18 91t-18 91t-52.5 73t-83.5 48.5t-111 17.5v-460z" />
    <glyph glyph-name="uni0425" unicode="&#x425;" horiz-adv-x="630" 
d="M205 345l-175 355h95l155 -310h70l155 310h95l-175 -355l185 -345h-95l-165 305h-70l-165 -305h-95z" />
    <glyph glyph-name="uni0426" unicode="&#x426;" horiz-adv-x="720" 
d="M610 0h-530v700h90v-615h345v615h90v-615h95v-220h-90v135z" />
    <glyph glyph-name="uni0427" unicode="&#x427;" horiz-adv-x="670" 
d="M500 280q-23 -16 -53 -28q-26 -11 -63 -19t-84 -8q-109 0 -172 63.5t-63 176.5v235h90v-235q0 -75 43 -117.5t122 -42.5q43 0 76.5 8t56.5 19q27 12 47 28v340h90v-700h-90v280z" />
    <glyph glyph-name="uni0428" unicode="&#x428;" horiz-adv-x="990" 
d="M80 700h90v-615h280v615h90v-615h280v615h90v-700h-830v700z" />
    <glyph glyph-name="uni0429" unicode="&#x429;" horiz-adv-x="1025" 
d="M915 0h-835v700h90v-615h280v615h90v-615h280v615h90v-615h95v-220h-90v135z" />
    <glyph glyph-name="uni042A" unicode="&#x42a;" horiz-adv-x="730" 
d="M155 615h-155v85h245v-240h195q60 0 108 -17.5t82 -48.5t52 -73t18 -91t-18 -91t-52 -73t-82 -48.5t-108 -17.5h-285v615zM440 85q83 0 126.5 40.5t43.5 104.5t-43.5 104.5t-126.5 40.5h-195v-290h195z" />
    <glyph glyph-name="uni042B" unicode="&#x42b;" horiz-adv-x="870" 
d="M80 700h90v-240h180q60 0 108 -17.5t82 -48.5t52 -73t18 -91t-18 -91t-52 -73t-82 -48.5t-108 -17.5h-270v700zM350 85q83 0 126.5 40.5t43.5 104.5t-43.5 104.5t-126.5 40.5h-180v-290h180zM700 700h90v-700h-90v700z" />
    <glyph glyph-name="uni042C" unicode="&#x42c;" horiz-adv-x="665" 
d="M80 700h90v-240h205q60 0 108 -17.5t82 -48.5t52 -73t18 -91t-18 -91t-52 -73t-82 -48.5t-108 -17.5h-295v700zM375 85q83 0 126.5 40.5t43.5 104.5t-43.5 104.5t-126.5 40.5h-205v-290h205z" />
    <glyph glyph-name="uni042D" unicode="&#x42d;" horiz-adv-x="795" 
d="M385 -20q-53 0 -96 11.5t-77.5 30.5t-61 43t-45.5 50q-47 59 -70 135h90q19 -53 53 -93q15 -17 34.5 -33.5t45 -29.5t57 -21t70.5 -8q56 0 103 18.5t82.5 51.5t57 77.5t27.5 97.5h-300v85h300q-6 51 -27.5 94.5t-57 76t-82.5 51t-103 18.5q-38 0 -68.5 -7.5t-55.5 -19.5
t-44.5 -27t-34.5 -31q-34 -38 -52 -85h-90q21 71 66 127q19 24 45 47t60 41t77 29t97 11q79 0 145.5 -27.5t115.5 -77t76.5 -117t27.5 -148.5t-27.5 -148.5t-76.5 -117t-115.5 -77t-145.5 -27.5z" />
    <glyph glyph-name="uni042E" unicode="&#x42e;" horiz-adv-x="1030" 
d="M630 -20q-71 0 -132.5 25t-108.5 69t-77 104.5t-37 131.5h-105v-310h-90v700h90v-305h105q9 69 39 128.5t76.5 103t107.5 68.5t132 25q75 0 140 -27.5t112.5 -77t75 -117t27.5 -148.5t-27.5 -148.5t-75 -117t-112.5 -77t-140 -27.5zM630 65q56 0 104.5 20.5t84 58t56 90
t20.5 116.5t-20.5 116.5t-56 90t-84 58t-104.5 20.5t-104.5 -20.5t-84 -58t-56 -90t-20.5 -116.5t20.5 -116.5t56 -90t84 -58t104.5 -20.5z" />
    <glyph glyph-name="uni042F" unicode="&#x42f;" horiz-adv-x="685" 
d="M220 270q-75 23 -122.5 75t-47.5 135q0 47 17.5 87t50 69.5t80 46.5t107.5 17h300v-700h-90v260h-200l-155 -260h-105zM515 345v270h-210q-83 0 -124 -37.5t-41 -97.5t41 -97.5t124 -37.5h210z" />
    <glyph glyph-name="uni0430" unicode="&#x430;" 
d="M280 -10q-49 0 -92.5 19.5t-76.5 54t-52 82.5t-19 104t19 104t52 82.5t76.5 54t92.5 19.5t83 -14t55.5 -31t31 -31.5l9.5 -14.5h1v81h80v-500h-80v80h-1l-9.5 -14.5t-31 -31t-55.5 -30.5t-83 -14zM290 65q36 0 67 13.5t54 38t36 58.5t13 75t-13 75t-36 58.5t-54 38
t-67 13.5t-67 -13.5t-54 -38t-36 -58.5t-13 -75t13 -75t36 -58.5t54 -38t67 -13.5z" />
    <glyph glyph-name="uni0431" unicode="&#x431;" horiz-adv-x="560" 
d="M285 -10q-54 0 -99.5 18.5t-77.5 54t-50 87.5t-18 120q0 116 22 198t64 133.5t103.5 75t140.5 23.5h120v-85h-120q-60 0 -104 -13.5t-74 -42t-47.5 -73t-24.5 -106.5h1q15 22 40 40q21 15 53.5 27.5t80.5 12.5q51 0 94 -17.5t74.5 -49t49 -74.5t17.5 -94t-18 -94
t-50 -74.5t-77.5 -49t-99.5 -17.5zM285 65q36 0 66 12.5t52 34t34.5 50.5t12.5 63t-12.5 63t-34.5 50.5t-52 34t-66 12.5t-66 -12.5t-52 -34t-34.5 -50.5t-12.5 -63t12.5 -63t34.5 -50.5t52 -34t66 -12.5z" />
    <glyph glyph-name="uni0432" unicode="&#x432;" horiz-adv-x="525" 
d="M70 500h245q72 0 111 -36t39 -89q0 -34 -10.5 -55t-24 -33t-25.5 -16.5t-15 -4.5v-1q2 0 17 -4.5t32.5 -17.5t31.5 -36.5t14 -61.5q0 -64 -43.5 -104.5t-125.5 -40.5h-246v500zM315 75q45 0 67.5 20.5t22.5 54.5t-22.5 54.5t-67.5 20.5h-165v-150h165zM310 295
q38 0 56.5 17.5t18.5 47.5t-18.5 47.5t-56.5 17.5h-160v-130h160z" />
    <glyph glyph-name="uni0433" unicode="&#x433;" horiz-adv-x="425" 
d="M70 500h345v-75h-265v-425h-80v500z" />
    <glyph glyph-name="uni0434" unicode="&#x434;" horiz-adv-x="560" 
d="M5 75h55l115 425h210l115 -425h55v-190h-80v115h-390v-115h-80v190zM420 75l-95 350h-90l-95 -350h280z" />
    <glyph glyph-name="uni0435" unicode="&#x435;" horiz-adv-x="590" 
d="M295 -10q-54 0 -101 19.5t-81 54t-53.5 82.5t-19.5 104t19.5 104t53.5 82.5t81 54t101 19.5t101 -19.5t81 -53.5t53.5 -81t19.5 -101v-30h-430q4 -35 19 -64.5t38 -50.5t53.5 -33t64.5 -12q45 0 76 14t51 31q23 19 38 45h80q-18 -47 -51 -83q-29 -31 -76 -56.5
t-118 -25.5zM465 295q-4 28 -17.5 53.5t-35.5 44.5t-51.5 30.5t-65.5 11.5t-65.5 -11.5t-52 -30.5t-36.5 -44.5t-19 -53.5h343z" />
    <glyph glyph-name="uni0436" unicode="&#x436;" horiz-adv-x="780" 
d="M195 265l-175 235h95l150 -200h85v200h80v-200h85l150 200h95l-175 -235l190 -265h-100l-160 225h-85v-225h-80v225h-85l-160 -225h-100z" />
    <glyph glyph-name="uni0437" unicode="&#x437;" horiz-adv-x="485" 
d="M240 -10q-38 0 -67 7t-51.5 18.5t-39 26.5t-27.5 30q-26 36 -35 83h80q6 -26 23 -45q14 -17 41.5 -31t75.5 -14q64 0 94.5 25t30.5 55t-28 52.5t-92 22.5h-60v75h60q60 0 85 20t25 50q0 26 -27.5 48t-87.5 22q-40 0 -64 -12t-38 -26q-16 -17 -23 -37h-80q9 42 35 75
q11 14 26 27.5t36 24t47.5 17t60.5 6.5q49 0 85.5 -11.5t61 -30.5t36.5 -44.5t12 -53.5q0 -32 -12 -53t-27.5 -33.5t-29 -17.5t-16.5 -6v-1q2 0 17 -5t32.5 -18.5t31.5 -36.5t14 -59q0 -30 -13 -57t-39 -48t-64 -33t-89 -12z" />
    <glyph glyph-name="uni0438" unicode="&#x438;" horiz-adv-x="580" 
d="M70 500h80v-375l-1 -10h2l269 385h90v-500h-80v375l1 10h-2l-269 -385h-90v500z" />
    <glyph glyph-name="uni0439" unicode="&#x439;" horiz-adv-x="580" 
d="M70 500h80v-375l-1 -10h2l269 385h90v-500h-80v375l1 10h-2l-269 -385h-90v500zM290 620q-72 0 -111 36t-39 89h75q0 -26 18.5 -43t56.5 -17t56.5 17t18.5 43h75q0 -53 -39 -89t-111 -36z" />
    <glyph glyph-name="uni043A" unicode="&#x43a;" horiz-adv-x="525" 
d="M70 500h80v-200h100l160 200h95l-185 -235l200 -265h-100l-170 225h-100v-225h-80v500z" />
    <glyph glyph-name="uni043B" unicode="&#x43b;" horiz-adv-x="510" 
d="M150 500h210l140 -500h-85l-115 425h-90l-115 -425h-85z" />
    <glyph glyph-name="uni043C" unicode="&#x43c;" horiz-adv-x="705" 
d="M70 500h120l150 -310h25l150 310h120v-500h-80v400l1 10h-2l-149 -310h-105l-149 310h-2l1 -10v-400h-80v500z" />
    <glyph glyph-name="uni043D" unicode="&#x43d;" horiz-adv-x="580" 
d="M70 500h80v-205h280v205h80v-500h-80v220h-280v-220h-80v500z" />
    <glyph glyph-name="uni043E" unicode="&#x43e;" horiz-adv-x="600" 
d="M300 -10q-56 0 -104 19.5t-82.5 54t-54 82.5t-19.5 104t19.5 104t54 82.5t82.5 54t104 19.5t104 -19.5t82.5 -54t54 -82.5t19.5 -104t-19.5 -104t-54 -82.5t-82.5 -54t-104 -19.5zM300 65q39 0 72 13.5t57 38t37.5 58.5t13.5 75t-13.5 75t-37.5 58.5t-57 38t-72 13.5
t-72 -13.5t-57 -38t-37.5 -58.5t-13.5 -75t13.5 -75t37.5 -58.5t57 -38t72 -13.5z" />
    <glyph glyph-name="uni043F" unicode="&#x43f;" horiz-adv-x="575" 
d="M70 500h435v-500h-80v425h-275v-425h-80v500z" />
    <glyph glyph-name="uni0440" unicode="&#x440;" 
d="M70 500h80v-80h1l9.5 14.5t31 31t55.5 30.5t83 14t92.5 -19.5t76.5 -54t52 -82.5t19 -104t-19 -104t-52 -82.5t-76.5 -54t-92.5 -19.5t-83 14t-55.5 30.5t-31 31l-9.5 14.5h-1v-270h-80v690zM320 65q36 0 67 13.5t54 38t36 58.5t13 75t-13 75t-36 58.5t-54 38t-67 13.5
t-67 -13.5t-54 -38t-36 -58.5t-13 -75t13 -75t36 -58.5t54 -38t67 -13.5z" />
    <glyph glyph-name="uni0441" unicode="&#x441;" horiz-adv-x="565" 
d="M290 -10q-53 0 -98.5 19.5t-79 54t-53 82.5t-19.5 104t19.5 104t53 82.5t79 54t98.5 19.5q37 0 67.5 -7.5t54.5 -20t42 -28.5t31 -32q31 -39 45 -87h-80q-12 28 -33 50q-18 19 -49 34.5t-78 15.5q-36 0 -67 -13.5t-54 -38t-36 -58.5t-13 -75q0 -42 14 -76t37 -58
t54 -37.5t65 -13.5q49 0 80.5 17t50.5 38q22 24 34 55h80q-14 -53 -46 -93q-14 -17 -32 -33.5t-42.5 -29.5t-55.5 -21t-69 -8z" />
    <glyph glyph-name="uni0442" unicode="&#x442;" horiz-adv-x="440" 
d="M180 425h-175v75h430v-75h-175v-425h-80v425z" />
    <glyph glyph-name="uni0443" unicode="&#x443;" horiz-adv-x="505" 
d="M270 0h-115l-135 500h85l110 -425h75l130 425h85l-210 -690h-85z" />
    <glyph glyph-name="uni0444" unicode="&#x444;" horiz-adv-x="670" 
d="M295 -5q-56 4 -104 25t-82.5 55.5t-54 79t-19.5 95.5t19.5 95.5t54 79t82.5 55.5t104 25v195h80v-195q56 -4 104 -25t82.5 -55.5t54 -79t19.5 -95.5t-19.5 -95.5t-54 -79t-82.5 -55.5t-104 -25v-185h-80v185zM295 430q-39 -2 -72 -16t-57 -38t-37.5 -56.5t-13.5 -69.5
q0 -38 13.5 -70t37.5 -56t57 -38t72 -16v360zM375 70q39 2 72 16t57 38t37.5 56t13.5 70q0 37 -13.5 69.5t-37.5 56.5t-57 38t-72 16v-360z" />
    <glyph glyph-name="uni0445" unicode="&#x445;" horiz-adv-x="495" 
d="M160 255l-145 245h90l120 -205h45l120 205h90l-145 -245l150 -255h-90l-125 220h-45l-125 -220h-90z" />
    <glyph glyph-name="uni0446" unicode="&#x446;" horiz-adv-x="575" 
d="M480 0h-410v500h80v-425h260v425h80v-425h70v-190h-80v115z" />
    <glyph glyph-name="uni0447" unicode="&#x447;" horiz-adv-x="540" 
d="M390 185q-16 -11 -37 -20q-18 -8 -45.5 -14t-62.5 -6q-91 0 -140.5 47.5t-49.5 127.5v180h80v-175q0 -49 29 -77t86 -28q34 0 60 5t44 12q21 8 36 18v245h80v-500h-80v185z" />
    <glyph glyph-name="uni0448" unicode="&#x448;" horiz-adv-x="780" 
d="M70 500h80v-425h200v425h80v-425h200v425h80v-500h-640v500z" />
    <glyph glyph-name="uni0449" unicode="&#x449;" horiz-adv-x="795" 
d="M700 0h-630v500h80v-425h200v425h80v-425h200v425h80v-425h70v-190h-80v115z" />
    <glyph glyph-name="uni044A" unicode="&#x44a;" horiz-adv-x="535" 
d="M110 425h-110v75h190v-170h130q43 0 78 -13t60 -35.5t38.5 -52.5t13.5 -64t-13.5 -64t-38.5 -52.5t-60 -35.5t-78 -13h-210v425zM320 75q53 0 81.5 26t28.5 64t-28.5 64t-81.5 26h-130v-180h130z" />
    <glyph glyph-name="uni044B" unicode="&#x44b;" horiz-adv-x="675" 
d="M70 500h80v-170h120q43 0 78 -13t60 -35.5t38.5 -52.5t13.5 -64t-13.5 -64t-38.5 -52.5t-60 -35.5t-78 -13h-200v500zM270 75q53 0 81.5 26t28.5 64t-28.5 64t-81.5 26h-120v-180h120zM525 500h80v-500h-80v500z" />
    <glyph glyph-name="uni044C" unicode="&#x44c;" horiz-adv-x="505" 
d="M70 500h80v-170h140q43 0 78 -13t60 -35.5t38.5 -52.5t13.5 -64t-13.5 -64t-38.5 -52.5t-60 -35.5t-78 -13h-220v500zM290 75q53 0 81.5 26t28.5 64t-28.5 64t-81.5 26h-140v-180h140z" />
    <glyph glyph-name="uni044D" unicode="&#x44d;" horiz-adv-x="565" 
d="M275 -10q-39 0 -69.5 8t-55 21t-43 29.5t-31.5 33.5q-32 40 -46 93h80q12 -31 34 -55q19 -21 50.5 -38t80.5 -17q68 0 111 41t56 109h-207v75h206q-12 64 -55 104.5t-111 40.5q-48 0 -78.5 -15.5t-48.5 -34.5q-21 -22 -33 -50h-80q14 48 45 87q13 16 31 32t42 28.5t54 20
t68 7.5q52 0 98 -19.5t79.5 -54t53 -82.5t19.5 -104t-19.5 -104t-53 -82.5t-79.5 -54t-98 -19.5z" />
    <glyph glyph-name="uni044E" unicode="&#x44e;" horiz-adv-x="770" 
d="M480 -10q-49 0 -91 17t-75 47t-55 71t-29 90h-80v-215h-80v500h80v-210h80q9 49 31 89.5t54.5 69.5t74 45t90.5 16q52 0 98 -19.5t79.5 -54t53 -82.5t19.5 -104t-19.5 -104t-53 -82.5t-79.5 -54t-98 -19.5zM480 65q36 0 67 13.5t54 38t36 58.5t13 75t-13 75t-36 58.5
t-54 38t-67 13.5t-67 -13.5t-54 -38t-36 -58.5t-13 -75t13 -75t36 -58.5t54 -38t67 -13.5z" />
    <glyph glyph-name="uni044F" unicode="&#x44f;" horiz-adv-x="540" 
d="M150 180q-28 12 -50 32q-19 17 -34.5 45.5t-15.5 72.5q0 36 13.5 67t39 54t61 36t80.5 13h226v-500h-80v160h-160l-88 -160h-92zM390 235v190h-145q-57 0 -86 -26.5t-29 -68.5t29 -68.5t86 -26.5h145z" />
    <glyph glyph-name="uni0451" unicode="&#x451;" horiz-adv-x="590" 
d="M295 -10q-54 0 -101 19.5t-81 54t-53.5 82.5t-19.5 104t19.5 104t53.5 82.5t81 54t101 19.5t101 -19.5t81 -53.5t53.5 -81t19.5 -101v-30h-430q4 -35 19 -64.5t38 -50.5t53.5 -33t64.5 -12q45 0 76 14t51 31q23 19 38 45h80q-18 -47 -51 -83q-29 -31 -76 -56.5
t-118 -25.5zM465 295q-4 28 -17.5 53.5t-35.5 44.5t-51.5 30.5t-65.5 11.5t-65.5 -11.5t-52 -30.5t-36.5 -44.5t-19 -53.5h343zM205 625q-23 0 -39 16t-16 39t16 39t39 16t39 -16t16 -39t-16 -39t-39 -16zM385 625q-23 0 -39 16t-16 39t16 39t39 16t39 -16t16 -39t-16 -39
t-39 -16z" />
    <glyph glyph-name="uni0452" unicode="&#x452;" horiz-adv-x="585" 
d="M300 -115h150v325q0 75 -37.5 110t-97.5 35q-34 0 -62.5 -11.5t-49 -33.5t-32 -52.5t-11.5 -67.5v-190h-80v520h-65v75h65v105h80v-105h125v-75h-125v-175h1q15 24 39 42q20 16 52.5 29.5t77.5 13.5t82 -14.5t63 -42.5t40.5 -67.5t14.5 -90.5v-405h-230v75z" />
    <glyph glyph-name="uni0453" unicode="&#x453;" horiz-adv-x="425" 
d="M70 500h345v-75h-265v-425h-80v500zM295 755h100v-1l-115 -144h-70z" />
    <glyph glyph-name="uni0454" unicode="&#x454;" horiz-adv-x="565" 
d="M290 -10q-53 0 -98.5 19.5t-79 54t-53 82.5t-19.5 104t19.5 104t53 82.5t79 54t98.5 19.5q37 0 67.5 -7.5t54.5 -20t42 -28.5t31 -32q31 -39 45 -87h-80q-12 28 -33 50q-18 19 -49 34.5t-78 15.5q-68 0 -111 -40.5t-55 -104.5h206v-75h-207q13 -68 56 -109t111 -41
q49 0 80.5 17t50.5 38q22 24 34 55h80q-14 -53 -46 -93q-14 -17 -32 -33.5t-42.5 -29.5t-55.5 -21t-69 -8z" />
    <glyph glyph-name="uni0455" unicode="&#x455;" horiz-adv-x="510" 
d="M265 -10q-37 0 -66 7t-52 18.5t-40.5 26.5t-29.5 30q-29 36 -42 83h85q10 -26 29 -45q17 -17 44.5 -31t71.5 -14q68 0 96.5 22.5t28.5 52.5q0 26 -24.5 40t-61 24t-79.5 19t-79.5 26t-61 45t-24.5 76q0 28 12 53.5t36 44.5t59.5 30.5t82.5 11.5q35 0 62.5 -6.5t49 -17
t37.5 -24t28 -27.5q26 -33 38 -75h-85q-9 20 -26 37q-14 14 -39.5 26t-64.5 12q-28 0 -49 -6t-34.5 -15.5t-20 -21t-6.5 -22.5q0 -26 24.5 -40t61 -24t79.5 -19t79.5 -26t61 -45.5t24.5 -75.5q0 -30 -13 -57t-39 -48t-64 -33t-89 -12z" />
    <glyph glyph-name="uni0456" unicode="&#x456;" horiz-adv-x="220" 
d="M70 500h80v-500h-80v500zM110 550q-23 0 -39 16t-16 39t16 39t39 16t39 -16t16 -39t-16 -39t-39 -16z" />
    <glyph glyph-name="uni0457" unicode="&#x457;" horiz-adv-x="220" 
d="M70 500h80v-500h-80v500zM20 625q-23 0 -39 16t-16 39t16 39t39 16t39 -16t16 -39t-16 -39t-39 -16zM200 625q-23 0 -39 16t-16 39t16 39t39 16t39 -16t16 -39t-16 -39t-39 -16z" />
    <glyph glyph-name="uni0458" unicode="&#x458;" horiz-adv-x="220" 
d="M-75 -115h145v615h80v-690h-225v75zM110 551q-23 0 -39 16t-16 39t16 39t39 16t39 -16t16 -39t-16 -39t-39 -16z" />
    <glyph glyph-name="uni0459" unicode="&#x459;" horiz-adv-x="790" 
d="M150 500h295v-170h130q43 0 78 -13t60 -35.5t38.5 -52.5t13.5 -64t-13.5 -64t-38.5 -52.5t-60 -35.5t-78 -13h-210v425h-155l-115 -425h-85zM575 75q53 0 81.5 26t28.5 64t-28.5 64t-81.5 26h-130v-180h130z" />
    <glyph glyph-name="uni045A" unicode="&#x45a;" horiz-adv-x="845" 
d="M70 500h80v-190h270v190h80v-190h140q41 0 74.5 -12.5t57 -33.5t36 -49t12.5 -60t-12.5 -60t-36 -49t-57 -33.5t-74.5 -12.5h-220v235h-270v-235h-80v500zM640 75q49 0 74.5 23t25.5 57t-25.5 57t-74.5 23h-140v-160h140z" />
    <glyph glyph-name="uni045B" unicode="&#x45b;" horiz-adv-x="585" 
d="M80 520h-65v75h65v105h80v-105h125v-75h-125v-175h1q15 24 39 42q20 16 52.5 29.5t77.5 13.5t82 -14.5t63 -42.5t40.5 -67.5t14.5 -90.5v-215h-80v210q0 75 -37.5 110t-97.5 35q-34 0 -62.5 -11.5t-49 -33.5t-32 -52.5t-11.5 -67.5v-190h-80v520z" />
    <glyph glyph-name="uni045C" unicode="&#x45c;" horiz-adv-x="525" 
d="M70 500h80v-200h100l160 200h95l-185 -235l200 -265h-100l-170 225h-100v-225h-80v500zM325 755h100v-1l-115 -144h-70z" />
    <glyph glyph-name="uni045E" unicode="&#x45e;" horiz-adv-x="505" 
d="M270 0h-115l-135 500h85l110 -425h75l130 425h85l-210 -690h-85zM265 620q-72 0 -111 36t-39 89h75q0 -26 18.5 -43t56.5 -17t56.5 17t18.5 43h75q0 -53 -39 -89t-111 -36z" />
    <glyph glyph-name="uni045F" unicode="&#x45f;" horiz-adv-x="575" 
d="M250 0h-180v500h80v-425h275v425h80v-500h-175v-115h-80v115z" />
    <glyph glyph-name="uni0490" unicode="&#x490;" horiz-adv-x="545" 
d="M80 700h355v100h90v-185h-355v-615h-90v700z" />
    <glyph glyph-name="uni0491" unicode="&#x491;" horiz-adv-x="425" 
d="M70 500h265v90h80v-165h-265v-425h-80v500z" />
    <glyph glyph-name="uni04D8" unicode="&#x4d8;" horiz-adv-x="820" 
d="M410 -20q-77 0 -141 26.5t-110.5 73t-72.5 109.5t-26 136v65h622q-6 58 -30 103.5t-60 77t-83 48t-99 16.5q-87 0 -149.5 -40t-100.5 -115h-90q19 54 50.5 98.5t74.5 76t97 48.5t118 17q79 0 145.5 -27.5t115.5 -77t76.5 -117t27.5 -148.5t-27.5 -148.5t-76.5 -117
t-115.5 -77t-145.5 -27.5zM405 65q56 0 104 17.5t84.5 49.5t59.5 77t29 101h-532q4 -54 24.5 -99.5t54 -77.5t78.5 -50t98 -18z" />
    <glyph glyph-name="uni04D9" unicode="&#x4d9;" horiz-adv-x="580" 
d="M285 -10q-49 0 -93.5 17.5t-78 49.5t-53.5 78.5t-20 104.5v45h418q-5 34 -20 61.5t-37 47t-50.5 30.5t-60.5 11q-57 0 -94.5 -23t-60.5 -57h-80q30 79 93 117t142 38q52 0 98 -19.5t79.5 -54t53 -82.5t19.5 -104t-19.5 -104t-53.5 -82.5t-81 -54t-101 -19.5zM285 65
q72 0 115.5 41t57.5 109h-338q8 -68 50.5 -109t114.5 -41z" />
    <glyph glyph-name="Wgrave" unicode="&#x1e80;" horiz-adv-x="965" 
d="M30 700h95l130 -615h25l130 615h145l130 -615h25l130 615h95l-155 -700h-160l-125 615h-25l-125 -615h-160zM335 934v1h100l85 -145h-70z" />
    <glyph glyph-name="wgrave" unicode="&#x1e81;" horiz-adv-x="775" 
d="M30 500h85l90 -425h25l85 425h145l85 -425h25l90 425h85l-110 -500h-155l-85 425h-15l-85 -425h-155zM240 754v1h100l85 -145h-70z" />
    <glyph glyph-name="Wacute" unicode="&#x1e82;" horiz-adv-x="965" 
d="M30 700h95l130 -615h25l130 615h145l130 -615h25l130 615h95l-155 -700h-160l-125 615h-25l-125 -615h-160zM535 935h100v-1l-115 -144h-70z" />
    <glyph glyph-name="wacute" unicode="&#x1e83;" horiz-adv-x="775" 
d="M30 500h85l90 -425h25l85 425h145l85 -425h25l90 425h85l-110 -500h-155l-85 425h-15l-85 -425h-155zM435 755h100v-1l-115 -144h-70z" />
    <glyph glyph-name="Wdieresis" unicode="&#x1e84;" horiz-adv-x="965" 
d="M30 700h95l130 -615h25l130 615h145l130 -615h25l130 615h95l-155 -700h-160l-125 615h-25l-125 -615h-160zM395 805q-23 0 -39 16t-16 39t16 39t39 16t39 -16t16 -39t-16 -39t-39 -16zM575 805q-23 0 -39 16t-16 39t16 39t39 16t39 -16t16 -39t-16 -39t-39 -16z" />
    <glyph glyph-name="wdieresis" unicode="&#x1e85;" horiz-adv-x="775" 
d="M30 500h85l90 -425h25l85 425h145l85 -425h25l90 425h85l-110 -500h-155l-85 425h-15l-85 -425h-155zM300 625q-23 0 -39 16t-16 39t16 39t39 16t39 -16t16 -39t-16 -39t-39 -16zM480 625q-23 0 -39 16t-16 39t16 39t39 16t39 -16t16 -39t-16 -39t-39 -16z" />
    <glyph glyph-name="Germandbls" unicode="&#x1e9e;" horiz-adv-x="710" 
d="M75 460q0 54 17.5 98.5t52.5 76t86 48.5t119 17h260v-85l-160 -180v-5q58 -6 105 -30q19 -11 38 -26t34 -37t24 -51t9 -66q0 -49 -17 -89.5t-50.5 -69.5t-83.5 -45t-117 -16h-67v85h67q44 0 77.5 10.5t56 29t33.5 43t11 52.5q0 56 -42.5 93t-132.5 37h-55v85l160 180
h-150q-101 0 -143 -39t-42 -121v-455h-90v460z" />
    <glyph glyph-name="uni1EA0" unicode="&#x1ea0;" horiz-adv-x="675" 
d="M200 700h275l180 -700h-90l-55 205h-345l-55 -205h-90zM490 290l-85 325h-135l-85 -325h305zM338 -160q-23 0 -39 16t-16 39t16 39t39 16t39 -16t16 -39t-16 -39t-39 -16z" />
    <glyph glyph-name="uni1EA1" unicode="&#x1ea1;" 
d="M280 -10q-49 0 -92.5 19.5t-76.5 54t-52 82.5t-19 104t19 104t52 82.5t76.5 54t92.5 19.5t83 -14t55.5 -31t31 -31.5l9.5 -14.5h1v81h80v-500h-80v80h-1l-9.5 -14.5t-31 -31t-55.5 -30.5t-83 -14zM290 65q36 0 67 13.5t54 38t36 58.5t13 75t-13 75t-36 58.5t-54 38
t-67 13.5t-67 -13.5t-54 -38t-36 -58.5t-13 -75t13 -75t36 -58.5t54 -38t67 -13.5zM290 -162q-23 0 -39 16t-16 39t16 39t39 16t39 -16t16 -39t-16 -39t-39 -16z" />
    <glyph glyph-name="uni1EA2" unicode="&#x1ea2;" horiz-adv-x="675" 
d="M200 700h275l180 -700h-90l-55 205h-345l-55 -205h-90zM490 290l-85 325h-135l-85 -325h305zM308 825q25 2 37 9t12 28q0 3 -4 9t-14 6q-7 0 -17.5 -7t-18.5 -27l-57 31q22 44 45.5 57t50.5 13q38 0 62.5 -23t23.5 -58q-2 -35 -17.5 -53t-35.5 -26l-3 -32h-57z" />
    <glyph glyph-name="uni1EA3" unicode="&#x1ea3;" 
d="M280 -10q-49 0 -92.5 19.5t-76.5 54t-52 82.5t-19 104t19 104t52 82.5t76.5 54t92.5 19.5t83 -14t55.5 -31t31 -31.5l9.5 -14.5h1v81h80v-500h-80v80h-1l-9.5 -14.5t-31 -31t-55.5 -30.5t-83 -14zM290 65q36 0 67 13.5t54 38t36 58.5t13 75t-13 75t-36 58.5t-54 38
t-67 13.5t-67 -13.5t-54 -38t-36 -58.5t-13 -75t13 -75t36 -58.5t54 -38t67 -13.5zM259 625q25 2 37 9t12 28q0 3 -4 9t-14 6q-7 0 -17.5 -7t-18.5 -27l-57 31q22 44 45.5 57t50.5 13q38 0 62.5 -23t23.5 -58q-2 -35 -17.5 -53t-35.5 -26l-3 -32h-57z" />
    <glyph glyph-name="uni1EA4" unicode="&#x1ea4;" horiz-adv-x="675" 
d="M200 700h275l180 -700h-90l-55 205h-345l-55 -205h-90zM490 290l-85 325h-135l-85 -325h305zM183 751l110 144h90l110 -144v-1h-85l-65 90h-10l-65 -90h-85v1zM558 965h80v-1l-90 -114h-55z" />
    <glyph glyph-name="uni1EA5" unicode="&#x1ea5;" 
d="M280 -10q-49 0 -92.5 19.5t-76.5 54t-52 82.5t-19 104t19 104t52 82.5t76.5 54t92.5 19.5t83 -14t55.5 -31t31 -31.5l9.5 -14.5h1v81h80v-500h-80v80h-1l-9.5 -14.5t-31 -31t-55.5 -30.5t-83 -14zM290 65q36 0 67 13.5t54 38t36 58.5t13 75t-13 75t-36 58.5t-54 38
t-67 13.5t-67 -13.5t-54 -38t-36 -58.5t-13 -75t13 -75t36 -58.5t54 -38t67 -13.5zM135 553l110 144h90l110 -144v-1h-85l-65 90h-10l-65 -90h-85v1zM517 766h80v-1l-90 -114h-55z" />
    <glyph glyph-name="uni1EA6" unicode="&#x1ea6;" horiz-adv-x="675" 
d="M200 700h275l180 -700h-90l-55 205h-345l-55 -205h-90zM490 290l-85 325h-135l-85 -325h305zM183 751l110 144h90l110 -144v-1h-85l-65 90h-10l-65 -90h-85v1zM492 966l65 -115h-55l-90 114v1h80z" />
    <glyph glyph-name="uni1EA7" unicode="&#x1ea7;" 
d="M280 -10q-49 0 -92.5 19.5t-76.5 54t-52 82.5t-19 104t19 104t52 82.5t76.5 54t92.5 19.5t83 -14t55.5 -31t31 -31.5l9.5 -14.5h1v81h80v-500h-80v80h-1l-9.5 -14.5t-31 -31t-55.5 -30.5t-83 -14zM290 65q36 0 67 13.5t54 38t36 58.5t13 75t-13 75t-36 58.5t-54 38
t-67 13.5t-67 -13.5t-54 -38t-36 -58.5t-13 -75t13 -75t36 -58.5t54 -38t67 -13.5zM135 553l110 144h90l110 -144v-1h-85l-65 90h-10l-65 -90h-85v1zM441 763l65 -115h-55l-90 114v1h80z" />
    <glyph glyph-name="uni1EA8" unicode="&#x1ea8;" horiz-adv-x="675" 
d="M200 700h275l180 -700h-90l-55 205h-345l-55 -205h-90zM490 290l-85 325h-135l-85 -325h305zM183 751l110 144h90l110 -144v-1h-85l-65 90h-10l-65 -90h-85v1zM309 1016q25 2 37 9t12 28q0 3 -4 9t-14 6q-7 0 -17.5 -7t-18.5 -27l-57 31q22 44 45.5 57t50.5 13
q38 0 62.5 -23t23.5 -58q-2 -35 -17.5 -53t-35.5 -26l-3 -32h-57z" />
    <glyph glyph-name="uni1EA9" unicode="&#x1ea9;" 
d="M280 -10q-49 0 -92.5 19.5t-76.5 54t-52 82.5t-19 104t19 104t52 82.5t76.5 54t92.5 19.5t83 -14t55.5 -31t31 -31.5l9.5 -14.5h1v81h80v-500h-80v80h-1l-9.5 -14.5t-31 -31t-55.5 -30.5t-83 -14zM290 65q36 0 67 13.5t54 38t36 58.5t13 75t-13 75t-36 58.5t-54 38
t-67 13.5t-67 -13.5t-54 -38t-36 -58.5t-13 -75t13 -75t36 -58.5t54 -38t67 -13.5zM135 553l110 144h90l110 -144v-1h-85l-65 90h-10l-65 -90h-85v1zM261 823q25 2 37 9t12 28q0 3 -4 9t-14 6q-7 0 -17.5 -7t-18.5 -27l-57 31q22 44 45.5 57t50.5 13q38 0 62.5 -23t23.5 -58
q-2 -35 -17.5 -53t-35.5 -26l-3 -32h-57z" />
    <glyph glyph-name="uni1EAA" unicode="&#x1eaa;" horiz-adv-x="675" 
d="M200 700h275l180 -700h-90l-55 205h-345l-55 -205h-90zM490 290l-85 325h-135l-85 -325h305zM183 751l110 144h90l110 -144v-1h-85l-65 90h-10l-65 -90h-85v1zM403 943q-26 0 -44 9.5t-32 20.5t-26.5 20.5t-27.5 9.5q-30 0 -30 -30v-25h-65v28q0 39 26.5 65.5t68.5 26.5
q26 0 44 -9.5t32 -20.5t26.5 -20.5t27.5 -9.5q30 0 30 30v25h65v-28q0 -39 -26.5 -65.5t-68.5 -26.5z" />
    <glyph glyph-name="uni1EAB" unicode="&#x1eab;" 
d="M280 -10q-49 0 -92.5 19.5t-76.5 54t-52 82.5t-19 104t19 104t52 82.5t76.5 54t92.5 19.5t83 -14t55.5 -31t31 -31.5l9.5 -14.5h1v81h80v-500h-80v80h-1l-9.5 -14.5t-31 -31t-55.5 -30.5t-83 -14zM290 65q36 0 67 13.5t54 38t36 58.5t13 75t-13 75t-36 58.5t-54 38
t-67 13.5t-67 -13.5t-54 -38t-36 -58.5t-13 -75t13 -75t36 -58.5t54 -38t67 -13.5zM135 553l110 144h90l110 -144v-1h-85l-65 90h-10l-65 -90h-85v1zM360 748q-26 0 -44 9.5t-32 20.5t-26.5 20.5t-27.5 9.5q-30 0 -30 -30v-25h-65v28q0 39 26.5 65.5t68.5 26.5q26 0 44 -9.5
t32 -20.5t26.5 -20.5t27.5 -9.5q30 0 30 30v25h65v-28q0 -39 -26.5 -65.5t-68.5 -26.5z" />
    <glyph glyph-name="uni1EAC" unicode="&#x1eac;" horiz-adv-x="675" 
d="M200 700h275l180 -700h-90l-55 205h-345l-55 -205h-90zM490 290l-85 325h-135l-85 -325h305zM338 -160q-23 0 -39 16t-16 39t16 39t39 16t39 -16t16 -39t-16 -39t-39 -16zM183 750l110 144h90l110 -144v-1h-85l-65 90h-10l-65 -90h-85v1z" />
    <glyph glyph-name="uni1EAD" unicode="&#x1ead;" 
d="M280 -10q-49 0 -92.5 19.5t-76.5 54t-52 82.5t-19 104t19 104t52 82.5t76.5 54t92.5 19.5t83 -14t55.5 -31t31 -31.5l9.5 -14.5h1v81h80v-500h-80v80h-1l-9.5 -14.5t-31 -31t-55.5 -30.5t-83 -14zM290 65q36 0 67 13.5t54 38t36 58.5t13 75t-13 75t-36 58.5t-54 38
t-67 13.5t-67 -13.5t-54 -38t-36 -58.5t-13 -75t13 -75t36 -58.5t54 -38t67 -13.5zM290 -162q-23 0 -39 16t-16 39t16 39t39 16t39 -16t16 -39t-16 -39t-39 -16zM135 553l110 144h90l110 -144v-1h-85l-65 90h-10l-65 -90h-85v1z" />
    <glyph glyph-name="uni1EAE" unicode="&#x1eae;" horiz-adv-x="675" 
d="M200 700h275l180 -700h-90l-55 205h-345l-55 -205h-90zM490 290l-85 325h-135l-85 -325h305zM337 751q-68 0 -106.5 36t-38.5 89h70q0 -30 18.5 -47.5t56.5 -17.5t56.5 17.5t18.5 47.5h70q0 -53 -38.5 -89t-106.5 -36zM337 1017h80v-1l-90 -114h-55z" />
    <glyph glyph-name="uni1EAF" unicode="&#x1eaf;" 
d="M280 -10q-49 0 -92.5 19.5t-76.5 54t-52 82.5t-19 104t19 104t52 82.5t76.5 54t92.5 19.5t83 -14t55.5 -31t31 -31.5l9.5 -14.5h1v81h80v-500h-80v80h-1l-9.5 -14.5t-31 -31t-55.5 -30.5t-83 -14zM290 65q36 0 67 13.5t54 38t36 58.5t13 75t-13 75t-36 58.5t-54 38
t-67 13.5t-67 -13.5t-54 -38t-36 -58.5t-13 -75t13 -75t36 -58.5t54 -38t67 -13.5zM290 552q-68 0 -106.5 36t-38.5 89h70q0 -30 18.5 -47.5t56.5 -17.5t56.5 17.5t18.5 47.5h70q0 -53 -38.5 -89t-106.5 -36zM283 830h80v-1l-90 -114h-55z" />
    <glyph glyph-name="uni1EB0" unicode="&#x1eb0;" horiz-adv-x="675" 
d="M200 700h275l180 -700h-90l-55 205h-345l-55 -205h-90zM490 290l-85 325h-135l-85 -325h305zM337 751q-68 0 -106.5 36t-38.5 89h70q0 -30 18.5 -47.5t56.5 -17.5t56.5 17.5t18.5 47.5h70q0 -53 -38.5 -89t-106.5 -36zM327 1019l65 -115h-55l-90 114v1h80z" />
    <glyph glyph-name="uni1EB1" unicode="&#x1eb1;" 
d="M280 -10q-49 0 -92.5 19.5t-76.5 54t-52 82.5t-19 104t19 104t52 82.5t76.5 54t92.5 19.5t83 -14t55.5 -31t31 -31.5l9.5 -14.5h1v81h80v-500h-80v80h-1l-9.5 -14.5t-31 -31t-55.5 -30.5t-83 -14zM290 65q36 0 67 13.5t54 38t36 58.5t13 75t-13 75t-36 58.5t-54 38
t-67 13.5t-67 -13.5t-54 -38t-36 -58.5t-13 -75t13 -75t36 -58.5t54 -38t67 -13.5zM290 552q-68 0 -106.5 36t-38.5 89h70q0 -30 18.5 -47.5t56.5 -17.5t56.5 17.5t18.5 47.5h70q0 -53 -38.5 -89t-106.5 -36zM298 815l65 -115h-55l-90 114v1h80z" />
    <glyph glyph-name="uni1EB2" unicode="&#x1eb2;" horiz-adv-x="675" 
d="M200 700h275l180 -700h-90l-55 205h-345l-55 -205h-90zM490 290l-85 325h-135l-85 -325h305zM337 751q-68 0 -106.5 36t-38.5 89h70q0 -30 18.5 -47.5t56.5 -17.5t56.5 17.5t18.5 47.5h70q0 -53 -38.5 -89t-106.5 -36zM308 975q25 2 37 9t12 28q0 3 -4 9t-14 6
q-7 0 -17.5 -7t-18.5 -27l-57 31q22 44 45.5 57t50.5 13q38 0 62.5 -23t23.5 -58q-2 -35 -17.5 -53t-35.5 -26l-3 -32h-57z" />
    <glyph glyph-name="uni1EB3" unicode="&#x1eb3;" 
d="M280 -10q-49 0 -92.5 19.5t-76.5 54t-52 82.5t-19 104t19 104t52 82.5t76.5 54t92.5 19.5t83 -14t55.5 -31t31 -31.5l9.5 -14.5h1v81h80v-500h-80v80h-1l-9.5 -14.5t-31 -31t-55.5 -30.5t-83 -14zM290 65q36 0 67 13.5t54 38t36 58.5t13 75t-13 75t-36 58.5t-54 38
t-67 13.5t-67 -13.5t-54 -38t-36 -58.5t-13 -75t13 -75t36 -58.5t54 -38t67 -13.5zM290 552q-68 0 -106.5 36t-38.5 89h70q0 -30 18.5 -47.5t56.5 -17.5t56.5 17.5t18.5 47.5h70q0 -53 -38.5 -89t-106.5 -36zM261 786q25 2 37 9t12 28q0 3 -4 9t-14 6q-7 0 -17.5 -7
t-18.5 -27l-57 31q22 44 45.5 57t50.5 13q38 0 62.5 -23t23.5 -58q-2 -35 -17.5 -53t-35.5 -26l-3 -32h-57z" />
    <glyph glyph-name="uni1EB4" unicode="&#x1eb4;" horiz-adv-x="675" 
d="M200 700h275l180 -700h-90l-55 205h-345l-55 -205h-90zM490 290l-85 325h-135l-85 -325h305zM337 751q-68 0 -106.5 36t-38.5 89h70q0 -30 18.5 -47.5t56.5 -17.5t56.5 17.5t18.5 47.5h70q0 -53 -38.5 -89t-106.5 -36zM403 909q-26 0 -44 9.5t-32 20.5t-26.5 20.5
t-27.5 9.5q-30 0 -30 -30v-25h-65v28q0 39 26.5 65.5t68.5 26.5q26 0 44 -9.5t32 -20.5t26.5 -20.5t27.5 -9.5q30 0 30 30v25h65v-28q0 -39 -26.5 -65.5t-68.5 -26.5z" />
    <glyph glyph-name="uni1EB5" unicode="&#x1eb5;" 
d="M280 -10q-49 0 -92.5 19.5t-76.5 54t-52 82.5t-19 104t19 104t52 82.5t76.5 54t92.5 19.5t83 -14t55.5 -31t31 -31.5l9.5 -14.5h1v81h80v-500h-80v80h-1l-9.5 -14.5t-31 -31t-55.5 -30.5t-83 -14zM290 65q36 0 67 13.5t54 38t36 58.5t13 75t-13 75t-36 58.5t-54 38
t-67 13.5t-67 -13.5t-54 -38t-36 -58.5t-13 -75t13 -75t36 -58.5t54 -38t67 -13.5zM290 552q-68 0 -106.5 36t-38.5 89h70q0 -30 18.5 -47.5t56.5 -17.5t56.5 17.5t18.5 47.5h70q0 -53 -38.5 -89t-106.5 -36zM355 713q-26 0 -44 9.5t-32 20.5t-26.5 20.5t-27.5 9.5
q-30 0 -30 -30v-25h-65v28q0 39 26.5 65.5t68.5 26.5q26 0 44 -9.5t32 -20.5t26.5 -20.5t27.5 -9.5q30 0 30 30v25h65v-28q0 -39 -26.5 -65.5t-68.5 -26.5z" />
    <glyph glyph-name="uni1EB6" unicode="&#x1eb6;" horiz-adv-x="675" 
d="M200 700h275l180 -700h-90l-55 205h-345l-55 -205h-90zM490 290l-85 325h-135l-85 -325h305zM338 -160q-23 0 -39 16t-16 39t16 39t39 16t39 -16t16 -39t-16 -39t-39 -16zM337 751q-68 0 -106.5 36t-38.5 89h70q0 -30 18.5 -47.5t56.5 -17.5t56.5 17.5t18.5 47.5h70
q0 -53 -38.5 -89t-106.5 -36z" />
    <glyph glyph-name="uni1EB7" unicode="&#x1eb7;" 
d="M280 -10q-49 0 -92.5 19.5t-76.5 54t-52 82.5t-19 104t19 104t52 82.5t76.5 54t92.5 19.5t83 -14t55.5 -31t31 -31.5l9.5 -14.5h1v81h80v-500h-80v80h-1l-9.5 -14.5t-31 -31t-55.5 -30.5t-83 -14zM290 65q36 0 67 13.5t54 38t36 58.5t13 75t-13 75t-36 58.5t-54 38
t-67 13.5t-67 -13.5t-54 -38t-36 -58.5t-13 -75t13 -75t36 -58.5t54 -38t67 -13.5zM290 -162q-23 0 -39 16t-16 39t16 39t39 16t39 -16t16 -39t-16 -39t-39 -16zM290 552q-68 0 -106.5 36t-38.5 89h70q0 -30 18.5 -47.5t56.5 -17.5t56.5 17.5t18.5 47.5h70q0 -53 -38.5 -89
t-106.5 -36z" />
    <glyph glyph-name="uni1EB8" unicode="&#x1eb8;" 
d="M80 700h490v-85h-400v-220h325v-85h-325v-225h400v-85h-490v700zM325 -161q-23 0 -39 16t-16 39t16 39t39 16t39 -16t16 -39t-16 -39t-39 -16z" />
    <glyph glyph-name="uni1EB9" unicode="&#x1eb9;" horiz-adv-x="590" 
d="M295 -10q-54 0 -101 19.5t-81 54t-53.5 82.5t-19.5 104t19.5 104t53.5 82.5t81 54t101 19.5t101 -19.5t81 -53.5t53.5 -81t19.5 -101v-30h-430q4 -35 19 -64.5t38 -50.5t53.5 -33t64.5 -12q45 0 76 14t51 31q23 19 38 45h80q-18 -47 -51 -83q-29 -31 -76 -56.5
t-118 -25.5zM465 295q-4 28 -17.5 53.5t-35.5 44.5t-51.5 30.5t-65.5 11.5t-65.5 -11.5t-52 -30.5t-36.5 -44.5t-19 -53.5h343zM295 -161q-23 0 -39 16t-16 39t16 39t39 16t39 -16t16 -39t-16 -39t-39 -16z" />
    <glyph glyph-name="uni1EBA" unicode="&#x1eba;" 
d="M80 700h490v-85h-400v-220h325v-85h-325v-225h400v-85h-490v700zM296 825q25 2 37 9t12 28q0 3 -4 9t-14 6q-7 0 -17.5 -7t-18.5 -27l-57 31q22 44 45.5 57t50.5 13q38 0 62.5 -23t23.5 -58q-2 -35 -17.5 -53t-35.5 -26l-3 -32h-57z" />
    <glyph glyph-name="uni1EBB" unicode="&#x1ebb;" horiz-adv-x="590" 
d="M295 -10q-54 0 -101 19.5t-81 54t-53.5 82.5t-19.5 104t19.5 104t53.5 82.5t81 54t101 19.5t101 -19.5t81 -53.5t53.5 -81t19.5 -101v-30h-430q4 -35 19 -64.5t38 -50.5t53.5 -33t64.5 -12q45 0 76 14t51 31q23 19 38 45h80q-18 -47 -51 -83q-29 -31 -76 -56.5
t-118 -25.5zM465 295q-4 28 -17.5 53.5t-35.5 44.5t-51.5 30.5t-65.5 11.5t-65.5 -11.5t-52 -30.5t-36.5 -44.5t-19 -53.5h343zM266 625q25 2 37 9t12 28q0 3 -4 9t-14 6q-7 0 -17.5 -7t-18.5 -27l-57 31q22 44 45.5 57t50.5 13q38 0 62.5 -23t23.5 -58q-2 -35 -17.5 -53
t-35.5 -26l-3 -32h-57z" />
    <glyph glyph-name="uni1EBC" unicode="&#x1ebc;" 
d="M80 700h490v-85h-400v-220h325v-85h-325v-225h400v-85h-490v700zM390 748q-26 0 -44 9.5t-32 20.5t-26.5 20.5t-27.5 9.5q-30 0 -30 -30v-25h-65v28q0 39 26.5 65.5t68.5 26.5q26 0 44 -9.5t32 -20.5t26.5 -20.5t27.5 -9.5q30 0 30 30v25h65v-28q0 -39 -26.5 -65.5
t-68.5 -26.5z" />
    <glyph glyph-name="uni1EBD" unicode="&#x1ebd;" horiz-adv-x="590" 
d="M295 -10q-54 0 -101 19.5t-81 54t-53.5 82.5t-19.5 104t19.5 104t53.5 82.5t81 54t101 19.5t101 -19.5t81 -53.5t53.5 -81t19.5 -101v-30h-430q4 -35 19 -64.5t38 -50.5t53.5 -33t64.5 -12q45 0 76 14t51 31q23 19 38 45h80q-18 -47 -51 -83q-29 -31 -76 -56.5
t-118 -25.5zM465 295q-4 28 -17.5 53.5t-35.5 44.5t-51.5 30.5t-65.5 11.5t-65.5 -11.5t-52 -30.5t-36.5 -44.5t-19 -53.5h343zM366 554q-26 0 -44 9.5t-32 20.5t-26.5 20.5t-27.5 9.5q-30 0 -30 -30v-25h-65v28q0 39 26.5 65.5t68.5 26.5q26 0 44 -9.5t32 -20.5t26.5 -20.5
t27.5 -9.5q30 0 30 30v25h65v-28q0 -39 -26.5 -65.5t-68.5 -26.5z" />
    <glyph glyph-name="uni1EBE" unicode="&#x1ebe;" 
d="M80 700h490v-85h-400v-220h325v-85h-325v-225h400v-85h-490v700zM170 749l110 144h90l110 -144v-1h-85l-65 90h-10l-65 -90h-85v1zM545 966h80v-1l-90 -114h-55z" />
    <glyph glyph-name="uni1EBF" unicode="&#x1ebf;" horiz-adv-x="590" 
d="M295 -10q-54 0 -101 19.5t-81 54t-53.5 82.5t-19.5 104t19.5 104t53.5 82.5t81 54t101 19.5t101 -19.5t81 -53.5t53.5 -81t19.5 -101v-30h-430q4 -35 19 -64.5t38 -50.5t53.5 -33t64.5 -12q45 0 76 14t51 31q23 19 38 45h80q-18 -47 -51 -83q-29 -31 -76 -56.5
t-118 -25.5zM465 295q-4 28 -17.5 53.5t-35.5 44.5t-51.5 30.5t-65.5 11.5t-65.5 -11.5t-52 -30.5t-36.5 -44.5t-19 -53.5h343zM141 551l110 144h90l110 -144v-1h-85l-65 90h-10l-65 -90h-85v1zM516 767h80v-1l-90 -114h-55z" />
    <glyph glyph-name="uni1EC0" unicode="&#x1ec0;" 
d="M80 700h490v-85h-400v-220h325v-85h-325v-225h400v-85h-490v700zM170 749l110 144h90l110 -144v-1h-85l-65 90h-10l-65 -90h-85v1zM469 964l65 -115h-55l-90 114v1h80z" />
    <glyph glyph-name="uni1EC1" unicode="&#x1ec1;" horiz-adv-x="590" 
d="M295 -10q-54 0 -101 19.5t-81 54t-53.5 82.5t-19.5 104t19.5 104t53.5 82.5t81 54t101 19.5t101 -19.5t81 -53.5t53.5 -81t19.5 -101v-30h-430q4 -35 19 -64.5t38 -50.5t53.5 -33t64.5 -12q45 0 76 14t51 31q23 19 38 45h80q-18 -47 -51 -83q-29 -31 -76 -56.5
t-118 -25.5zM465 295q-4 28 -17.5 53.5t-35.5 44.5t-51.5 30.5t-65.5 11.5t-65.5 -11.5t-52 -30.5t-36.5 -44.5t-19 -53.5h343zM141 551l110 144h90l110 -144v-1h-85l-65 90h-10l-65 -90h-85v1zM441 766l65 -115h-55l-90 114v1h80z" />
    <glyph glyph-name="uni1EC2" unicode="&#x1ec2;" 
d="M80 700h490v-85h-400v-220h325v-85h-325v-225h400v-85h-490v700zM170 749l110 144h90l110 -144v-1h-85l-65 90h-10l-65 -90h-85v1zM296 1008q25 2 37 9t12 28q0 3 -4 9t-14 6q-7 0 -17.5 -7t-18.5 -27l-57 31q22 44 45.5 57t50.5 13q38 0 62.5 -23t23.5 -58
q-2 -35 -17.5 -53t-35.5 -26l-3 -32h-57z" />
    <glyph glyph-name="uni1EC3" unicode="&#x1ec3;" horiz-adv-x="590" 
d="M295 -10q-54 0 -101 19.5t-81 54t-53.5 82.5t-19.5 104t19.5 104t53.5 82.5t81 54t101 19.5t101 -19.5t81 -53.5t53.5 -81t19.5 -101v-30h-430q4 -35 19 -64.5t38 -50.5t53.5 -33t64.5 -12q45 0 76 14t51 31q23 19 38 45h80q-18 -47 -51 -83q-29 -31 -76 -56.5
t-118 -25.5zM465 295q-4 28 -17.5 53.5t-35.5 44.5t-51.5 30.5t-65.5 11.5t-65.5 -11.5t-52 -30.5t-36.5 -44.5t-19 -53.5h343zM141 551l110 144h90l110 -144v-1h-85l-65 90h-10l-65 -90h-85v1zM267 822q25 2 37 9t12 28q0 3 -4 9t-14 6q-7 0 -17.5 -7t-18.5 -27l-57 31
q22 44 45.5 57t50.5 13q38 0 62.5 -23t23.5 -58q-2 -35 -17.5 -53t-35.5 -26l-3 -32h-57z" />
    <glyph glyph-name="uni1EC4" unicode="&#x1ec4;" 
d="M80 700h490v-85h-400v-220h325v-85h-325v-225h400v-85h-490v700zM170 749l110 144h90l110 -144v-1h-85l-65 90h-10l-65 -90h-85v1zM385 938q-26 0 -44 9.5t-32 20.5t-26.5 20.5t-27.5 9.5q-30 0 -30 -30v-25h-65v28q0 39 26.5 65.5t68.5 26.5q26 0 44 -9.5t32 -20.5
t26.5 -20.5t27.5 -9.5q30 0 30 30v25h65v-28q0 -39 -26.5 -65.5t-68.5 -26.5z" />
    <glyph glyph-name="uni1EC5" unicode="&#x1ec5;" horiz-adv-x="590" 
d="M295 -10q-54 0 -101 19.5t-81 54t-53.5 82.5t-19.5 104t19.5 104t53.5 82.5t81 54t101 19.5t101 -19.5t81 -53.5t53.5 -81t19.5 -101v-30h-430q4 -35 19 -64.5t38 -50.5t53.5 -33t64.5 -12q45 0 76 14t51 31q23 19 38 45h80q-18 -47 -51 -83q-29 -31 -76 -56.5
t-118 -25.5zM465 295q-4 28 -17.5 53.5t-35.5 44.5t-51.5 30.5t-65.5 11.5t-65.5 -11.5t-52 -30.5t-36.5 -44.5t-19 -53.5h343zM141 551l110 144h90l110 -144v-1h-85l-65 90h-10l-65 -90h-85v1zM366 749q-26 0 -44 9.5t-32 20.5t-26.5 20.5t-27.5 9.5q-30 0 -30 -30v-25h-65
v28q0 39 26.5 65.5t68.5 26.5q26 0 44 -9.5t32 -20.5t26.5 -20.5t27.5 -9.5q30 0 30 30v25h65v-28q0 -39 -26.5 -65.5t-68.5 -26.5z" />
    <glyph glyph-name="uni1EC6" unicode="&#x1ec6;" 
d="M80 700h490v-85h-400v-220h325v-85h-325v-225h400v-85h-490v700zM325 -161q-23 0 -39 16t-16 39t16 39t39 16t39 -16t16 -39t-16 -39t-39 -16zM170 753l110 144h90l110 -144v-1h-85l-65 90h-10l-65 -90h-85v1z" />
    <glyph glyph-name="uni1EC7" unicode="&#x1ec7;" horiz-adv-x="590" 
d="M295 -10q-54 0 -101 19.5t-81 54t-53.5 82.5t-19.5 104t19.5 104t53.5 82.5t81 54t101 19.5t101 -19.5t81 -53.5t53.5 -81t19.5 -101v-30h-430q4 -35 19 -64.5t38 -50.5t53.5 -33t64.5 -12q45 0 76 14t51 31q23 19 38 45h80q-18 -47 -51 -83q-29 -31 -76 -56.5
t-118 -25.5zM465 295q-4 28 -17.5 53.5t-35.5 44.5t-51.5 30.5t-65.5 11.5t-65.5 -11.5t-52 -30.5t-36.5 -44.5t-19 -53.5h343zM295 -161q-23 0 -39 16t-16 39t16 39t39 16t39 -16t16 -39t-16 -39t-39 -16zM140 552l110 144h90l110 -144v-1h-85l-65 90h-10l-65 -90h-85v1z
" />
    <glyph glyph-name="uni1EC8" unicode="&#x1ec8;" horiz-adv-x="250" 
d="M80 700h90v-700h-90v700zM96 822q25 2 37 9t12 28q0 3 -4 9t-14 6q-7 0 -17.5 -7t-18.5 -27l-57 31q22 44 45.5 57t50.5 13q38 0 62.5 -23t23.5 -58q-2 -35 -17.5 -53t-35.5 -26l-3 -32h-57z" />
    <glyph glyph-name="uni1EC9" unicode="&#x1ec9;" horiz-adv-x="220" 
d="M70 500h80v-500h-80v500zM81 625q25 2 37 9t12 28q0 3 -4 9t-14 6q-7 0 -17.5 -7t-18.5 -27l-57 31q22 44 45.5 57t50.5 13q38 0 62.5 -23t23.5 -58q-2 -35 -17.5 -53t-35.5 -26l-3 -32h-57z" />
    <glyph glyph-name="uni1ECA" unicode="&#x1eca;" horiz-adv-x="250" 
d="M80 700h90v-700h-90v700zM125 -161q-23 0 -39 16t-16 39t16 39t39 16t39 -16t16 -39t-16 -39t-39 -16z" />
    <glyph glyph-name="uni1ECB" unicode="&#x1ecb;" horiz-adv-x="220" 
d="M70 500h80v-500h-80v500zM110 550q-23 0 -39 16t-16 39t16 39t39 16t39 -16t16 -39t-16 -39t-39 -16zM110 -162q-23 0 -39 16t-16 39t16 39t39 16t39 -16t16 -39t-16 -39t-39 -16z" />
    <glyph glyph-name="uni1ECC" unicode="&#x1ecc;" horiz-adv-x="820" 
d="M410 -20q-79 0 -146 27.5t-115.5 77t-76 117t-27.5 148.5t27.5 148.5t76 117t115.5 77t146 27.5t145.5 -27.5t115.5 -77t76.5 -117t27.5 -148.5t-27.5 -148.5t-76.5 -117t-115.5 -77t-145.5 -27.5zM410 65q60 0 110.5 20.5t87 58t57 90t20.5 116.5t-20.5 116.5t-57 90
t-87 58t-110.5 20.5t-110.5 -20.5t-87 -58t-57 -90t-20.5 -116.5t20.5 -116.5t57 -90t87 -58t110.5 -20.5zM410 -182q-23 0 -39 16t-16 39t16 39t39 16t39 -16t16 -39t-16 -39t-39 -16z" />
    <glyph glyph-name="uni1ECD" unicode="&#x1ecd;" horiz-adv-x="600" 
d="M300 -10q-56 0 -104 19.5t-82.5 54t-54 82.5t-19.5 104t19.5 104t54 82.5t82.5 54t104 19.5t104 -19.5t82.5 -54t54 -82.5t19.5 -104t-19.5 -104t-54 -82.5t-82.5 -54t-104 -19.5zM300 65q39 0 72 13.5t57 38t37.5 58.5t13.5 75t-13.5 75t-37.5 58.5t-57 38t-72 13.5
t-72 -13.5t-57 -38t-37.5 -58.5t-13.5 -75t13.5 -75t37.5 -58.5t57 -38t72 -13.5zM300 -166q-23 0 -39 16t-16 39t16 39t39 16t39 -16t16 -39t-16 -39t-39 -16z" />
    <glyph glyph-name="uni1ECE" unicode="&#x1ece;" horiz-adv-x="820" 
d="M410 -20q-79 0 -146 27.5t-115.5 77t-76 117t-27.5 148.5t27.5 148.5t76 117t115.5 77t146 27.5t145.5 -27.5t115.5 -77t76.5 -117t27.5 -148.5t-27.5 -148.5t-76.5 -117t-115.5 -77t-145.5 -27.5zM410 65q60 0 110.5 20.5t87 58t57 90t20.5 116.5t-20.5 116.5t-57 90
t-87 58t-110.5 20.5t-110.5 -20.5t-87 -58t-57 -90t-20.5 -116.5t20.5 -116.5t57 -90t87 -58t110.5 -20.5zM381 853q25 2 37 9t12 28q0 3 -4 9t-14 6q-7 0 -17.5 -7t-18.5 -27l-57 31q22 44 45.5 57t50.5 13q38 0 62.5 -23t23.5 -58q-2 -35 -17.5 -53t-35.5 -26l-3 -32h-57z
" />
    <glyph glyph-name="uni1ECF" unicode="&#x1ecf;" horiz-adv-x="600" 
d="M300 -10q-56 0 -104 19.5t-82.5 54t-54 82.5t-19.5 104t19.5 104t54 82.5t82.5 54t104 19.5t104 -19.5t82.5 -54t54 -82.5t19.5 -104t-19.5 -104t-54 -82.5t-82.5 -54t-104 -19.5zM300 65q39 0 72 13.5t57 38t37.5 58.5t13.5 75t-13.5 75t-37.5 58.5t-57 38t-72 13.5
t-72 -13.5t-57 -38t-37.5 -58.5t-13.5 -75t13.5 -75t37.5 -58.5t57 -38t72 -13.5zM271 630q25 2 37 9t12 28q0 3 -4 9t-14 6q-7 0 -17.5 -7t-18.5 -27l-57 31q22 44 45.5 57t50.5 13q38 0 62.5 -23t23.5 -58q-2 -35 -17.5 -53t-35.5 -26l-3 -32h-57z" />
    <glyph glyph-name="uni1ED0" unicode="&#x1ed0;" horiz-adv-x="820" 
d="M410 -20q-79 0 -146 27.5t-115.5 77t-76 117t-27.5 148.5t27.5 148.5t76 117t115.5 77t146 27.5t145.5 -27.5t115.5 -77t76.5 -117t27.5 -148.5t-27.5 -148.5t-76.5 -117t-115.5 -77t-145.5 -27.5zM410 65q60 0 110.5 20.5t87 58t57 90t20.5 116.5t-20.5 116.5t-57 90
t-87 58t-110.5 20.5t-110.5 -20.5t-87 -58t-57 -90t-20.5 -116.5t20.5 -116.5t57 -90t87 -58t110.5 -20.5zM255 750l110 144h90l110 -144v-1h-85l-65 90h-10l-65 -90h-85v1zM630 965h80v-1l-90 -114h-55z" />
    <glyph glyph-name="uni1ED1" unicode="&#x1ed1;" horiz-adv-x="600" 
d="M300 -10q-56 0 -104 19.5t-82.5 54t-54 82.5t-19.5 104t19.5 104t54 82.5t82.5 54t104 19.5t104 -19.5t82.5 -54t54 -82.5t19.5 -104t-19.5 -104t-54 -82.5t-82.5 -54t-104 -19.5zM300 65q39 0 72 13.5t57 38t37.5 58.5t13.5 75t-13.5 75t-37.5 58.5t-57 38t-72 13.5
t-72 -13.5t-57 -38t-37.5 -58.5t-13.5 -75t13.5 -75t37.5 -58.5t57 -38t72 -13.5zM145 552l110 144h90l110 -144v-1h-85l-65 90h-10l-65 -90h-85v1zM521 765h80v-1l-90 -114h-55z" />
    <glyph glyph-name="uni1ED2" unicode="&#x1ed2;" horiz-adv-x="820" 
d="M410 -20q-79 0 -146 27.5t-115.5 77t-76 117t-27.5 148.5t27.5 148.5t76 117t115.5 77t146 27.5t145.5 -27.5t115.5 -77t76.5 -117t27.5 -148.5t-27.5 -148.5t-76.5 -117t-115.5 -77t-145.5 -27.5zM410 65q60 0 110.5 20.5t87 58t57 90t20.5 116.5t-20.5 116.5t-57 90
t-87 58t-110.5 20.5t-110.5 -20.5t-87 -58t-57 -90t-20.5 -116.5t20.5 -116.5t57 -90t87 -58t110.5 -20.5zM255 750l110 144h90l110 -144v-1h-85l-65 90h-10l-65 -90h-85v1zM555 966l65 -115h-55l-90 114v1h80z" />
    <glyph glyph-name="uni1ED3" unicode="&#x1ed3;" horiz-adv-x="600" 
d="M300 -10q-56 0 -104 19.5t-82.5 54t-54 82.5t-19.5 104t19.5 104t54 82.5t82.5 54t104 19.5t104 -19.5t82.5 -54t54 -82.5t19.5 -104t-19.5 -104t-54 -82.5t-82.5 -54t-104 -19.5zM300 65q39 0 72 13.5t57 38t37.5 58.5t13.5 75t-13.5 75t-37.5 58.5t-57 38t-72 13.5
t-72 -13.5t-57 -38t-37.5 -58.5t-13.5 -75t13.5 -75t37.5 -58.5t57 -38t72 -13.5zM145 552l110 144h90l110 -144v-1h-85l-65 90h-10l-65 -90h-85v1zM445 764l65 -115h-55l-90 114v1h80z" />
    <glyph glyph-name="uni1ED4" unicode="&#x1ed4;" horiz-adv-x="820" 
d="M410 -20q-79 0 -146 27.5t-115.5 77t-76 117t-27.5 148.5t27.5 148.5t76 117t115.5 77t146 27.5t145.5 -27.5t115.5 -77t76.5 -117t27.5 -148.5t-27.5 -148.5t-76.5 -117t-115.5 -77t-145.5 -27.5zM410 65q60 0 110.5 20.5t87 58t57 90t20.5 116.5t-20.5 116.5t-57 90
t-87 58t-110.5 20.5t-110.5 -20.5t-87 -58t-57 -90t-20.5 -116.5t20.5 -116.5t57 -90t87 -58t110.5 -20.5zM255 750l110 144h90l110 -144v-1h-85l-65 90h-10l-65 -90h-85v1zM381 1014q25 2 37 9t12 28q0 3 -4 9t-14 6q-7 0 -17.5 -7t-18.5 -27l-57 31q22 44 45.5 57t50.5 13
q38 0 62.5 -23t23.5 -58q-2 -35 -17.5 -53t-35.5 -26l-3 -32h-57z" />
    <glyph glyph-name="uni1ED5" unicode="&#x1ed5;" horiz-adv-x="600" 
d="M300 -10q-56 0 -104 19.5t-82.5 54t-54 82.5t-19.5 104t19.5 104t54 82.5t82.5 54t104 19.5t104 -19.5t82.5 -54t54 -82.5t19.5 -104t-19.5 -104t-54 -82.5t-82.5 -54t-104 -19.5zM300 65q39 0 72 13.5t57 38t37.5 58.5t13.5 75t-13.5 75t-37.5 58.5t-57 38t-72 13.5
t-72 -13.5t-57 -38t-37.5 -58.5t-13.5 -75t13.5 -75t37.5 -58.5t57 -38t72 -13.5zM145 552l110 144h90l110 -144v-1h-85l-65 90h-10l-65 -90h-85v1zM271 818q25 2 37 9t12 28q0 3 -4 9t-14 6q-7 0 -17.5 -7t-18.5 -27l-57 31q22 44 45.5 57t50.5 13q38 0 62.5 -23t23.5 -58
q-2 -35 -17.5 -53t-35.5 -26l-3 -32h-57z" />
    <glyph glyph-name="uni1ED6" unicode="&#x1ed6;" horiz-adv-x="820" 
d="M410 -20q-79 0 -146 27.5t-115.5 77t-76 117t-27.5 148.5t27.5 148.5t76 117t115.5 77t146 27.5t145.5 -27.5t115.5 -77t76.5 -117t27.5 -148.5t-27.5 -148.5t-76.5 -117t-115.5 -77t-145.5 -27.5zM410 65q60 0 110.5 20.5t87 58t57 90t20.5 116.5t-20.5 116.5t-57 90
t-87 58t-110.5 20.5t-110.5 -20.5t-87 -58t-57 -90t-20.5 -116.5t20.5 -116.5t57 -90t87 -58t110.5 -20.5zM255 750l110 144h90l110 -144v-1h-85l-65 90h-10l-65 -90h-85v1zM470 944q-26 0 -44 9.5t-32 20.5t-26.5 20.5t-27.5 9.5q-30 0 -30 -30v-25h-65v28q0 39 26.5 65.5
t68.5 26.5q26 0 44 -9.5t32 -20.5t26.5 -20.5t27.5 -9.5q30 0 30 30v25h65v-28q0 -39 -26.5 -65.5t-68.5 -26.5z" />
    <glyph glyph-name="uni1ED7" unicode="&#x1ed7;" horiz-adv-x="600" 
d="M300 -10q-56 0 -104 19.5t-82.5 54t-54 82.5t-19.5 104t19.5 104t54 82.5t82.5 54t104 19.5t104 -19.5t82.5 -54t54 -82.5t19.5 -104t-19.5 -104t-54 -82.5t-82.5 -54t-104 -19.5zM300 65q39 0 72 13.5t57 38t37.5 58.5t13.5 75t-13.5 75t-37.5 58.5t-57 38t-72 13.5
t-72 -13.5t-57 -38t-37.5 -58.5t-13.5 -75t13.5 -75t37.5 -58.5t57 -38t72 -13.5zM145 552l110 144h90l110 -144v-1h-85l-65 90h-10l-65 -90h-85v1zM367 743q-26 0 -44 9.5t-32 20.5t-26.5 20.5t-27.5 9.5q-30 0 -30 -30v-25h-65v28q0 39 26.5 65.5t68.5 26.5q26 0 44 -9.5
t32 -20.5t26.5 -20.5t27.5 -9.5q30 0 30 30v25h65v-28q0 -39 -26.5 -65.5t-68.5 -26.5z" />
    <glyph glyph-name="uni1ED8" unicode="&#x1ed8;" horiz-adv-x="820" 
d="M410 -20q-79 0 -146 27.5t-115.5 77t-76 117t-27.5 148.5t27.5 148.5t76 117t115.5 77t146 27.5t145.5 -27.5t115.5 -77t76.5 -117t27.5 -148.5t-27.5 -148.5t-76.5 -117t-115.5 -77t-145.5 -27.5zM410 65q60 0 110.5 20.5t87 58t57 90t20.5 116.5t-20.5 116.5t-57 90
t-87 58t-110.5 20.5t-110.5 -20.5t-87 -58t-57 -90t-20.5 -116.5t20.5 -116.5t57 -90t87 -58t110.5 -20.5zM410 -182q-23 0 -39 16t-16 39t16 39t39 16t39 -16t16 -39t-16 -39t-39 -16zM255 753l110 144h90l110 -144v-1h-85l-65 90h-10l-65 -90h-85v1z" />
    <glyph glyph-name="uni1ED9" unicode="&#x1ed9;" horiz-adv-x="600" 
d="M300 -10q-56 0 -104 19.5t-82.5 54t-54 82.5t-19.5 104t19.5 104t54 82.5t82.5 54t104 19.5t104 -19.5t82.5 -54t54 -82.5t19.5 -104t-19.5 -104t-54 -82.5t-82.5 -54t-104 -19.5zM300 65q39 0 72 13.5t57 38t37.5 58.5t13.5 75t-13.5 75t-37.5 58.5t-57 38t-72 13.5
t-72 -13.5t-57 -38t-37.5 -58.5t-13.5 -75t13.5 -75t37.5 -58.5t57 -38t72 -13.5zM300 -166q-23 0 -39 16t-16 39t16 39t39 16t39 -16t16 -39t-16 -39t-39 -16zM145 552l110 144h90l110 -144v-1h-85l-65 90h-10l-65 -90h-85v1z" />
    <glyph glyph-name="uni1EDA" unicode="&#x1eda;" horiz-adv-x="820" 
d="M410 -20q-79 0 -146 27.5t-115.5 77t-76 117t-27.5 148.5t27.5 148.5t76 117t115.5 77t146 27.5t145.5 -27.5t115.5 -77t76.5 -117t27.5 -148.5t-27.5 -148.5t-76.5 -117t-115.5 -77t-145.5 -27.5zM410 65q60 0 110.5 20.5t87 58t57 90t20.5 116.5t-20.5 116.5t-57 90
t-87 58t-110.5 20.5t-110.5 -20.5t-87 -58t-57 -90t-20.5 -116.5t20.5 -116.5t57 -90t87 -58t110.5 -20.5zM622 635q27 14 27 50v33h88v-35q3 -105 -76 -136h-39v88zM410 897h80v-1l-90 -114h-55z" />
    <glyph glyph-name="uni1EDB" unicode="&#x1edb;" horiz-adv-x="600" 
d="M300 -10q-56 0 -104 19.5t-82.5 54t-54 82.5t-19.5 104t19.5 104t54 82.5t82.5 54t104 19.5t104 -19.5t82.5 -54t54 -82.5t19.5 -104t-19.5 -104t-54 -82.5t-82.5 -54t-104 -19.5zM300 65q39 0 72 13.5t57 38t37.5 58.5t13.5 75t-13.5 75t-37.5 58.5t-57 38t-72 13.5
t-72 -13.5t-57 -38t-37.5 -58.5t-13.5 -75t13.5 -75t37.5 -58.5t57 -38t72 -13.5zM473 427q27 14 27 50v33h88v-35q3 -105 -76 -136h-39v88zM307 666h80v-1l-90 -114h-55z" />
    <glyph glyph-name="uni1EDC" unicode="&#x1edc;" horiz-adv-x="820" 
d="M410 -20q-79 0 -146 27.5t-115.5 77t-76 117t-27.5 148.5t27.5 148.5t76 117t115.5 77t146 27.5t145.5 -27.5t115.5 -77t76.5 -117t27.5 -148.5t-27.5 -148.5t-76.5 -117t-115.5 -77t-145.5 -27.5zM410 65q60 0 110.5 20.5t87 58t57 90t20.5 116.5t-20.5 116.5t-57 90
t-87 58t-110.5 20.5t-110.5 -20.5t-87 -58t-57 -90t-20.5 -116.5t20.5 -116.5t57 -90t87 -58t110.5 -20.5zM622 635q27 14 27 50v33h88v-35q3 -105 -76 -136h-39v88zM405 897l65 -115h-55l-90 114v1h80z" />
    <glyph glyph-name="uni1EDD" unicode="&#x1edd;" horiz-adv-x="600" 
d="M300 -10q-56 0 -104 19.5t-82.5 54t-54 82.5t-19.5 104t19.5 104t54 82.5t82.5 54t104 19.5t104 -19.5t82.5 -54t54 -82.5t19.5 -104t-19.5 -104t-54 -82.5t-82.5 -54t-104 -19.5zM300 65q39 0 72 13.5t57 38t37.5 58.5t13.5 75t-13.5 75t-37.5 58.5t-57 38t-72 13.5
t-72 -13.5t-57 -38t-37.5 -58.5t-13.5 -75t13.5 -75t37.5 -58.5t57 -38t72 -13.5zM473 427q27 14 27 50v33h88v-35q3 -105 -76 -136h-39v88zM322 666l65 -115h-55l-90 114v1h80z" />
    <glyph glyph-name="uni1EDE" unicode="&#x1ede;" horiz-adv-x="820" 
d="M410 -20q-79 0 -146 27.5t-115.5 77t-76 117t-27.5 148.5t27.5 148.5t76 117t115.5 77t146 27.5t145.5 -27.5t115.5 -77t76.5 -117t27.5 -148.5t-27.5 -148.5t-76.5 -117t-115.5 -77t-145.5 -27.5zM410 65q60 0 110.5 20.5t87 58t57 90t20.5 116.5t-20.5 116.5t-57 90
t-87 58t-110.5 20.5t-110.5 -20.5t-87 -58t-57 -90t-20.5 -116.5t20.5 -116.5t57 -90t87 -58t110.5 -20.5zM622 635q27 14 27 50v33h88v-35q3 -105 -76 -136h-39v88zM381 853q25 2 37 9t12 28q0 3 -4 9t-14 6q-7 0 -17.5 -7t-18.5 -27l-57 31q22 44 45.5 57t50.5 13
q38 0 62.5 -23t23.5 -58q-2 -35 -17.5 -53t-35.5 -26l-3 -32h-57z" />
    <glyph glyph-name="uni1EDF" unicode="&#x1edf;" horiz-adv-x="600" 
d="M300 -10q-56 0 -104 19.5t-82.5 54t-54 82.5t-19.5 104t19.5 104t54 82.5t82.5 54t104 19.5t104 -19.5t82.5 -54t54 -82.5t19.5 -104t-19.5 -104t-54 -82.5t-82.5 -54t-104 -19.5zM300 65q39 0 72 13.5t57 38t37.5 58.5t13.5 75t-13.5 75t-37.5 58.5t-57 38t-72 13.5
t-72 -13.5t-57 -38t-37.5 -58.5t-13.5 -75t13.5 -75t37.5 -58.5t57 -38t72 -13.5zM473 427q27 14 27 50v33h88v-35q3 -105 -76 -136h-39v88zM285 625q25 2 37 9t12 28q0 3 -4 9t-14 6q-7 0 -17.5 -7t-18.5 -27l-57 31q22 44 45.5 57t50.5 13q38 0 62.5 -23t23.5 -58
q-2 -35 -17.5 -53t-35.5 -26l-3 -32h-57z" />
    <glyph glyph-name="uni1EE0" unicode="&#x1ee0;" horiz-adv-x="820" 
d="M410 -20q-79 0 -146 27.5t-115.5 77t-76 117t-27.5 148.5t27.5 148.5t76 117t115.5 77t146 27.5t145.5 -27.5t115.5 -77t76.5 -117t27.5 -148.5t-27.5 -148.5t-76.5 -117t-115.5 -77t-145.5 -27.5zM410 65q60 0 110.5 20.5t87 58t57 90t20.5 116.5t-20.5 116.5t-57 90
t-87 58t-110.5 20.5t-110.5 -20.5t-87 -58t-57 -90t-20.5 -116.5t20.5 -116.5t57 -90t87 -58t110.5 -20.5zM622 635q27 14 27 50v33h88v-35q3 -105 -76 -136h-39v88zM475 779q-26 0 -44 9.5t-32 20.5t-26.5 20.5t-27.5 9.5q-30 0 -30 -30v-25h-65v28q0 39 26.5 65.5
t68.5 26.5q26 0 44 -9.5t32 -20.5t26.5 -20.5t27.5 -9.5q30 0 30 30v25h65v-28q0 -39 -26.5 -65.5t-68.5 -26.5z" />
    <glyph glyph-name="uni1EE1" unicode="&#x1ee1;" horiz-adv-x="600" 
d="M300 -10q-56 0 -104 19.5t-82.5 54t-54 82.5t-19.5 104t19.5 104t54 82.5t82.5 54t104 19.5t104 -19.5t82.5 -54t54 -82.5t19.5 -104t-19.5 -104t-54 -82.5t-82.5 -54t-104 -19.5zM300 65q39 0 72 13.5t57 38t37.5 58.5t13.5 75t-13.5 75t-37.5 58.5t-57 38t-72 13.5
t-72 -13.5t-57 -38t-37.5 -58.5t-13.5 -75t13.5 -75t37.5 -58.5t57 -38t72 -13.5zM473 427q27 14 27 50v33h88v-35q3 -105 -76 -136h-39v88zM365 551q-26 0 -44 9.5t-32 20.5t-26.5 20.5t-27.5 9.5q-30 0 -30 -30v-25h-65v28q0 39 26.5 65.5t68.5 26.5q26 0 44 -9.5
t32 -20.5t26.5 -20.5t27.5 -9.5q30 0 30 30v25h65v-28q0 -39 -26.5 -65.5t-68.5 -26.5z" />
    <glyph glyph-name="uni1EE2" unicode="&#x1ee2;" horiz-adv-x="820" 
d="M410 -20q-79 0 -146 27.5t-115.5 77t-76 117t-27.5 148.5t27.5 148.5t76 117t115.5 77t146 27.5t145.5 -27.5t115.5 -77t76.5 -117t27.5 -148.5t-27.5 -148.5t-76.5 -117t-115.5 -77t-145.5 -27.5zM410 65q60 0 110.5 20.5t87 58t57 90t20.5 116.5t-20.5 116.5t-57 90
t-87 58t-110.5 20.5t-110.5 -20.5t-87 -58t-57 -90t-20.5 -116.5t20.5 -116.5t57 -90t87 -58t110.5 -20.5zM622 635q27 14 27 50v33h88v-35q3 -105 -76 -136h-39v88zM410 -180q-23 0 -39 16t-16 39t16 39t39 16t39 -16t16 -39t-16 -39t-39 -16z" />
    <glyph glyph-name="uni1EE3" unicode="&#x1ee3;" horiz-adv-x="600" 
d="M300 -10q-56 0 -104 19.5t-82.5 54t-54 82.5t-19.5 104t19.5 104t54 82.5t82.5 54t104 19.5t104 -19.5t82.5 -54t54 -82.5t19.5 -104t-19.5 -104t-54 -82.5t-82.5 -54t-104 -19.5zM300 65q39 0 72 13.5t57 38t37.5 58.5t13.5 75t-13.5 75t-37.5 58.5t-57 38t-72 13.5
t-72 -13.5t-57 -38t-37.5 -58.5t-13.5 -75t13.5 -75t37.5 -58.5t57 -38t72 -13.5zM473 427q27 14 27 50v33h88v-35q3 -105 -76 -136h-39v88zM301 -168q-23 0 -39 16t-16 39t16 39t39 16t39 -16t16 -39t-16 -39t-39 -16z" />
    <glyph glyph-name="uni1EE4" unicode="&#x1ee4;" horiz-adv-x="700" 
d="M350 -20q-62 0 -112.5 20t-86.5 57t-56 89.5t-20 118.5v435h90v-435q0 -47 13.5 -84t38 -63t58.5 -39.5t75 -13.5t75 13.5t58.5 39.5t38 63t13.5 84v435h90v-435q0 -66 -20 -118.5t-56 -89.5t-86.5 -57t-112.5 -20zM357 -176q-23 0 -39 16t-16 39t16 39t39 16t39 -16
t16 -39t-16 -39t-39 -16z" />
    <glyph glyph-name="uni1EE5" unicode="&#x1ee5;" horiz-adv-x="590" 
d="M270 -10q-45 0 -82 14.5t-63 42.5t-40.5 67.5t-14.5 90.5v295h80v-290q0 -75 37.5 -110t97.5 -35q34 0 62.5 11.5t49 33.5t32 52t11.5 68v270h80v-500h-80v75h-1q-16 -25 -40 -43q-20 -16 -52 -29t-77 -13zM295 -165q-23 0 -39 16t-16 39t16 39t39 16t39 -16t16 -39
t-16 -39t-39 -16z" />
    <glyph glyph-name="uni1EE6" unicode="&#x1ee6;" horiz-adv-x="700" 
d="M350 -20q-62 0 -112.5 20t-86.5 57t-56 89.5t-20 118.5v435h90v-435q0 -47 13.5 -84t38 -63t58.5 -39.5t75 -13.5t75 13.5t58.5 39.5t38 63t13.5 84v435h90v-435q0 -66 -20 -118.5t-56 -89.5t-86.5 -57t-112.5 -20zM321 823q25 2 37 9t12 28q0 3 -4 9t-14 6
q-7 0 -17.5 -7t-18.5 -27l-57 31q22 44 45.5 57t50.5 13q38 0 62.5 -23t23.5 -58q-2 -35 -17.5 -53t-35.5 -26l-3 -32h-57z" />
    <glyph glyph-name="uni1EE7" unicode="&#x1ee7;" horiz-adv-x="590" 
d="M270 -10q-45 0 -82 14.5t-63 42.5t-40.5 67.5t-14.5 90.5v295h80v-290q0 -75 37.5 -110t97.5 -35q34 0 62.5 11.5t49 33.5t32 52t11.5 68v270h80v-500h-80v75h-1q-16 -25 -40 -43q-20 -16 -52 -29t-77 -13zM266 624q25 2 37 9t12 28q0 3 -4 9t-14 6q-7 0 -17.5 -7
t-18.5 -27l-57 31q22 44 45.5 57t50.5 13q38 0 62.5 -23t23.5 -58q-2 -35 -17.5 -53t-35.5 -26l-3 -32h-57z" />
    <glyph glyph-name="uni1EE8" unicode="&#x1ee8;" horiz-adv-x="700" 
d="M350 -20q-62 0 -112.5 20t-86.5 57t-56 89.5t-20 118.5v435h90v-435q0 -47 13.5 -84t38 -63t58.5 -39.5t75 -13.5t75 13.5t58.5 39.5t38 63t13.5 84v435h90v-435q0 -66 -20 -118.5t-56 -89.5t-86.5 -57t-112.5 -20zM601 687q27 14 27 50v33h88v-35q3 -105 -76 -136h-39
v88zM360 865h80v-1l-90 -114h-55z" />
    <glyph glyph-name="uni1EE9" unicode="&#x1ee9;" horiz-adv-x="590" 
d="M270 -10q-45 0 -82 14.5t-63 42.5t-40.5 67.5t-14.5 90.5v295h80v-290q0 -75 37.5 -110t97.5 -35q34 0 62.5 11.5t49 33.5t32 52t11.5 68v270h80v-500h-80v75h-1q-16 -25 -40 -43q-20 -16 -52 -29t-77 -13zM499 485q27 14 27 50v33h88v-35q3 -105 -76 -136h-39v88z
M290 667h80v-1l-90 -114h-55z" />
    <glyph glyph-name="uni1EEA" unicode="&#x1eea;" horiz-adv-x="700" 
d="M350 -20q-62 0 -112.5 20t-86.5 57t-56 89.5t-20 118.5v435h90v-435q0 -47 13.5 -84t38 -63t58.5 -39.5t75 -13.5t75 13.5t58.5 39.5t38 63t13.5 84v435h90v-435q0 -66 -20 -118.5t-56 -89.5t-86.5 -57t-112.5 -20zM601 687q27 14 27 50v33h88v-35q3 -105 -76 -136h-39
v88zM340 866l65 -115h-55l-90 114v1h80z" />
    <glyph glyph-name="uni1EEB" unicode="&#x1eeb;" horiz-adv-x="590" 
d="M270 -10q-45 0 -82 14.5t-63 42.5t-40.5 67.5t-14.5 90.5v295h80v-290q0 -75 37.5 -110t97.5 -35q34 0 62.5 11.5t49 33.5t32 52t11.5 68v270h80v-500h-80v75h-1q-16 -25 -40 -43q-20 -16 -52 -29t-77 -13zM499 485q27 14 27 50v33h88v-35q3 -105 -76 -136h-39v88z
M303 665l65 -115h-55l-90 114v1h80z" />
    <glyph glyph-name="uni1EEC" unicode="&#x1eec;" horiz-adv-x="700" 
d="M350 -20q-62 0 -112.5 20t-86.5 57t-56 89.5t-20 118.5v435h90v-435q0 -47 13.5 -84t38 -63t58.5 -39.5t75 -13.5t75 13.5t58.5 39.5t38 63t13.5 84v435h90v-435q0 -66 -20 -118.5t-56 -89.5t-86.5 -57t-112.5 -20zM601 687q27 14 27 50v33h88v-35q3 -105 -76 -136h-39
v88zM321 821q25 2 37 9t12 28q0 3 -4 9t-14 6q-7 0 -17.5 -7t-18.5 -27l-57 31q22 44 45.5 57t50.5 13q38 0 62.5 -23t23.5 -58q-2 -35 -17.5 -53t-35.5 -26l-3 -32h-57z" />
    <glyph glyph-name="uni1EED" unicode="&#x1eed;" horiz-adv-x="590" 
d="M270 -10q-45 0 -82 14.5t-63 42.5t-40.5 67.5t-14.5 90.5v295h80v-290q0 -75 37.5 -110t97.5 -35q34 0 62.5 11.5t49 33.5t32 52t11.5 68v270h80v-500h-80v75h-1q-16 -25 -40 -43q-20 -16 -52 -29t-77 -13zM499 485q27 14 27 50v33h88v-35q3 -105 -76 -136h-39v88z
M266 624q25 2 37 9t12 28q0 3 -4 9t-14 6q-7 0 -17.5 -7t-18.5 -27l-57 31q22 44 45.5 57t50.5 13q38 0 62.5 -23t23.5 -58q-2 -35 -17.5 -53t-35.5 -26l-3 -32h-57z" />
    <glyph glyph-name="uni1EEE" unicode="&#x1eee;" horiz-adv-x="700" 
d="M350 -20q-62 0 -112.5 20t-86.5 57t-56 89.5t-20 118.5v435h90v-435q0 -47 13.5 -84t38 -63t58.5 -39.5t75 -13.5t75 13.5t58.5 39.5t38 63t13.5 84v435h90v-435q0 -66 -20 -118.5t-56 -89.5t-86.5 -57t-112.5 -20zM601 687q27 14 27 50v33h88v-35q3 -105 -76 -136h-39
v88zM415 750q-26 0 -44 9.5t-32 20.5t-26.5 20.5t-27.5 9.5q-30 0 -30 -30v-25h-65v28q0 39 26.5 65.5t68.5 26.5q26 0 44 -9.5t32 -20.5t26.5 -20.5t27.5 -9.5q30 0 30 30v25h65v-28q0 -39 -26.5 -65.5t-68.5 -26.5z" />
    <glyph glyph-name="uni1EEF" unicode="&#x1eef;" horiz-adv-x="590" 
d="M270 -10q-45 0 -82 14.5t-63 42.5t-40.5 67.5t-14.5 90.5v295h80v-290q0 -75 37.5 -110t97.5 -35q34 0 62.5 11.5t49 33.5t32 52t11.5 68v270h80v-500h-80v75h-1q-16 -25 -40 -43q-20 -16 -52 -29t-77 -13zM499 485q27 14 27 50v33h88v-35q3 -105 -76 -136h-39v88z
M361 552q-26 0 -44 9.5t-32 20.5t-26.5 20.5t-27.5 9.5q-30 0 -30 -30v-25h-65v28q0 39 26.5 65.5t68.5 26.5q26 0 44 -9.5t32 -20.5t26.5 -20.5t27.5 -9.5q30 0 30 30v25h65v-28q0 -39 -26.5 -65.5t-68.5 -26.5z" />
    <glyph glyph-name="uni1EF0" unicode="&#x1ef0;" horiz-adv-x="700" 
d="M350 -20q-62 0 -112.5 20t-86.5 57t-56 89.5t-20 118.5v435h90v-435q0 -47 13.5 -84t38 -63t58.5 -39.5t75 -13.5t75 13.5t58.5 39.5t38 63t13.5 84v435h90v-435q0 -66 -20 -118.5t-56 -89.5t-86.5 -57t-112.5 -20zM601 687q27 14 27 50v33h88v-35q3 -105 -76 -136h-39
v88zM350 -179q-23 0 -39 16t-16 39t16 39t39 16t39 -16t16 -39t-16 -39t-39 -16z" />
    <glyph glyph-name="uni1EF1" unicode="&#x1ef1;" horiz-adv-x="590" 
d="M270 -10q-45 0 -82 14.5t-63 42.5t-40.5 67.5t-14.5 90.5v295h80v-290q0 -75 37.5 -110t97.5 -35q34 0 62.5 11.5t49 33.5t32 52t11.5 68v270h80v-500h-80v75h-1q-16 -25 -40 -43q-20 -16 -52 -29t-77 -13zM499 485q27 14 27 50v33h88v-35q3 -105 -76 -136h-39v88z
M295 -165q-23 0 -39 16t-16 39t16 39t39 16t39 -16t16 -39t-16 -39t-39 -16z" />
    <glyph glyph-name="Ygrave" unicode="&#x1ef2;" horiz-adv-x="640" 
d="M275 255l-270 445h105l205 -340h10l205 340h105l-270 -445v-255h-90v255zM228 892v1h100l85 -145h-70z" />
    <glyph glyph-name="ygrave" unicode="&#x1ef3;" horiz-adv-x="505" 
d="M270 0h-115l-135 500h85l110 -425h75l130 425h85l-210 -690h-85zM115 754v1h100l85 -145h-70z" />
    <glyph glyph-name="uni1EF4" unicode="&#x1ef4;" horiz-adv-x="640" 
d="M275 255l-270 445h105l205 -340h10l205 340h105l-270 -445v-255h-90v255zM320 -160q-23 0 -39 16t-16 39t16 39t39 16t39 -16t16 -39t-16 -39t-39 -16z" />
    <glyph glyph-name="uni1EF5" unicode="&#x1ef5;" horiz-adv-x="505" 
d="M270 0h-115l-135 500h85l110 -425h75l130 425h85l-210 -690h-85zM263 -341q-23 0 -39 16t-16 39t16 39t39 16t39 -16t16 -39t-16 -39t-39 -16z" />
    <glyph glyph-name="uni1EF6" unicode="&#x1ef6;" horiz-adv-x="640" 
d="M275 255l-270 445h105l205 -340h10l205 340h105l-270 -445v-255h-90v255zM291 823q25 2 37 9t12 28q0 3 -4 9t-14 6q-7 0 -17.5 -7t-18.5 -27l-57 31q22 44 45.5 57t50.5 13q38 0 62.5 -23t23.5 -58q-2 -35 -17.5 -53t-35.5 -26l-3 -32h-57z" />
    <glyph glyph-name="uni1EF7" unicode="&#x1ef7;" horiz-adv-x="505" 
d="M270 0h-115l-135 500h85l110 -425h75l130 425h85l-210 -690h-85zM233 622q25 2 37 9t12 28q0 3 -4 9t-14 6q-7 0 -17.5 -7t-18.5 -27l-57 31q22 44 45.5 57t50.5 13q38 0 62.5 -23t23.5 -58q-2 -35 -17.5 -53t-35.5 -26l-3 -32h-57z" />
    <glyph glyph-name="uni1EF8" unicode="&#x1ef8;" horiz-adv-x="640" 
d="M275 255l-270 445h105l205 -340h10l205 340h105l-270 -445v-255h-90v255zM385 750q-26 0 -44 9.5t-32 20.5t-26.5 20.5t-27.5 9.5q-30 0 -30 -30v-25h-65v28q0 39 26.5 65.5t68.5 26.5q26 0 44 -9.5t32 -20.5t26.5 -20.5t27.5 -9.5q30 0 30 30v25h65v-28
q0 -39 -26.5 -65.5t-68.5 -26.5z" />
    <glyph glyph-name="uni1EF9" unicode="&#x1ef9;" horiz-adv-x="505" 
d="M270 0h-115l-135 500h85l110 -425h75l130 425h85l-210 -690h-85zM328 550q-26 0 -44 9.5t-32 20.5t-26.5 20.5t-27.5 9.5q-30 0 -30 -30v-25h-65v28q0 39 26.5 65.5t68.5 26.5q26 0 44 -9.5t32 -20.5t26.5 -20.5t27.5 -9.5q30 0 30 30v25h65v-28q0 -39 -26.5 -65.5
t-68.5 -26.5z" />
    <glyph glyph-name="endash" unicode="&#x2013;" horiz-adv-x="680" 
d="M60 305h560v-75h-560v75z" />
    <glyph glyph-name="emdash" unicode="&#x2014;" horiz-adv-x="875" 
d="M60 305h755v-75h-755v75z" />
    <glyph glyph-name="quoteleft" unicode="&#x2018;" horiz-adv-x="210" 
d="M105 480q-26 0 -43 20.5t-17 69.5q0 68 31 102t84 38v-40q-30 -4 -45 -19.5t-15 -45.5v-15q2 1 6 2q3 1 6.5 2t7.5 1q19 0 32 -14t13 -38q0 -29 -17 -46t-43 -17z" />
    <glyph glyph-name="quoteright" unicode="&#x2019;" horiz-adv-x="210" 
d="M50 520q60 7 60 65v15q-2 -2 -6 -3q-8 -2 -14 -2q-19 0 -32 14t-13 38q0 29 17 46t43 17t43 -20.5t17 -69.5q0 -68 -31 -102t-84 -38v40z" />
    <glyph glyph-name="quotesinglbase" unicode="&#x201a;" horiz-adv-x="210" 
d="M50 -85q60 7 60 65v15q-2 -2 -6 -3q-8 -2 -14 -2q-19 0 -32 14t-13 38q0 29 17 46t43 17t43 -20.5t17 -69.5q0 -68 -31 -102t-84 -38v40z" />
    <glyph glyph-name="quotedblleft" unicode="&#x201c;" horiz-adv-x="365" 
d="M260 480q-26 0 -43 20.5t-17 69.5q0 68 31 102t84 38v-40q-30 -4 -45 -19.5t-15 -45.5v-15q2 1 6 2q3 1 6.5 2t7.5 1q19 0 32 -14t13 -38q0 -29 -17 -46t-43 -17zM105 480q-26 0 -43 20.5t-17 69.5q0 68 31 102t84 38v-40q-30 -4 -45 -19.5t-15 -45.5v-15q2 1 6 2
q3 1 6.5 2t7.5 1q19 0 32 -14t13 -38q0 -29 -17 -46t-43 -17z" />
    <glyph glyph-name="quotedblright" unicode="&#x201d;" horiz-adv-x="365" 
d="M205 520q60 7 60 65v15q-2 -2 -6 -3q-8 -2 -14 -2q-19 0 -32 14t-13 38q0 29 17 46t43 17t43 -20.5t17 -69.5q0 -68 -31 -102t-84 -38v40zM50 520q60 7 60 65v15q-2 -2 -6 -3q-8 -2 -14 -2q-19 0 -32 14t-13 38q0 29 17 46t43 17t43 -20.5t17 -69.5q0 -68 -31 -102
t-84 -38v40z" />
    <glyph glyph-name="quotedblbase" unicode="&#x201e;" horiz-adv-x="365" 
d="M50 -85q60 7 60 65v15q-2 -2 -6 -3q-8 -2 -14 -2q-19 0 -32 14t-13 38q0 29 17 46t43 17t43 -20.5t17 -69.5q0 -68 -31 -102t-84 -38v40zM205 -85q60 7 60 65v15q-2 -2 -6 -3q-8 -2 -14 -2q-19 0 -32 14t-13 38q0 29 17 46t43 17t43 -20.5t17 -69.5q0 -68 -31 -102
t-84 -38v40z" />
    <glyph glyph-name="dagger" unicode="&#x2020;" horiz-adv-x="455" 
d="M185 425h-140v80h140v195h85v-195h140v-80h-140v-425h-85v425z" />
    <glyph glyph-name="daggerdbl" unicode="&#x2021;" horiz-adv-x="455" 
d="M185 155h-140v80h140v230h-140v80h140v155h85v-155h140v-80h-140v-230h140v-80h-140v-155h-85v155z" />
    <glyph glyph-name="bullet" unicode="&#x2022;" horiz-adv-x="400" 
d="M200 200q-34 0 -57 23t-23 57t23 57t57 23t57 -23t23 -57t-23 -57t-57 -23z" />
    <glyph glyph-name="ellipsis" unicode="&#x2026;" horiz-adv-x="680" 
d="M105 -15q-26 0 -43 17t-17 43t17 43t43 17t43 -17t17 -43t-17 -43t-43 -17zM575 -15q-26 0 -43 17t-17 43t17 43t43 17t43 -17t17 -43t-17 -43t-43 -17zM340 -15q-26 0 -43 17t-17 43t17 43t43 17t43 -17t17 -43t-17 -43t-43 -17z" />
    <glyph glyph-name="perthousand" unicode="&#x2030;" horiz-adv-x="1135" 
d="M550 700h85l-420 -700h-85zM560 -10q-34 0 -64 13t-52.5 35.5t-35.5 52.5t-13 64t13 64t35.5 52.5t52.5 35.5t64 13t64 -13t52.5 -35.5t35.5 -52.5t13 -64t-13 -64t-35.5 -52.5t-52.5 -35.5t-64 -13zM560 60q38 0 64 26.5t26 68.5t-26 68.5t-64 26.5t-64 -26.5t-26 -68.5
t26 -68.5t64 -26.5zM930 -10q-34 0 -64 13t-52.5 35.5t-35.5 52.5t-13 64t13 64t35.5 52.5t52.5 35.5t64 13t64 -13t52.5 -35.5t35.5 -52.5t13 -64t-13 -64t-35.5 -52.5t-52.5 -35.5t-64 -13zM930 60q38 0 64 26.5t26 68.5t-26 68.5t-64 26.5t-64 -26.5t-26 -68.5t26 -68.5
t64 -26.5zM205 380q-34 0 -64 13t-52.5 35.5t-35.5 52.5t-13 64t13 64t35.5 52.5t52.5 35.5t64 13t64 -13t52.5 -35.5t35.5 -52.5t13 -64t-13 -64t-35.5 -52.5t-52.5 -35.5t-64 -13zM205 450q38 0 64 26.5t26 68.5t-26 68.5t-64 26.5t-64 -26.5t-26 -68.5t26 -68.5t64 -26.5
z" />
    <glyph glyph-name="guilsinglleft" unicode="&#x2039;" horiz-adv-x="365" 
d="M30 250l240 245l55 -55l-185 -190l185 -190l-55 -55z" />
    <glyph glyph-name="guilsinglright" unicode="&#x203a;" horiz-adv-x="365" 
d="M40 60l185 190l-185 190l55 55l240 -245l-240 -245z" />
    <glyph glyph-name="fraction" unicode="&#x2044;" horiz-adv-x="130" 
d="M240 700h80l-430 -700h-80z" />
    <glyph glyph-name="uni2070" unicode="&#x2070;" horiz-adv-x="370" 
d="M185 450q-32 0 -60 12.5t-49 36t-33.5 57t-12.5 74.5t12.5 74.5t33.5 57t49 36t60 12.5t60 -12.5t49 -36t33.5 -57t12.5 -74.5t-12.5 -74.5t-33.5 -57t-49 -36t-60 -12.5zM185 515q34 0 57 27.5t23 87.5t-23 87.5t-57 27.5t-57 -27.5t-23 -87.5t23 -87.5t57 -27.5z" />
    <glyph glyph-name="uni2074" unicode="&#x2074;" horiz-adv-x="330" 
d="M190 530h-170v65l130 205h80l-130 -205h90v65h75v-65h50v-65h-50v-70h-75v70z" />
    <glyph glyph-name="uni2075" unicode="&#x2075;" horiz-adv-x="350" 
d="M185 450q-48 0 -75.5 16t-43.5 36q-18 23 -26 53h75q4 -11 14 -20q8 -8 21.5 -14t34.5 -6q30 0 47.5 16t17.5 39q0 19 -17.5 34.5t-47.5 15.5q-17 0 -29 -4t-20 -9q-10 -5 -16 -12l-65 15l12 190h223v-65h-160l-6 -69h1q7 5 18 9q9 4 22 7t30 3q60 0 95 -33t35 -82
q0 -24 -10 -46t-28 -38.5t-44 -26t-58 -9.5z" />
    <glyph glyph-name="uni2076" unicode="&#x2076;" horiz-adv-x="335" 
d="M165 450q-32 0 -58 9.5t-44 26t-28 38.5t-10 46q0 30 13.5 60t36.5 60l85 110h80l-70 -90l-30 -25v-5q6 2 13 5q6 2 12.5 3.5t14.5 1.5q28 0 52 -9.5t41 -26t27 -38.5t10 -46t-10 -46t-29 -38.5t-45.5 -26t-60.5 -9.5zM165 515q34 0 52 16t18 39t-18 39t-52 16
q-30 0 -47.5 -16t-17.5 -39t17.5 -39t47.5 -16z" />
    <glyph glyph-name="uni2077" unicode="&#x2077;" horiz-adv-x="300" 
d="M205 734v1h-185v65h265v-65l-145 -275h-80z" />
    <glyph glyph-name="uni2078" unicode="&#x2078;" horiz-adv-x="370" 
d="M185 450q-38 0 -66 8.5t-46.5 22.5t-28 32t-9.5 37q0 26 11.5 42.5t25.5 26.5q17 11 38 16v5q-17 5 -30 15q-11 8 -20.5 22.5t-9.5 37.5q0 19 8.5 36t25.5 30t42 21t59 8t59 -8t42 -21t25.5 -30t8.5 -36q0 -23 -9.5 -37.5t-20.5 -22.5q-13 -10 -30 -15v-5q20 -5 37 -16
q14 -10 26 -26.5t12 -42.5q0 -19 -9.5 -37t-28 -32t-47 -22.5t-65.5 -8.5zM185 515q38 0 54 15t16 30t-16 30t-54 15t-54 -15t-16 -30t16 -30t54 -15zM185 665q26 0 40.5 12.5t14.5 27.5t-14.5 27.5t-40.5 12.5t-40.5 -12.5t-14.5 -27.5t14.5 -27.5t40.5 -12.5z" />
    <glyph glyph-name="uni2079" unicode="&#x2079;" horiz-adv-x="335" 
d="M165 550l30 25v5q-6 -3 -13 -5q-13 -5 -27 -5q-28 0 -52 9.5t-41 26t-27 38.5t-10 46t10 46t28.5 38.5t45.5 26t61 9.5q32 0 58 -9.5t44 -26t28 -38.5t10 -46q0 -30 -13.5 -60t-36.5 -60l-85 -110h-80zM170 635q30 0 47.5 16t17.5 39t-17.5 39t-47.5 16q-34 0 -52 -16
t-18 -39t18 -39t52 -16z" />
    <glyph glyph-name="uni2080" unicode="&#x2080;" horiz-adv-x="370" 
d="M185 -110q-32 0 -60 12.5t-49 36t-33.5 57t-12.5 74.5t12.5 74.5t33.5 57t49 36t60 12.5t60 -12.5t49 -36t33.5 -57t12.5 -74.5t-12.5 -74.5t-33.5 -57t-49 -36t-60 -12.5zM185 -45q34 0 57 27.5t23 87.5t-23 87.5t-57 27.5t-57 -27.5t-23 -87.5t23 -87.5t57 -27.5z" />
    <glyph glyph-name="uni2081" unicode="&#x2081;" horiz-adv-x="350" 
d="M55 -35h100v195l-90 -50v80l95 50h70v-275h95v-65h-270v65z" />
    <glyph glyph-name="uni2082" unicode="&#x2082;" horiz-adv-x="355" 
d="M35 -35l80 50q36 22 60 39.5t38.5 31.5t20.5 26t6 23q0 23 -15 36.5t-45 13.5q-23 0 -37.5 -8.5t-22.5 -19.5q-10 -12 -14 -27h-71q6 34 24 60q15 23 43.5 41.5t77.5 18.5q64 0 99.5 -33t35.5 -81q0 -46 -35 -82.5t-110 -77.5l-13 -7l-7 -3v-2l10 1h160v-65h-285v65z" />
    <glyph glyph-name="uni2083" unicode="&#x2083;" horiz-adv-x="350" 
d="M175 -110q-48 0 -75.5 17t-43.5 38q-18 24 -26 55h76q5 -13 14 -23q8 -8 21 -15t34 -7q34 0 49.5 13.5t15.5 36.5q0 19 -16 32t-54 13h-70v60l90 64v2l-10 -1h-130v65h245v-60l-85 -62l-10 -6v-2h5q49 0 79.5 -30t30.5 -75q0 -49 -36 -82t-104 -33z" />
    <glyph glyph-name="uni2084" unicode="&#x2084;" horiz-adv-x="330" 
d="M190 -30h-170v65l130 205h80l-130 -205h90v65h75v-65h50v-65h-50v-70h-75v70z" />
    <glyph glyph-name="uni2085" unicode="&#x2085;" horiz-adv-x="350" 
d="M185 -110q-48 0 -75.5 16t-43.5 36q-18 23 -26 53h75q4 -11 14 -20q8 -8 21.5 -14t34.5 -6q30 0 47.5 16t17.5 39q0 19 -17.5 34.5t-47.5 15.5q-17 0 -29 -4t-20 -9q-10 -5 -16 -12l-65 15l12 190h223v-65h-160l-6 -69h1q7 5 18 9q9 4 22 7t30 3q60 0 95 -33t35 -82
q0 -24 -10 -46t-28 -38.5t-44 -26t-58 -9.5z" />
    <glyph glyph-name="uni2086" unicode="&#x2086;" horiz-adv-x="335" 
d="M165 -110q-32 0 -58 9.5t-44 26t-28 38.5t-10 46q0 30 13.5 60t36.5 60l85 110h80l-70 -90l-30 -25v-5q6 2 13 5q6 2 12.5 3.5t14.5 1.5q28 0 52 -9.5t41 -26t27 -38.5t10 -46t-10 -46t-29 -38.5t-45.5 -26t-60.5 -9.5zM165 -45q34 0 52 16t18 39t-18 39t-52 16
q-30 0 -47.5 -16t-17.5 -39t17.5 -39t47.5 -16z" />
    <glyph glyph-name="uni2087" unicode="&#x2087;" horiz-adv-x="300" 
d="M205 174v1h-185v65h265v-65l-145 -275h-80z" />
    <glyph glyph-name="uni2088" unicode="&#x2088;" horiz-adv-x="370" 
d="M185 -110q-38 0 -66 8.5t-46.5 22.5t-28 32t-9.5 37q0 26 11.5 42.5t25.5 26.5q17 11 38 16v5q-17 5 -30 15q-11 8 -20.5 22.5t-9.5 37.5q0 19 8.5 36t25.5 30t42 21t59 8t59 -8t42 -21t25.5 -30t8.5 -36q0 -23 -9.5 -37.5t-20.5 -22.5q-13 -10 -30 -15v-5q20 -5 37 -16
q14 -10 26 -26.5t12 -42.5q0 -19 -9.5 -37t-28 -32t-47 -22.5t-65.5 -8.5zM185 -45q38 0 54 15t16 30t-16 30t-54 15t-54 -15t-16 -30t16 -30t54 -15zM185 105q26 0 40.5 12.5t14.5 27.5t-14.5 27.5t-40.5 12.5t-40.5 -12.5t-14.5 -27.5t14.5 -27.5t40.5 -12.5z" />
    <glyph glyph-name="uni2089" unicode="&#x2089;" horiz-adv-x="335" 
d="M165 -10l30 25v5q-6 -3 -13 -5q-13 -5 -27 -5q-28 0 -52 9.5t-41 26t-27 38.5t-10 46t10 46t28.5 38.5t45.5 26t61 9.5q32 0 58 -9.5t44 -26t28 -38.5t10 -46q0 -30 -13.5 -60t-36.5 -60l-85 -110h-80zM170 75q30 0 47.5 16t17.5 39t-17.5 39t-47.5 16q-34 0 -52 -16
t-18 -39t18 -39t52 -16z" />
    <glyph glyph-name="uni20A9" unicode="&#x20a9;" horiz-adv-x="1005" 
d="M154 230h-134v80h116l-20 90h-96v80h78l-48 220h95l46 -220h192l47 220h145l46 -220h192l47 220h95l-49 -220h79v-80h-97l-20 -90h117v-80h-134l-51 -230h-160l-47 230h-182l-46 -230h-160zM300 85l30 145h-86l31 -145h25zM347 310l19 90h-158l19 -90h120zM577 310
l-19 90h-112l-18 -90h149zM730 85l30 145h-86l31 -145h25zM542 480l-27 135h-25l-28 -135h80zM777 310l19 90h-158l19 -90h120z" />
    <glyph glyph-name="Euro" unicode="&#x20ac;" horiz-adv-x="835" 
d="M445 -20q-64 0 -120.5 18.5t-101.5 52t-78 80.5t-49 104h-76v75h62q-1 10 -1.5 19.5t-0.5 20.5q0 10 0.5 20t1.5 20h-62v75h76q16 57 49 104t78 80.5t101.5 52t120.5 18.5q53 0 96 -11t77.5 -29t60.5 -41t45 -47q45 -56 66 -127h-90q-19 47 -53 85q-15 16 -34 31t-44 27
t-56 19.5t-68 7.5q-91 0 -158.5 -45.5t-96.5 -124.5h260v-75h-278q-1 -10 -1.5 -20t-0.5 -20q0 -11 0.5 -20.5t1.5 -19.5h278v-75h-260q29 -79 96.5 -124.5t158.5 -45.5q38 0 70 8t57.5 21t45 29.5t34.5 33.5q34 40 53 93h90q-24 -76 -70 -135q-20 -26 -46.5 -50t-61 -43
t-77.5 -30.5t-95 -11.5z" />
    <glyph glyph-name="uni20B4" unicode="&#x20b4;" horiz-adv-x="640" 
d="M325 -20q-62 0 -108.5 14.5t-78 39.5t-47.5 56.5t-16 66.5q0 20 4.5 35t10.5 26q6 12 15 22h-55v75h540v-75h-390q-9 -10 -15 -21q-6 -10 -10.5 -23.5t-4.5 -30.5q0 -21 8.5 -39t27.5 -31.5t48.5 -21.5t70.5 -8q52 0 85 14.5t52 32.5q22 21 33 48h90q-14 -50 -47 -90
q-14 -17 -33.5 -33t-45.5 -29t-59 -20.5t-75 -7.5zM50 460h390q8 10 15 21q5 10 10 23.5t5 30.5q0 21 -9 39t-27.5 31.5t-48 21.5t-70.5 8q-52 0 -85 -15t-52 -33q-22 -21 -33 -47h-90q14 50 47 90q14 17 33.5 33t45.5 29t59 20.5t75 7.5q62 0 108.5 -14.5t78 -39.5
t47.5 -57t16 -66q0 -20 -5 -35t-10 -26q-7 -12 -15 -22h55v-75h-540v75z" />
    <glyph glyph-name="uni20B8" unicode="&#x20b8;" horiz-adv-x="590" 
d="M250 455h-240v85h570v-85h-240v-455h-90v455zM10 700h570v-85h-570v85z" />
    <glyph glyph-name="uni20B9" unicode="&#x20b9;" horiz-adv-x="630" 
d="M235 260h-185v85h210q68 0 108.5 26.5t51.5 68.5h-370v80h370q-11 42 -51.5 68.5t-108.5 26.5h-210v85h540v-85h-125q19 -19 30 -44t15 -51h80v-80h-80q-11 -64 -58 -109.5t-122 -60.5l180 -270h-105z" />
    <glyph glyph-name="uni20BA" unicode="&#x20ba;" horiz-adv-x="570" 
d="M110 259l-80 -29v80l80 29v80l-80 -29v80l80 29v201h90v-168l155 58v-80l-155 -58v-80l155 58v-80l-155 -58v-207q75 0 124.5 10.5t79 31t42 51.5t14.5 72h90q-2 -62 -20.5 -108.5t-59 -78t-107 -47.5t-163.5 -16h-90v259z" />
    <glyph glyph-name="uni20BC" unicode="&#x20bc;" horiz-adv-x="790" 
d="M40 50q0 114 24.5 193t66.5 131t98.5 81.5t120.5 44.5v100h90v-100q64 -15 120.5 -44.5t98.5 -81.5t66.5 -131t24.5 -193v-50h-90v50q0 92 -18 156t-48.5 106.5t-70.5 65.5t-83 32v-410h-90v410q-43 -9 -83 -32t-70.5 -65.5t-48.5 -106.5t-18 -156v-50h-90v50z" />
    <glyph glyph-name="uni20BD" unicode="&#x20bd;" horiz-adv-x="660" 
d="M110 95h-80v85h80v80h-80v85h80v355h255q62 0 110.5 -17t81.5 -46.5t50.5 -69.5t17.5 -87t-17.5 -87t-50.5 -69.5t-81.5 -46.5t-110.5 -17h-165v-80h250v-85h-250v-95h-90v95zM365 345q87 0 128.5 37.5t41.5 97.5t-41.5 97.5t-128.5 37.5h-165v-270h165z" />
    <glyph glyph-name="uni20BF" unicode="&#x20bf;" horiz-adv-x="700" 
d="M180 0h-100v700h100v110h90v-110h105v110h90v-115q72 -14 113.5 -62t41.5 -113q0 -45 -15.5 -74t-34.5 -46q-22 -20 -50 -30v-5q36 -8 65 -28q24 -17 44.5 -50t20.5 -87q0 -76 -47 -129t-138 -67v-114h-90v110h-105v-110h-90v110zM410 85q75 0 112.5 33t37.5 82
q0 53 -37.5 86.5t-112.5 33.5h-240v-235h240zM410 405q57 0 88.5 30t31.5 75t-31.5 75t-88.5 30h-240v-210h240z" />
    <glyph glyph-name="uni2116" unicode="&#x2116;" horiz-adv-x="1065" 
d="M80 700h130l324 -580l5 -10h2l-1 10v580h90v-700h-130l-324 580l-5 10h-2l1 -10v-580h-90v700zM730 310h280v-80h-280v80zM870 390q-36 0 -66 12.5t-52 34t-34.5 50.5t-12.5 63t12.5 63t34.5 50.5t52 34t66 12.5t66 -12.5t52 -34t34.5 -50.5t12.5 -63t-12.5 -63
t-34.5 -50.5t-52 -34t-66 -12.5zM870 465q38 0 61.5 23.5t23.5 61.5t-23.5 61.5t-61.5 23.5t-61.5 -23.5t-23.5 -61.5t23.5 -61.5t61.5 -23.5z" />
    <glyph glyph-name="trademark" unicode="&#x2122;" horiz-adv-x="770" 
d="M115 630h-110v70h295v-70h-110v-250h-75v250zM335 700h111l74 -170h15l74 170h111v-320h-75v225l1 10h-2l-69 -160h-95l-69 160h-2l1 -10v-225h-75v320z" />
    </font>
</defs>
</svg>
