<svg width="24" height="22" viewBox="0 0 24 22" fill="none" xmlns="http://www.w3.org/2000/svg">
<path d="M8.71856 0.852656C9.35735 0.877217 10.4875 1.19652 11.5931 1.49125C12.9444 1.85967 14.3203 2.25266 15.4996 2.32634C16.5561 2.40002 17.4651 2.2281 18.325 1.98248C17.9319 1.73687 17.5143 1.54038 17.072 1.34388C15.475 0.631603 13.8289 0.336868 12.1091 0.263184C11.3229 0.336868 10.5612 0.361428 9.77502 0.484235C9.23451 0.58248 8.69399 0.705287 8.17804 0.852656C8.35002 0.852656 8.54658 0.852656 8.71856 0.852656Z" fill="#DFFF00"/>
<path d="M16.0156 20.9438C15.1557 20.8947 13.9518 20.4772 12.797 20.0842C11.544 19.6421 10.3401 19.2245 9.35738 19.2C7.8341 19.1509 6.4091 19.5193 5.00867 19.8877C5.94229 20.5263 6.99876 21.0421 8.17807 21.4105C10.4384 22.1228 12.7479 22.1719 15.0328 21.607C15.7945 21.4351 16.507 21.1895 17.1949 20.8702C16.8509 20.9438 16.4333 20.9684 16.0156 20.9438Z" fill="#DFFF00"/>
<path d="M2.60091 4.8316C2.28151 5.2737 2.01125 5.74037 1.76556 6.18247C2.5272 6.08423 3.26427 5.9123 4.05048 5.74037C5.54919 5.39651 7.07247 5.05265 9.01343 5.17546C10.0699 5.24914 11.2001 5.42107 12.3794 5.61756C14.6643 5.98598 17.0475 6.3544 19.2833 5.96142C20.266 5.78949 20.9785 5.44563 21.5682 5.15089C21.0768 4.38949 20.5117 3.72633 19.8238 3.1123C19.529 3.23511 19.2096 3.35791 18.8165 3.43159C16.9984 3.75089 14.8609 3.40703 12.7725 3.08774C11.5686 2.89125 10.3402 2.69476 9.16084 2.62107C7.17075 2.49826 5.54919 2.76844 4.12419 3.08774C3.60824 3.57896 3.06772 4.16844 2.60091 4.8316Z" fill="#DFFF00"/>
<path d="M14.1729 6.99298C10.463 6.20702 7.66214 6.74737 4.98412 7.26316C3.68196 7.50877 2.45351 7.75439 1.12678 7.82807C0.856524 8.68772 0.709111 9.54737 0.659973 10.4316C2.3798 10.3825 3.95222 10.0877 5.45093 9.79298C8.00611 9.30176 10.4139 8.85965 13.6324 9.52281C15.2048 9.84211 18.2023 10.2105 19.8975 9.98948C21.0031 9.84211 22.1333 9.42456 23.0669 9.05614C23.0178 8.81053 22.9686 8.56491 22.9195 8.34386C22.7721 7.72982 22.5755 7.14035 22.3299 6.57544C21.4454 6.9193 20.438 7.31228 19.5536 7.43509C18.2514 7.60702 15.5488 7.28772 14.1729 6.99298Z" fill="#DFFF00"/>
<path d="M9.65221 13.1824C11.6423 12.986 12.6005 13.3298 14.0746 13.821C14.738 14.0421 15.4996 14.3123 16.4333 14.5333C17.0229 14.6807 17.588 14.7298 18.1285 14.7298C19.5535 14.7298 20.8803 14.3368 21.9859 13.993C22.1578 13.9438 22.3053 13.8947 22.4772 13.8456C22.6492 13.7965 22.8458 13.7228 23.0178 13.6737C23.2143 12.7649 23.3126 11.807 23.2634 10.8491C23.1897 10.8737 23.116 10.8982 23.0423 10.9228C22.6001 11.0702 22.1578 11.2175 21.7402 11.3649C21.5682 11.414 21.3962 11.4631 21.2242 11.5123C19.8729 11.9298 18.4725 12.3719 17.0475 12.0281C16.2121 11.807 15.5242 11.586 14.8854 11.3649C13.313 10.8246 11.9371 10.3579 9.38195 10.6035C8.03065 10.7263 6.77763 10.9228 5.57375 11.0947C4.0259 11.3158 2.45348 11.5614 0.635376 11.6842C0.684514 12.421 0.80736 13.1579 0.979343 13.8947C1.00391 14.0175 1.02848 14.1403 1.07762 14.2386C2.87116 14.1158 4.44358 13.8702 5.94229 13.6491C7.21988 13.4772 8.37462 13.2807 9.65221 13.1824Z" fill="#DFFF00"/>
<path d="M22.5018 15.3439C22.0104 15.4421 21.5191 15.5649 21.0277 15.6877C19.9712 15.9334 18.8656 16.2035 17.7109 16.4C16.6298 16.5719 15.6962 16.2527 14.4923 15.8351C13.4359 15.4667 12.2074 15.0491 10.7087 14.9263C7.78498 14.7053 5.81946 15.2948 4.09963 15.8351C3.36256 16.0562 2.6992 16.2772 1.98669 16.4C2.42894 17.2597 2.96946 17.9965 3.63282 18.6597C4.07506 18.5369 4.46817 18.4141 4.88584 18.2912C6.53196 17.7755 8.07981 17.2842 10.5121 17.4807C11.6915 17.579 12.6742 17.9228 13.6324 18.2667C14.9837 18.7334 16.4087 19.2246 18.1285 18.9544C18.9639 18.807 19.7747 18.6351 20.5363 18.4632C20.7329 18.2421 20.9048 18.0456 21.0768 17.8C21.6665 17.0141 22.1333 16.179 22.5018 15.3439Z" fill="#DFFF00"/>
</svg>
