<svg width="172" height="155" viewBox="0 0 172 155" fill="none" xmlns="http://www.w3.org/2000/svg">
<g clip-path="url(#clip0_7_430)">
<path d="M99.3965 77.6737C99.3965 85.1185 93.404 91.0247 85.9257 91.0247C78.497 90.975 72.6035 85.0192 72.6035 77.5248C72.653 70.0304 78.596 64.1243 86.0743 64.1739C93.5526 64.1739 99.3965 70.1297 99.3965 77.6737ZM85.9752 70.0801C81.8152 70.0801 78.5465 73.3558 78.5465 77.4752C78.497 81.6939 81.8152 85.0192 86.0248 85.0192C90.1353 85.0192 93.4535 81.7435 93.4535 77.6241C93.503 73.4054 90.1849 70.0801 85.9752 70.0801Z" fill="white"/>
<path d="M99.3965 13.5495C99.3965 20.9447 93.3049 26.9997 85.9257 26.9501C78.5465 26.9005 72.554 20.8454 72.6035 13.4006C72.653 6.05513 78.5465 0.0496906 85.8762 5.88029e-05C93.3545 -0.049573 99.3965 6.0055 99.3965 13.5495ZM93.4535 13.5495C93.404 9.33083 90.0363 6.05513 85.8267 6.10477C81.7161 6.1544 78.497 9.47973 78.497 13.6488C78.497 17.8179 81.9142 21.1432 86.1238 21.0936C90.2344 21.0439 93.503 17.669 93.4535 13.5495Z" fill="white"/>
<path d="M158.331 123.037C150.853 122.888 145.009 116.734 145.207 109.339C145.405 101.795 151.546 95.9382 159.074 96.1367C166.404 96.3353 172.248 102.589 172.05 110.034C171.802 117.33 165.611 123.186 158.331 123.037ZM158.381 117.081C162.442 117.181 165.908 113.955 166.057 109.885C166.206 105.716 162.887 102.192 158.727 102.093C154.617 101.993 151.249 105.219 151.1 109.339C150.952 113.557 154.171 116.932 158.381 117.081Z" fill="white"/>
<path d="M26.8425 109.389C26.9911 116.784 21.0976 122.888 13.6193 123.037C6.33918 123.186 0.148569 117.28 -5.69969e-06 109.984C-0.14858 102.539 5.69536 96.2857 13.025 96.1368C20.6024 95.9879 26.6444 101.795 26.8425 109.389ZM20.8995 109.637C20.8995 105.418 17.5318 102.093 13.3717 102.093C9.31068 102.142 5.94298 105.517 5.94298 109.587C5.94298 113.756 9.31068 117.131 13.5203 117.081C17.6309 117.081 20.8995 113.756 20.8995 109.637Z" fill="white"/>
<path d="M145.158 45.562C145.108 38.1172 151.1 32.0621 158.529 32.0621C166.007 32.0621 171.95 38.0179 172 45.4627C172.05 52.8578 165.958 58.9626 158.628 58.9626C151.2 59.0122 145.207 53.0067 145.158 45.562ZM158.727 38.0676C154.617 37.9683 151.249 41.1944 151.15 45.3138C151.051 49.5325 154.32 52.9571 158.48 53.0564C162.541 53.1556 166.007 49.8303 166.107 45.7605C166.156 41.5418 162.887 38.1172 158.727 38.0676Z" fill="white"/>
<path d="M49.723 90.9751C42.2943 90.9751 36.3018 84.9697 36.3018 77.5249C36.3018 70.0801 42.2943 64.0747 49.723 64.1243C57.2013 64.174 63.0947 70.0801 63.0947 77.5745C63.1443 85.0193 57.2013 90.9751 49.723 90.9751ZM49.723 70.0801C45.6124 70.0801 42.2943 73.3558 42.2447 77.4753C42.1952 81.694 45.5134 85.0193 49.723 85.0193C53.8336 85.0193 57.1517 81.7436 57.1517 77.6242C57.2013 73.4055 53.9326 70.0801 49.723 70.0801Z" fill="white"/>
<path d="M122.327 64.1243C129.854 64.1739 135.797 70.1793 135.748 77.7234C135.698 85.0689 129.706 90.9254 122.327 90.9254C114.848 90.9254 108.955 84.9696 108.955 77.4752C108.905 70.0801 114.848 64.1243 122.327 64.1243ZM129.755 77.5248C129.755 73.3061 126.388 70.0304 122.178 70.0801C118.067 70.1297 114.848 73.4054 114.848 77.5745C114.848 81.7932 118.166 85.0689 122.426 85.0192C126.536 85.0192 129.805 81.6939 129.755 77.5248Z" fill="white"/>
<path d="M26.8425 45.562C26.8425 52.9572 20.8005 59.0122 13.3717 58.9626C5.99251 58.9626 0 52.9075 0 45.4628C0 38.1173 5.94299 32.1118 13.2727 32.0622C20.8005 32.0126 26.8425 38.018 26.8425 45.562ZM13.6689 38.0676C9.55831 37.9187 6.09156 41.0952 5.94299 45.165C5.79441 49.3341 9.06306 52.8579 13.1736 53.0068C17.2842 53.1557 20.7014 49.9296 20.8995 45.8598C21.0481 41.6411 17.8785 38.2165 13.6689 38.0676Z" fill="white"/>
<path d="M63.1443 45.6116C63.1443 53.0067 57.1022 59.0122 49.6735 58.9626C42.2943 58.9129 36.3513 52.8578 36.3513 45.4131C36.4008 38.0676 42.3438 32.1118 49.6735 32.0621C57.1518 32.0621 63.1443 38.0676 63.1443 45.6116ZM57.2013 45.5123C57.2013 41.2936 53.8336 38.0179 49.624 38.0179C45.5134 38.0676 42.2448 41.3929 42.2448 45.5123C42.2448 49.6814 45.662 53.0564 49.8221 53.0067C53.8831 53.0067 57.2013 49.6318 57.2013 45.5123Z" fill="white"/>
<path d="M158.628 155C151.2 155.05 145.158 149.044 145.158 141.599C145.158 134.155 151.15 128.1 158.529 128.1C165.958 128.1 171.95 134.105 172 141.5C172.05 148.895 166.057 154.95 158.628 155ZM151.1 141.302C150.952 145.62 154.171 148.945 158.727 149.143C162.392 149.342 165.908 145.868 166.057 141.947C166.206 137.778 163.036 134.204 158.925 134.055C154.765 133.857 151.249 137.083 151.1 141.302Z" fill="white"/>
<path d="M63.1443 13.4999C63.1443 20.895 57.1022 26.9501 49.723 26.9501C42.3438 26.9501 36.3018 20.895 36.3018 13.4503C36.3018 6.0055 42.3933 -0.049573 49.723 5.88096e-05C57.1517 0.0496906 63.0947 6.05513 63.1443 13.4999ZM57.2013 13.6488C57.2508 9.43009 53.9821 6.0055 49.8221 5.95587C45.7115 5.90624 42.2447 9.33083 42.2447 13.4503C42.2447 17.669 45.6124 20.9447 49.9706 21.0439C53.784 21.1432 57.1517 17.669 57.2013 13.6488Z" fill="white"/>
<path d="M63.1443 109.686C63.0947 117.131 57.0527 123.087 49.624 123.037C42.1952 122.988 36.3018 116.932 36.3018 109.488C36.3513 102.093 42.4428 96.0871 49.8221 96.1368C57.2508 96.1864 63.1443 102.241 63.1443 109.686ZM57.2013 109.686C57.2013 105.468 53.8831 102.093 49.723 102.093C45.662 102.093 42.2943 105.418 42.2943 109.537C42.2447 113.756 45.6124 117.081 49.7725 117.081C53.8336 117.081 57.1517 113.756 57.2013 109.686Z" fill="white"/>
<path d="M158.48 90.975C151.051 90.9254 145.108 84.92 145.158 77.4752C145.257 69.9808 151.2 64.1243 158.678 64.1739C166.107 64.2235 172.05 70.229 172 77.6737C172 85.0689 165.958 91.0247 158.48 90.975ZM158.529 70.0801C154.369 70.0801 151.15 73.3558 151.1 77.4752C151.051 81.6939 154.369 85.0192 158.579 85.0192C162.689 85.0192 166.007 81.6939 166.057 77.6241C166.107 73.4054 162.739 70.0801 158.529 70.0801Z" fill="white"/>
<path d="M108.905 45.5123C108.905 38.0179 114.848 32.0621 122.277 32.0621C129.755 32.1118 135.649 38.0179 135.698 45.5123C135.698 52.9075 129.706 58.9626 122.277 58.9626C114.898 58.9626 108.905 53.0067 108.905 45.5123ZM114.848 45.4131C114.799 49.6318 118.117 53.0067 122.277 53.0067C126.338 53.0067 129.706 49.6814 129.755 45.6116C129.805 41.3929 126.487 38.0676 122.277 38.0179C118.166 38.0179 114.898 41.2936 114.848 45.4131Z" fill="white"/>
<path d="M26.8424 13.3012C26.991 20.6467 21.048 26.8011 13.6192 26.95C6.38861 27.0989 0.14847 21.1431 -0.000104945 13.8968C-0.14868 6.35279 5.74478 0.14882 13.223 -7.55836e-05C20.6023 -0.148971 26.6443 5.80684 26.8424 13.3012ZM20.8994 13.6487C20.9489 9.42996 17.6803 6.00537 13.5202 5.95574C9.40963 5.9061 5.94288 9.3307 5.94288 13.4501C5.94288 17.6192 9.31058 20.9445 13.6688 21.0438C17.4822 21.1431 20.8499 17.6688 20.8994 13.6487Z" fill="white"/>
<path d="M26.8425 141.649C26.793 149.094 20.7509 155.05 13.3222 155C5.89347 154.901 -0.0495228 148.895 2.11556e-06 141.451C0.049527 134.055 6.14109 128.05 13.5203 128.1C20.949 128.149 26.892 134.204 26.8425 141.649ZM20.8995 141.6C20.8995 137.381 17.5813 134.055 13.4213 134.055C9.31069 134.055 5.89347 137.53 5.94299 141.649C5.99252 145.818 9.40973 149.094 13.7679 149.144C17.5813 149.193 20.949 145.62 20.8995 141.6Z" fill="white"/>
<path d="M145.158 13.748C145.009 6.35286 150.902 0.248151 158.381 0.0992556C165.71 -7.91997e-06 171.851 5.90617 172 13.202C172.149 20.6468 166.255 26.9004 158.975 27.0493C151.398 27.1982 145.356 21.3417 145.158 13.748ZM151.1 13.5495C151.15 17.7682 154.468 21.1431 158.628 21.0935C162.788 21.0935 166.156 17.6193 166.057 13.4998C166.007 9.33076 162.541 6.05507 158.232 6.00544C154.419 5.9558 151.051 9.47966 151.1 13.5495Z" fill="white"/>
<path d="M13.4212 90.975C5.99251 90.975 0 84.9696 0 77.5745C0 70.1297 5.99251 64.1243 13.4212 64.1739C20.8995 64.1739 26.793 70.0801 26.8425 77.5745C26.892 84.9696 20.8995 90.975 13.4212 90.975ZM13.4708 85.0192C17.5813 85.0192 20.8995 81.7435 20.8995 77.6241C20.8995 73.4054 17.6309 70.0801 13.4212 70.0801C9.31068 70.0801 5.99251 73.3558 5.94299 77.4752C5.89346 81.6939 9.26116 85.0192 13.4708 85.0192Z" fill="white"/>
<path d="M72.6035 45.3634C72.653 37.9683 78.596 32.0621 85.9752 32.0621C93.5526 32.0621 99.446 38.0676 99.3965 45.6612C99.347 53.0564 93.3049 59.0618 85.8762 58.9626C78.4475 58.9129 72.554 52.8578 72.6035 45.3634ZM93.4535 45.5123C93.4535 41.2936 90.1353 37.9683 85.8762 38.0179C81.7656 38.0676 78.497 41.3433 78.497 45.5123C78.497 49.731 81.8647 53.0564 86.0743 53.0067C90.1849 53.0067 93.503 49.6318 93.4535 45.5123Z" fill="white"/>
<path d="M99.3965 109.587C99.3965 117.032 93.4535 123.037 86.0248 123.037C78.596 123.037 72.6035 117.081 72.6035 109.587C72.6035 102.142 78.596 96.0871 85.9752 96.1368C93.404 96.1368 99.3965 102.142 99.3965 109.587ZM93.4535 109.537C93.404 105.319 90.0363 101.993 85.8267 102.093C81.7161 102.142 78.497 105.517 78.497 109.637C78.497 113.855 81.8647 117.131 86.1238 117.081C90.2839 117.032 93.503 113.706 93.4535 109.537Z" fill="white"/>
<path d="M108.905 109.537C108.955 102.093 114.947 96.0871 122.327 96.1368C129.805 96.1864 135.748 102.291 135.698 109.835C135.649 117.131 129.607 123.087 122.227 123.037C114.799 123.037 108.905 117.032 108.905 109.537ZM129.755 109.686C129.805 105.468 126.487 102.093 122.277 102.093C118.166 102.093 114.848 105.368 114.799 109.488C114.749 113.706 118.018 117.032 122.227 117.081C126.388 117.131 129.755 113.806 129.755 109.686Z" fill="white"/>
<path d="M108.905 13.4503C108.955 6.00554 114.997 -0.0991685 122.327 9.50317e-05C129.755 0.0993586 135.698 6.1048 135.698 13.5496C135.698 20.9447 129.607 26.9998 122.227 26.9501C114.848 26.9501 108.905 20.8454 108.905 13.4503ZM129.755 13.5992C129.755 9.3805 126.487 5.95591 122.327 5.95591C118.166 5.90628 114.799 9.28124 114.799 13.4999C114.799 17.7186 118.117 20.9943 122.525 21.0936C126.388 21.1432 129.755 17.669 129.755 13.5992Z" fill="white"/>
<path d="M63.1443 141.649C63.1443 149.094 57.1022 155.05 49.6735 155C42.2448 154.95 36.3018 148.945 36.3513 141.451C36.4008 134.055 42.4429 128 49.8221 128.1C57.2013 128.149 63.1443 134.155 63.1443 141.649ZM57.2013 141.699C57.2508 137.48 53.9822 134.105 49.8221 134.055C45.662 134.006 42.2448 137.381 42.2448 141.55C42.2448 145.818 45.761 149.193 50.1192 149.193C53.8831 149.143 57.1518 145.669 57.2013 141.699Z" fill="white"/>
<path d="M108.905 141.55C108.905 134.105 114.898 128.1 122.277 128.1C129.755 128.1 135.748 134.204 135.698 141.748C135.649 149.044 129.656 155 122.277 155C114.848 155 108.905 148.995 108.905 141.55ZM129.755 141.699C129.755 137.48 126.487 134.105 122.327 134.055C118.166 134.006 114.799 137.381 114.799 141.599C114.799 145.818 118.117 149.044 122.525 149.193C126.338 149.243 129.755 145.719 129.755 141.699Z" fill="white"/>
<path d="M99.3965 141.55C99.3965 148.995 93.4535 155 85.9752 155C78.5465 155 72.554 149.044 72.6035 141.55C72.6035 134.105 78.596 128.1 85.9752 128.1C93.4535 128.1 99.3965 134.105 99.3965 141.55ZM93.4535 141.599C93.4535 137.381 90.1353 134.006 85.9752 134.006C81.8152 134.006 78.497 137.381 78.5465 141.599C78.596 145.818 81.9637 149.044 86.3219 149.143C90.1353 149.193 93.4535 145.669 93.4535 141.599Z" fill="white"/>
</g>
<defs>
<clipPath id="clip0_7_430">
<rect width="172" height="155" fill="white"/>
</clipPath>
</defs>
</svg>
