<svg width="146" height="146" viewBox="0 0 146 146" fill="none" xmlns="http://www.w3.org/2000/svg">
<g clip-path="url(#clip0_7_423)">
<path d="M120.356 114.834C115.9 114.876 112.495 113.28 109.847 110.214C107.577 107.61 105.559 104.796 103.331 102.15C101.817 100.344 99.9678 98.9994 97.5295 98.7474C94.3766 98.4114 91.8543 99.4615 89.8785 101.856C87.9868 104.124 86.2632 106.476 84.4135 108.744C81.5969 112.272 78.1077 114.666 73.3574 114.834C68.1446 115.002 64.4031 112.44 61.3343 108.576C59.5687 106.35 57.9292 104.082 56.1215 101.898C54.6922 100.175 52.8425 98.9994 50.4884 98.7474C47.2934 98.4114 44.7291 99.5875 42.7112 101.982C40.9036 104.166 39.222 106.434 37.4564 108.66C35.1863 111.516 32.4958 113.784 28.7965 114.498C23.7518 115.464 19.4218 114.12 15.9747 110.298C13.9568 108.03 12.1492 105.552 10.2995 103.158C8.23958 100.512 5.84339 98.6214 2.31214 98.5374C0.798755 98.4954 -0.126094 97.2773 -0.0420166 95.9333C0.0420606 94.5892 1.13506 93.6231 2.64845 93.6231C6.64212 93.6231 10.0052 95.2612 12.6116 98.2434C14.2931 100.175 15.7645 102.276 17.404 104.292C18.455 105.594 19.548 106.896 20.8091 107.946C23.962 110.592 28.4601 110.466 31.4449 107.694C32.9162 106.308 34.1354 104.628 35.4386 103.074C36.8258 101.436 38.0029 99.6295 39.4743 98.0754C45.0654 92.1531 53.6833 92.069 59.2744 97.9494C61.2082 100.007 62.8057 102.36 64.5713 104.544C65.4961 105.678 66.421 106.812 67.514 107.778C70.5408 110.466 75.123 110.55 78.1498 107.862C79.5791 106.602 80.7561 105.006 82.0173 103.536C83.5727 101.646 84.96 99.5875 86.6836 97.8234C92.2327 92.1531 100.64 92.1531 106.147 97.8654C107.913 99.7135 109.384 101.856 110.982 103.83C111.991 105.09 113 106.392 114.177 107.484C117.414 110.55 122.164 110.676 125.401 107.61C127.167 105.93 128.554 103.83 130.151 101.982C131.833 100.049 133.473 98.0754 135.364 96.3533C137.382 94.5052 139.989 93.7491 142.763 93.6651C144.571 93.6231 145.79 94.5052 145.916 96.0173C146.042 97.4873 144.949 98.6634 143.099 98.7054C140.367 98.7894 138.265 100.049 136.625 102.066C134.902 104.166 133.304 106.392 131.623 108.492C128.68 112.272 125.065 114.876 120.356 114.834Z" fill="white"/>
<path d="M119.684 52.3769C114.891 52.5029 111.276 49.8567 108.291 46.0765C106.484 43.7664 104.76 41.3723 102.826 39.1881C100.472 36.5 97.3614 35.4079 94.0403 36.668C92.1486 37.382 90.425 38.9361 88.9957 40.4482C87.0199 42.5483 85.5065 45.0265 83.6148 47.2106C77.4771 54.225 68.4809 54.225 62.3012 47.2106C60.1993 44.8164 58.3916 42.1703 56.3317 39.6922C55.0706 38.1381 53.5151 36.92 51.4553 36.458C48.5126 35.8279 45.8641 36.374 43.7622 38.5161C42.2488 40.0282 40.9876 41.7923 39.6004 43.4304C38.2131 45.0685 36.994 46.8746 35.4806 48.3866C30.0156 53.8469 21.776 53.8469 16.353 48.3446C14.5874 46.5805 13.1581 44.4804 11.5606 42.5063C10.5517 41.2462 9.54279 39.9862 8.40775 38.7681C6.89436 37.13 4.91854 36.332 2.6905 36.206C0.924877 36.122 -0.084049 35.1139 -0.0420104 33.6438C2.81818e-05 32.1317 1.17711 31.1237 2.98477 31.2077C6.7262 31.3337 9.92113 32.8038 12.4014 35.6179C14.2511 37.676 15.8486 39.9442 17.6142 42.1283C18.455 43.1784 19.3378 44.2284 20.3467 45.1525C23.5837 48.1346 28.25 48.1766 31.4449 45.1525C33.1264 43.5564 34.5137 41.5823 36.0271 39.7762C37.2462 38.3481 38.3392 36.752 39.6424 35.4079C45.3597 29.5276 54.0616 29.6536 59.5687 35.7439C61.6286 38.0541 63.3942 40.6162 65.328 43.0103C66.9675 45.0685 68.7752 46.8326 71.5497 47.2106C74.9128 47.6726 77.6453 46.4545 79.7472 43.9344C81.4708 41.8763 83.0262 39.6922 84.6657 37.634C86.9779 34.6939 89.7104 32.2578 93.5359 31.5437C98.7066 30.5357 103.121 31.9637 106.61 35.912C108.922 38.5581 110.94 41.4143 113.21 44.1024C115.354 46.6645 118.086 47.7986 121.449 47.2526C123.635 46.9166 125.359 45.6985 126.704 44.0604C128.512 41.8763 130.194 39.6082 131.917 37.382C134.481 34.1479 137.55 31.7957 141.838 31.3337C142.511 31.2497 143.225 31.1657 143.856 31.2917C145.201 31.5437 146 32.4678 145.916 33.8538C145.874 35.1559 145.075 36.164 143.772 36.164C139.736 36.164 137.256 38.6001 135.028 41.4983C133.388 43.5984 131.833 45.7825 130.067 47.7986C127.461 50.8228 124.098 52.4189 119.684 52.3769Z" fill="white"/>
<path d="M119.978 21.2532C114.934 21.2952 111.36 18.691 108.375 14.9948C106.274 12.3907 104.34 9.61852 101.986 7.26639C99.085 4.32622 94.4187 4.32622 91.2658 6.97237C90.1728 7.85442 89.2479 8.94648 88.3651 10.0385C86.7256 12.0546 85.2122 14.2388 83.4886 16.2129C77.4351 23.0173 68.3968 23.0173 62.3853 16.1289C60.1993 13.6507 58.3496 10.9206 56.2476 8.40045C53.8514 5.54429 50.7406 4.28422 47.1253 5.50229C45.5278 6.04832 43.9724 7.18238 42.7953 8.44245C40.8615 10.5006 39.264 12.8527 37.5405 15.0788C33.6309 20.0351 28.7124 22.2612 22.4486 20.7911C19.0855 19.9931 16.6052 17.809 14.5033 15.2048C12.7797 13.0207 11.1402 10.7946 9.37461 8.61046C7.60899 6.42634 5.38095 5.12427 2.48028 5.08227C0.966894 5.04026 -0.0840712 3.8642 5.99446e-06 2.43612C0.0840832 1.09205 1.13505 0.0839925 2.64844 0.0839925C6.17968 0.0839925 9.29053 1.26006 11.7288 3.78019C13.6205 5.7543 15.218 7.98042 16.9416 10.0385C18.0346 11.3826 19.0855 12.7687 20.3467 13.9448C23.5837 17.0109 28.292 17.0529 31.571 14.0288C32.9583 12.7687 34.0933 11.2146 35.2704 9.78652C36.6997 8.06443 37.9608 6.17433 39.5163 4.53624C45.2335 -1.51209 54.0616 -1.42809 59.6948 4.70425C61.1662 6.34234 62.4273 8.14843 63.8146 9.87053C64.9496 11.2566 66.0006 12.7267 67.2617 13.9448C70.6248 17.1369 75.4172 17.1789 78.7383 13.9448C80.4619 12.2647 81.8071 10.2485 83.3625 8.40045C84.7498 6.76236 86.011 4.99826 87.6084 3.57018C93.1996 -1.38609 101.103 -1.05007 106.274 4.32622C107.913 6.00632 109.216 7.98042 110.73 9.78652C111.949 11.2566 113.126 12.8527 114.513 14.1548C117.666 17.0529 122.416 17.0529 125.527 14.0708C127.167 12.4747 128.512 10.5846 129.983 8.82047C131.539 6.97237 133.01 5.08227 134.734 3.40217C137.046 1.17605 139.946 0.125995 143.183 0.125995C144.865 0.0839925 146 1.13405 146 2.60413C146 4.03221 144.991 5.08227 143.352 5.12427C140.577 5.20827 138.391 6.46834 136.71 8.52645C134.902 10.7106 133.262 13.0207 131.497 15.2048C129.227 18.061 126.494 20.2871 122.795 21.0011C121.87 21.1271 120.903 21.1691 119.978 21.2532Z" fill="white"/>
<path d="M26.064 83.5846C21.0614 83.6686 17.404 81.1905 14.4193 77.4103C12.9479 75.5201 11.5186 73.546 10.0473 71.6559C8.11348 69.1778 5.71728 67.4557 2.39623 67.3717C0.882842 67.3297 -0.0420066 66.1956 3.19621e-05 64.8096C0.0841091 63.4235 1.17711 62.3734 2.77458 62.4154C6.60009 62.4994 9.83706 63.9275 12.4014 66.7417C13.9568 68.4638 15.26 70.3539 16.7314 72.118C17.9085 73.588 19.0435 75.1001 20.4308 76.3602C23.6678 79.3424 28.334 79.3844 31.529 76.3602C33.2946 74.6801 34.6819 72.58 36.2793 70.7319C37.7927 68.9678 39.222 66.9937 40.9877 65.4816C46.0323 61.1554 53.5151 61.2814 58.3496 65.8176C60.4095 67.7077 62.0069 70.1019 63.8146 72.286C64.9496 73.63 66.0006 75.1001 67.3038 76.3182C70.4987 79.3424 75.3752 79.4264 78.5281 76.3602C80.3358 74.6381 81.7651 72.538 83.3625 70.6059C84.4135 69.3038 85.4224 67.9597 86.5575 66.7417C92.3168 60.8193 101.103 60.9453 106.61 67.0777C108.712 69.4298 110.519 71.992 112.453 74.4701C114.807 77.4523 117.75 79.2163 121.744 78.4183C123.804 77.9983 125.401 76.8222 126.704 75.2681C128.554 73.042 130.236 70.7319 132.043 68.4638C134.692 65.1456 137.929 62.7935 142.343 62.4994C142.931 62.4574 143.52 62.4154 144.066 62.5414C145.327 62.8354 146.042 63.7595 146 65.0616C145.916 66.3636 145.201 67.3717 143.856 67.3717C139.904 67.4137 137.382 69.7238 135.196 72.622C133.599 74.7641 132.043 76.9482 130.236 78.9223C124.308 85.3907 115.354 85.3067 109.553 78.7123C107.325 76.1922 105.433 73.42 103.289 70.8579C101.061 68.2117 98.2862 66.9937 94.755 67.6657C92.6951 68.0437 91.0976 69.2198 89.7944 70.7739C87.9868 72.958 86.3052 75.2261 84.5396 77.4523C82.6899 79.7624 80.588 81.8205 77.6873 82.7865C72.4325 84.5506 67.5981 83.7106 63.6044 79.8044C61.7967 78.0403 60.3254 75.8562 58.6859 73.8821C57.5509 72.496 56.4999 71.0679 55.1967 69.8498C51.8336 66.6997 47.0412 66.6157 43.7202 69.8498C41.9545 71.5719 40.6093 73.63 39.0118 75.5201C37.5405 77.2422 36.1532 79.0063 34.5137 80.5184C32.2016 82.6605 29.2589 83.5426 26.064 83.5846Z" fill="white"/>
<path d="M119.852 145.958C115.9 145.958 112.621 144.404 109.973 141.506C108.46 139.826 107.156 137.978 105.727 136.255C104.55 134.785 103.415 133.273 102.028 132.013C98.7487 128.989 93.9983 129.031 90.8034 132.139C89.2479 133.651 87.9868 135.499 86.5575 137.18C85.002 139.028 83.5727 141.002 81.8071 142.598C76.8045 147.176 69.1955 147.218 64.1929 142.682C62.4273 141.086 60.998 139.07 59.4426 137.263C57.9712 135.499 56.626 133.567 54.9865 132.013C51.9597 129.115 47.2094 129.073 44.0985 131.845C42.6692 133.105 41.4921 134.701 40.273 136.171C38.8437 137.894 37.5825 139.784 36.0691 141.464C30.3519 147.638 21.4397 147.596 15.8065 141.38C13.8307 139.196 12.1492 136.801 10.3415 134.491C8.32367 131.887 5.96951 129.871 2.39623 129.829C0.798767 129.787 -0.16812 128.485 3.42242e-05 127.099C0.12615 125.755 1.17711 124.873 2.73254 124.873C6.76825 124.831 10.0893 126.511 12.6536 129.493C14.9658 132.181 17.0257 135.121 19.3378 137.81C21.6919 140.54 24.7187 141.758 28.2079 140.582C29.8895 139.994 31.529 138.776 32.7901 137.474C34.6819 135.457 36.1953 133.105 37.9609 130.963C42.417 125.461 48.0501 123.571 53.9355 125.545C56.8782 126.553 59.0642 128.527 60.956 130.879C62.7216 133.105 64.3191 135.415 66.1688 137.558C70.2045 142.178 75.6695 142.178 79.7472 137.558C81.639 135.373 83.2364 132.979 85.0861 130.753C89.5002 125.377 95.1333 123.529 100.977 125.545C103.961 126.595 106.147 128.653 108.081 131.047C109.805 133.231 111.36 135.541 113.21 137.6C117.288 142.178 122.711 142.136 126.788 137.516C129.058 134.911 131.034 132.055 133.304 129.451C135.869 126.511 139.106 124.873 143.099 124.831C144.781 124.831 145.874 125.671 146 127.057C146.126 128.485 145.117 129.745 143.394 129.787C139.989 129.871 137.76 131.719 135.785 134.197C133.893 136.591 132.127 139.07 130.109 141.338C127.461 144.404 124.014 145.958 119.852 145.958Z" fill="white"/>
</g>
<defs>
<clipPath id="clip0_7_423">
<rect width="146" height="146" fill="white"/>
</clipPath>
</defs>
</svg>
