<svg width="162" height="162" viewBox="0 0 162 162" fill="none" xmlns="http://www.w3.org/2000/svg">
<g clip-path="url(#clip0_7_417)">
<path d="M71.1811 84.1954C67.0297 85.175 62.7849 85.8747 58.7734 87.2274C30.3663 96.8364 13.0141 116.427 6.8569 145.768C5.97063 150.059 5.97063 154.537 5.59747 158.922C5.41088 161.021 3.96487 162.373 2.23899 161.907C0.559747 161.487 0 160.274 0 158.595C0.0932911 149.406 1.58595 140.403 4.80449 131.774C13.0141 109.711 27.9873 93.991 49.5842 84.5219C49.9574 84.382 50.2839 84.1954 50.6104 83.729C50.004 83.729 49.3976 83.729 48.7912 83.729C33.818 83.729 18.8914 83.729 3.91823 83.729C3.26519 83.729 2.61215 83.7756 2.00576 83.589C0.606392 83.1692 -0.0932911 82.143 0.0466456 80.697C0.139937 79.251 1.25943 78.3181 2.89202 78.1781C6.06392 77.9449 9.28247 77.8983 12.4544 77.4785C30.9726 75.0529 46.459 66.8433 58.96 52.9895C69.0354 41.9345 75.0993 28.8738 77.3383 14.0405C77.8514 10.5421 77.9447 6.99703 78.178 3.45197C78.3179 1.25963 79.2974 0.000196023 81.07 0.0468416C82.7959 0.0934871 83.8687 1.35292 83.7754 3.5919C82.2828 37.2233 66.4699 61.5723 36.2902 76.5922C35.7771 76.8254 35.3107 77.1053 34.7976 77.3385C34.8442 77.5251 34.8909 77.7117 34.9842 77.8983C39.4621 76.7788 44.0801 76.0324 48.4181 74.4931C76.2655 64.6509 93.2911 45.1997 99.3084 16.2795C100.195 11.9881 100.195 7.51013 100.568 3.12545C100.754 1.0264 102.2 -0.326323 103.973 0.140133C105.652 0.559943 106.212 1.77273 106.212 3.45197C106.119 13.2475 104.393 22.7632 100.801 31.9058C92.4048 53.0362 77.7581 68.196 56.9542 77.3385C56.5811 77.5251 56.2079 77.665 55.8347 77.8516C55.7414 77.8983 55.6948 77.9916 55.4149 78.4114C59.3331 78.2248 63.0648 78.2248 66.7031 77.8516C81.3032 76.2657 94.4106 70.9947 105.839 61.7589C121.558 48.978 130.887 32.5121 133.546 12.3613C133.919 9.4226 134.013 6.43728 134.199 3.49861C134.339 1.30627 135.319 0.0468416 137.091 0.0934871C138.817 0.140133 139.89 1.44621 139.797 3.63855C138.304 37.27 122.491 61.619 92.3116 76.5922C91.7984 76.8254 91.332 77.1053 90.8189 77.3385C90.8655 77.5251 90.9122 77.7117 91.0055 77.8983C95.4835 76.7788 100.101 76.0324 104.439 74.4931C132.287 64.6509 149.312 45.1997 155.33 16.2795C156.216 12.0347 156.263 7.60342 156.589 3.26538C156.776 1.16633 157.895 -0.139741 159.668 0.0468416C161.3 0.186778 162.233 1.39956 162.187 3.40532C162.093 13.2009 160.367 22.7166 156.776 31.8591C148.426 52.9429 133.826 68.0561 113.069 77.2452C112.649 77.4318 112.229 77.6184 111.809 77.805C111.716 77.8516 111.669 77.9449 111.483 78.2248C112.229 78.2248 112.836 78.2248 113.442 78.2248C128.089 78.2248 142.782 78.2248 157.429 78.2248C157.849 78.2248 158.222 78.2248 158.642 78.2248C160.881 78.2248 162.14 79.2043 162.187 80.9769C162.233 82.7028 160.927 83.729 158.781 83.8689C155.843 84.0088 152.857 84.1488 149.919 84.5219C132.52 86.7143 117.64 94.1776 105.372 106.725C93.2911 119.086 86.4342 134.013 84.4285 151.132C84.1486 153.604 84.1019 156.123 84.0086 158.642C83.9154 160.834 82.8425 162.093 81.1166 162.047C79.3907 162 78.3645 160.694 78.4112 158.502C79.2508 130.748 90.9122 108.731 113.535 92.6383C117.547 89.7929 122.071 87.7405 126.409 85.3149C126.736 85.1283 127.109 84.9884 127.436 84.8018C127.389 84.6152 127.342 84.4286 127.296 84.2421C123.144 85.2216 118.9 85.9213 114.888 87.274C86.4809 96.883 69.1287 116.474 62.9715 145.814C62.0852 150.106 62.0852 154.584 61.7121 158.968C61.5255 161.114 59.9395 162.513 58.167 161.907C56.6277 161.394 56.1146 160.228 56.1146 158.642C56.2079 149.453 57.7006 140.45 60.9191 131.821C69.1287 109.757 84.1486 94.0376 105.699 84.5686C106.025 84.4286 106.399 84.2421 106.678 83.6823C102.947 83.8689 99.1684 83.8689 95.4835 84.2421C79.3441 86.0612 65.1172 92.3117 53.0826 103.273C39.4155 115.728 31.2525 131.167 28.8736 149.546C28.5004 152.531 28.3605 155.563 28.2206 158.595C28.0806 160.787 27.1011 162.047 25.3285 162C23.6026 161.954 22.5298 160.647 22.6231 158.455C23.4627 130.701 35.1241 108.684 57.7006 92.5916C61.7121 89.7462 66.2367 87.6938 70.5747 85.2683C70.9012 85.0817 71.2744 84.9417 71.6009 84.7552C71.3211 84.5686 71.2278 84.382 71.1811 84.1954Z" fill="white"/>
</g>
<defs>
<clipPath id="clip0_7_417">
<rect width="162" height="162" fill="white"/>
</clipPath>
</defs>
</svg>
